<svg width="23" height="22" viewBox="0 0 23 22" fill="none" xmlns="http://www.w3.org/2000/svg">
<path d="M0 8.40164V13.6031C0 14.3183 0.575 14.9034 1.27778 14.9034H5.11111L9.315 19.1816C10.12 20.0008 11.5 19.4157 11.5 18.2584V3.73336C11.5 2.57604 10.12 1.99088 9.315 2.8101L5.11111 7.10128H1.27778C0.575 7.10128 0 7.68644 0 8.40164ZM17.25 11.0024C17.25 8.70072 15.9467 6.72418 14.0556 5.76191V16.2298C15.9467 15.2805 17.25 13.304 17.25 11.0024ZM14.0556 1.18466V1.44473C14.0556 1.93886 14.375 2.36798 14.8222 2.55003C18.1189 3.8894 20.4444 7.17931 20.4444 11.0024C20.4444 14.8254 18.1189 18.1153 14.8222 19.4547C14.3622 19.6367 14.0556 20.0659 14.0556 20.56V20.8201C14.0556 21.6393 14.8606 22.2114 15.6017 21.9254C19.9333 20.2479 23 15.9957 23 11.0024C23 6.00898 19.9333 1.75681 15.6017 0.0793511C14.8606 -0.219731 14.0556 0.36543 14.0556 1.18466Z" fill="#B5B1E7"/>
</svg>
