<svg width="20" height="15" viewBox="0 0 20 15" xmlns="http://www.w3.org/2000/svg">
<path d="M6.79759 14.7253C6.97981 14.9086 7.21796 15 7.45657 15C7.69518 15 7.93333 14.9086 8.11555 14.7253C8.47954 14.3592 8.47954 13.7658 8.11555 13.3997L3.18202 8.43745H19.0679C19.5824 8.43745 20 8.01745 20 7.49994C20 6.98244 19.5824 6.56243 19.0679 6.56243H3.18202L8.11555 1.60021C8.47954 1.23411 8.47954 0.640669 8.11555 0.274572C7.75158 -0.0915242 7.16157 -0.0915242 6.79759 0.274572L0.272985 6.83712C-0.0909949 7.20322 -0.0909949 7.79666 0.272985 8.16276L6.79759 14.7253Z" fill="currentColor"/>
</svg>
