<svg width="28" height="19" viewBox="0 0 28 19" xmlns="http://www.w3.org/2000/svg">
<path fill-rule="evenodd" clip-rule="evenodd" d="M4.78168 0C3.56425 0 2.55657 1.00386 2.55657 2.21666V14.2499C2.55657 15.4627 3.56425 16.4666 4.78168 16.4666H23.2183C24.4357 16.4666 25.4434 15.4627 25.4434 14.2499V2.21666C25.4434 1.00386 24.4357 0 23.2183 0H4.78168ZM4.78168 1.89999H23.2183C23.4059 1.89999 23.5362 2.02979 23.5362 2.21666V14.2499C23.5362 14.4368 23.4059 14.5666 23.2183 14.5666H4.78168C4.5941 14.5666 4.46381 14.4368 4.46381 14.2499V2.21666C4.46381 2.02979 4.5941 1.89999 4.78168 1.89999ZM6.53579 4.27107C6.70917 3.97515 7.02905 3.79515 7.37296 3.79999H11.8232C12.1671 3.79515 12.487 3.97515 12.6604 4.27107C12.8337 4.56699 12.8337 4.93298 12.6604 5.22891C12.487 5.52483 12.1671 5.70483 11.8232 5.69998H7.37296C7.02905 5.70483 6.70917 5.52483 6.53579 5.22891C6.36242 4.93298 6.36242 4.56699 6.53579 4.27107ZM16.2734 3.79999C15.9294 3.79515 15.6096 3.97515 15.4362 4.27107C15.2628 4.56699 15.2628 4.93298 15.4362 5.22891C15.6096 5.52483 15.9294 5.70483 16.2734 5.69998H20.7236C21.0675 5.70483 21.3874 5.52483 21.5607 5.22891C21.7341 4.93298 21.7341 4.56699 21.5607 4.27107C21.3874 3.97515 21.0675 3.79515 20.7236 3.79999H16.2734ZM6.53579 7.43769C6.70917 7.14177 7.02905 6.96177 7.37296 6.96662H11.8232C12.1671 6.96177 12.487 7.14177 12.6604 7.43769C12.8337 7.73362 12.8337 8.09961 12.6604 8.39553C12.487 8.69145 12.1671 8.87145 11.8232 8.86661H7.37296C7.02905 8.87145 6.70917 8.69145 6.53579 8.39553C6.36242 8.09961 6.36242 7.73362 6.53579 7.43769ZM16.2734 6.96662C15.9294 6.96177 15.6096 7.14177 15.4362 7.43769C15.2628 7.73362 15.2628 8.09961 15.4362 8.39553C15.6096 8.69145 15.9294 8.87145 16.2734 8.86661H20.7236C21.0675 8.87145 21.3874 8.69145 21.5607 8.39553C21.7341 8.09961 21.7341 7.73362 21.5607 7.43769C21.3874 7.14177 21.0675 6.96177 20.7236 6.96662H16.2734ZM6.53579 10.6044C6.70917 10.3084 7.02905 10.1284 7.37296 10.1333H11.8232C12.1671 10.1284 12.487 10.3084 12.6604 10.6044C12.8337 10.9003 12.8337 11.2663 12.6604 11.5622C12.487 11.8581 12.1671 12.0381 11.8232 12.0333H7.37296C7.02905 12.0381 6.70917 11.8581 6.53579 11.5622C6.36242 11.2663 6.36242 10.9003 6.53579 10.6044ZM16.2734 10.1333C15.9294 10.1284 15.6096 10.3084 15.4362 10.6044C15.2628 10.9003 15.2628 11.2663 15.4362 11.5622C15.6096 11.8581 15.9294 12.0381 16.2734 12.0333H18.8163C19.1602 12.0381 19.4801 11.8581 19.6535 11.5622C19.8269 11.2663 19.8269 10.9003 19.6535 10.6044C19.4801 10.3084 19.1602 10.1284 18.8163 10.1333H16.2734ZM0.130031 17.571C0.303405 17.2751 0.623292 17.0951 0.967201 17.0999H27.0328C27.3767 17.0951 27.6966 17.2751 27.87 17.571C28.0433 17.8669 28.0433 18.2329 27.87 18.5288C27.6966 18.8247 27.3767 19.0048 27.0328 18.9999H0.967201C0.623292 19.0048 0.303405 18.8247 0.130031 18.5288C-0.0433435 18.2329 -0.0433435 17.8669 0.130031 17.571Z" fill="currentColor"/>
</svg>
