<svg width="28" height="28" viewBox="0 0 28 28" xmlns="http://www.w3.org/2000/svg">
<path fill-rule="evenodd" clip-rule="evenodd" d="M0 14C0 6.2806 6.2806 0 14 0C21.7194 0 28 6.2806 28 14C28 21.7194 21.7194 28 14 28C11.7094 28 9.56952 27.3968 7.66035 26.4195L2.22305 27.9371C0.960348 28.2902 -0.287842 27.0421 0.065625 25.7797L1.5832 20.3465C0.603895 18.4358 0 16.2927 0 14ZM25.9 14C25.9 7.4156 20.5844 2.1 14 2.1C7.4156 2.1 2.1 7.4156 2.1 14C2.1 16.1032 2.64856 18.0694 3.60527 19.7846C3.74028 20.0265 3.77419 20.3121 3.69961 20.5789L2.25586 25.7469L7.42656 24.3045C7.69299 24.2303 7.97795 24.2642 8.21953 24.3988C9.93342 25.3536 11.8989 25.9 14 25.9C20.5844 25.9 25.9 20.5844 25.9 14ZM14 6.30137C11.6929 6.30137 9.8 8.19426 9.8 10.5014C9.79464 10.88 9.99359 11.2323 10.3207 11.4231C10.6477 11.614 11.0523 11.614 11.3793 11.4231C11.7064 11.2323 11.9054 10.88 11.9 10.5014C11.9 9.32947 12.8281 8.40137 14 8.40137C15.1719 8.40137 16.1 9.32947 16.1 10.5014C16.1 11.5285 15.7146 11.8852 15.0306 12.5182C14.9752 12.5694 14.9179 12.6225 14.8586 12.6779C14.0675 13.4173 12.95 14.566 12.95 16.4514C12.9446 16.83 13.1436 17.1823 13.4707 17.3731C13.7977 17.564 14.2023 17.564 14.5293 17.3731C14.8564 17.1823 15.0554 16.83 15.05 16.4514C15.05 15.364 15.4508 14.9921 16.145 14.3481C16.1924 14.3041 16.2412 14.2588 16.2914 14.2119C17.0753 13.4792 18.2 12.3555 18.2 10.5014C18.2 8.19426 16.3071 6.30137 14 6.30137ZM12.6 20.3014C12.6 19.5282 13.2268 18.9014 14 18.9014C14.7732 18.9014 15.4 19.5282 15.4 20.3014C15.4 21.0746 14.7732 21.7014 14 21.7014C13.2268 21.7014 12.6 21.0746 12.6 20.3014Z" fill="currentColor"/>
</svg>
