<svg width="28" height="17" viewBox="0 0 28 17" xmlns="http://www.w3.org/2000/svg">
<path fill-rule="evenodd" clip-rule="evenodd" d="M6.57181 0.00110596C6.43368 0.00439127 6.29617 0.0148138 6.15933 0.0327935C5.0646 0.176631 4.03418 0.787446 3.43473 1.81702L0.131164 7.48779C0.123795 7.50102 0.116752 7.51443 0.110043 7.528C0.095346 7.55577 0.082077 7.58424 0.0702864 7.61332C0.0106272 7.75724 -0.0115753 7.91346 0.00568112 8.0679V10.7601C0.00568112 14.195 2.86512 17 6.36681 17C9.8685 17 12.7279 14.195 12.7279 10.7601V8.26412C12.7279 7.56379 13.2862 7.01614 14.0002 7.01614C14.7141 7.01614 15.2724 7.56379 15.2724 8.26412V10.7601C15.2724 14.195 18.1318 17 21.6335 17C25.1352 17 27.9947 14.195 27.9947 10.7601V8.06425C28.0123 7.90164 27.9861 7.73734 27.9189 7.58772C27.907 7.55989 27.8937 7.53264 27.8791 7.50607L27.8779 7.50363L27.8766 7.50241L27.8692 7.48779L24.5656 1.81702C23.3668 -0.2421 20.442 -0.625644 18.7325 1.05044C18.4832 1.2852 18.3828 1.6338 18.47 1.96181C18.5572 2.28981 18.8183 2.54596 19.1527 2.63147C19.4871 2.71698 19.8424 2.61849 20.0818 2.37398C20.9358 1.53662 22.3095 1.71733 22.9082 2.74569L25.3955 7.01614H16.9037C16.4082 5.92035 15.2925 5.14416 14.0002 5.14416C12.7078 5.14416 11.5922 5.92035 11.0967 7.01614H2.6048L5.0921 2.74569C5.69085 1.71733 7.06453 1.53662 7.91858 2.37398C8.15791 2.61849 8.51328 2.71698 8.84766 2.63147C9.18203 2.54596 9.44316 2.28981 9.53033 1.96181C9.6175 1.6338 9.5171 1.2852 9.26784 1.05044C8.51994 0.317151 7.53873 -0.0218881 6.57181 0.00110596ZM1.91402 8.88811H10.8196V10.7601C10.8196 13.1832 8.83696 15.128 6.36681 15.128C3.89667 15.128 1.91402 13.1832 1.91402 10.7601V8.88811ZM26.0863 8.88811H17.1807V10.7601C17.1807 13.1832 19.1634 15.128 21.6335 15.128C24.1037 15.128 26.0863 13.1832 26.0863 10.7601V8.88811Z" fill="currentColor"/>
</svg>
