<svg width="28" height="28" viewBox="0 0 28 28" xmlns="http://www.w3.org/2000/svg">
<path fill-rule="evenodd" clip-rule="evenodd" d="M14 0C6.2806 0 0 6.2806 0 14C0 16.2927 0.603895 18.4358 1.5832 20.3465L0.065625 25.7797C-0.287842 27.0421 0.960348 28.2902 2.22305 27.9371L7.66035 26.4195C9.56952 27.3968 11.7094 28 14 28C21.7194 28 28 21.7194 28 14C28 6.2806 21.7194 0 14 0ZM14 2.1C20.5844 2.1 25.9 7.4156 25.9 14C25.9 20.5844 20.5844 25.9 14 25.9C11.8989 25.9 9.93342 25.3536 8.21953 24.3988C7.97795 24.2642 7.69299 24.2303 7.42656 24.3045L2.25586 25.7469L3.69961 20.5789C3.77419 20.3121 3.74028 20.0265 3.60527 19.7846C2.64856 18.0694 2.1 16.1032 2.1 14C2.1 7.4156 7.4156 2.1 14 2.1ZM13.058 6.95898C13.2344 6.60058 13.5996 6.37383 14 6.37383C14.4004 6.37383 14.7656 6.60058 14.942 6.95898L16.6072 10.3332L20.3314 10.8746C20.7269 10.9327 21.0552 11.2095 21.1791 11.5896C21.3023 11.9697 21.1995 12.3863 20.9139 12.6656L18.2191 15.2934L18.8549 19.0025C18.9221 19.3973 18.7613 19.7941 18.4379 20.0293C18.2545 20.1616 18.0376 20.2303 17.8199 20.2303C17.6526 20.2303 17.4858 20.1905 17.3318 20.11L14 18.3572L10.6695 20.11C10.316 20.2955 9.88758 20.2638 9.56348 20.0293C9.24008 19.7941 9.07722 19.3966 9.14512 19.0025L9.78223 15.2934L7.08613 12.6656C6.79983 12.387 6.6977 11.9697 6.8209 11.5896C6.9448 11.2095 7.27375 10.932 7.66855 10.8746L11.3928 10.3332L13.058 6.95898Z" fill="currentColor"/>
</svg>
