<svg width="28" height="23" viewBox="0 0 28 23" xmlns="http://www.w3.org/2000/svg">
<path fill-rule="evenodd" clip-rule="evenodd" d="M3.66667 0C1.65348 0 0 1.6778 0 3.72059V19.2794C0 21.3222 1.65348 23 3.66667 23H24.3333C26.3465 23 28 21.3222 28 19.2794V3.72059C28 1.6778 26.3465 0 24.3333 0H3.66667ZM3.66667 2.02941H24.3333C25.2655 2.02941 26 2.77473 26 3.72059V19.2794C26 20.2253 25.2655 20.9706 24.3333 20.9706H20.6667V16.5735C20.6667 15.2781 19.61 14.2059 18.3333 14.2059H9.66667C8.39003 14.2059 7.33333 15.2781 7.33333 16.5735V20.9706H3.66667C2.73452 20.9706 2 20.2253 2 19.2794V3.72059C2 2.77473 2.73452 2.02941 3.66667 2.02941ZM11.0026 6.02746C11.6859 5.24747 12.75 4.73529 14 4.73529C15.25 4.73529 16.3141 5.24747 16.9974 6.02746C17.6807 6.80744 18 7.8076 18 8.79412C18 9.78064 17.6807 10.7808 16.9974 11.5608C16.3141 12.3408 15.25 12.8529 14 12.8529C12.75 12.8529 11.6859 12.3408 11.0026 11.5608C10.3193 10.7808 10 9.78064 10 8.79412C10 7.8076 10.3193 6.80744 11.0026 6.02746ZM14 6.76471C14.75 6.76471 15.1859 7.01356 15.5026 7.37511C15.8193 7.73667 16 8.25858 16 8.79412C16 9.32966 15.8193 9.85156 15.5026 10.2131C15.1859 10.5747 14.75 10.8235 14 10.8235C13.25 10.8235 12.8141 10.5747 12.4974 10.2131C12.1807 9.85156 12 9.32966 12 8.79412C12 8.25858 12.1807 7.73667 12.4974 7.37511C12.8141 7.01356 13.25 6.76471 14 6.76471ZM18.3335 16.2353H9.66683C9.47013 16.2353 9.3335 16.3739 9.3335 16.5735V20.9706H18.6668V16.5735C18.6668 16.3739 18.5302 16.2353 18.3335 16.2353Z" fill="currentColor"/>
</svg>
