<svg width="28" height="27" viewBox="0 0 28 27" xmlns="http://www.w3.org/2000/svg">
<path fill-rule="evenodd" clip-rule="evenodd" d="M6.02865 7.22944C6.36798 3.18753 9.81333 0 14 0C18.1867 0 21.632 3.18753 21.9714 7.22944H22.3333C25.458 7.22944 28 9.73542 28 12.8158C28 14.6948 27.0515 16.3567 25.6042 17.3702C25.8588 16.7787 26 16.1276 26 15.4447C26 14.9492 25.9245 14.4714 25.7865 14.0199C25.9225 13.6426 26 13.2391 26 12.8158C26 10.8231 24.3553 9.2011 22.3333 9.2011H20.9831C20.7091 9.2011 20.4484 9.09079 20.2604 8.8956C20.0711 8.70172 19.9717 8.43852 19.9844 8.16906L19.9922 8.03171L19.9944 8.00117C19.9972 7.96297 20 7.92508 20 7.88666C20 4.62487 17.308 1.97166 14 1.97166C10.692 1.97166 8 4.62487 8 7.88666C8 7.92507 8.00279 7.96295 8.00561 8.00113L8.00781 8.03171L8.01562 8.16906C8.02829 8.43852 7.92825 8.70106 7.73958 8.8956C7.55092 9.09079 7.29026 9.2011 7.01693 9.2011H5.66667C3.64467 9.2011 2 10.8231 2 12.8158C2 14.8085 3.64467 16.4305 5.66667 16.4305H7.43359C7.58426 17.1601 7.90184 17.8285 8.33984 18.4022H5.66667C2.542 18.4022 0 15.8962 0 12.8158C0 9.73542 2.542 7.22944 5.66667 7.22944H6.02865ZM9.58577 12.9827C10.2135 12.2865 11.1943 11.83 12.3332 11.83C13.4721 11.83 14.4528 12.2865 15.0806 12.9827C15.7083 13.6789 15.9998 14.5684 15.9998 15.4447C15.9998 16.321 15.7083 17.2105 15.0806 17.9067C14.4528 18.6029 13.4721 19.0594 12.3332 19.0594C11.1943 19.0594 10.2135 18.6029 9.58577 17.9067C8.95806 17.2105 8.6665 16.321 8.6665 15.4447C8.6665 14.5684 8.95806 13.6789 9.58577 12.9827ZM21.0002 11.83C19.8613 11.83 18.8805 12.2865 18.2528 12.9827C17.625 13.6789 17.3335 14.5684 17.3335 15.4447C17.3335 16.321 17.625 17.2105 18.2528 17.9067C18.8805 18.6029 19.8613 19.0594 21.0002 19.0594C22.1391 19.0594 23.1198 18.6029 23.7476 17.9067C24.3753 17.2105 24.6668 16.321 24.6668 15.4447C24.6668 14.5684 24.3753 13.6789 23.7476 12.9827C23.1198 12.2865 22.1391 11.83 21.0002 11.83ZM13.5858 14.292C13.3246 14.0024 12.9721 13.8017 12.3332 13.8017C11.6943 13.8017 11.3417 14.0024 11.0806 14.292C10.8194 14.5817 10.6665 15.0066 10.6665 15.4447C10.6665 15.8829 10.8194 16.3078 11.0806 16.5974C11.3417 16.8871 11.6943 17.0878 12.3332 17.0878C12.9721 17.0878 13.3246 16.8871 13.5858 16.5974C13.8469 16.3078 13.9998 15.8829 13.9998 15.4447C13.9998 15.0066 13.8469 14.5817 13.5858 14.292ZM21.0002 13.8017C21.6391 13.8017 21.9916 14.0024 22.2528 14.292C22.5139 14.5817 22.6668 15.0066 22.6668 15.4447C22.6668 15.8829 22.5139 16.3078 22.2528 16.5974C21.9916 16.8871 21.6391 17.0878 21.0002 17.0878C20.3613 17.0878 20.0087 16.8871 19.7476 16.5974C19.4864 16.3078 19.3335 15.8829 19.3335 15.4447C19.3335 15.0066 19.4864 14.5817 19.7476 14.292C20.0087 14.0024 20.3613 13.8017 21.0002 13.8017ZM6.6665 22.3943C6.6665 21.2803 7.67711 20.3739 8.91911 20.3739H14.7524C14.2978 20.924 14.017 21.6022 14.005 22.3455H8.91911C8.76377 22.3455 8.67275 22.4124 8.65609 22.4367L8.6652 23.6882C8.6652 24.1489 10.1052 25.0283 12.3605 25.0283C13.0585 25.0283 13.6666 24.939 14.1899 24.8088C14.4073 25.4529 14.8116 26.0315 15.3696 26.5263C14.5063 26.8267 13.4838 27 12.3618 27C9.11515 27 6.6665 25.5771 6.6665 23.6882V22.3943ZM17.5861 20.3739C16.3441 20.3739 15.3335 21.2803 15.3335 22.3943V23.6882C15.3335 25.5771 17.7821 27 21.0288 27C24.2748 27 26.7222 25.5771 26.7228 23.6882V22.3943C26.7228 21.2803 25.7122 20.3739 24.4702 20.3739H17.5861ZM24.4699 22.3455H17.5858C17.4304 22.3455 17.3388 22.4123 17.3228 22.4367L17.3332 23.6882C17.3332 24.1489 18.7725 25.0283 21.0285 25.0283C23.2845 25.0283 24.7225 24.1489 24.7225 23.6882V22.3943C24.72 22.4012 24.7056 22.396 24.6804 22.3868C24.6386 22.3716 24.5671 22.3455 24.4699 22.3455Z" fill="currentColor"/>
</svg>
