<svg width="28" height="24" viewBox="0 0 28 24" xmlns="http://www.w3.org/2000/svg">
<path fill-rule="evenodd" clip-rule="evenodd" d="M3 0C1.355 0 0 1.355 0 3V19.6667C0 22.048 1.95204 24 4.33333 24H23.6667C26.048 24 28 22.048 28 19.6667V9.66667C28 8.02167 26.645 6.66667 25 6.66667H24V3C24 1.355 22.645 0 21 0H3ZM3 2H21C21.5643 2 22 2.43567 22 3V7.5026C21.9824 7.60996 21.9824 7.71947 22 7.82682V19C21.9949 19.3606 22.1844 19.6961 22.4959 19.8779C22.8074 20.0597 23.1926 20.0597 23.5041 19.8779C23.8156 19.6961 24.0051 19.3606 24 19V8.66667H25C25.5643 8.66667 26 9.10233 26 9.66667V19.6667C26 20.9667 24.9667 22 23.6667 22H4.33333C3.03329 22 2 20.9667 2 19.6667V3C2 2.43567 2.43567 2 3 2ZM4.12211 6.49587C4.30392 6.18438 4.63936 5.9949 5 6H19C19.3606 5.9949 19.6961 6.18438 19.8779 6.49587C20.0597 6.80737 20.0597 7.19263 19.8779 7.50413C19.6961 7.81562 19.3606 8.0051 19 8H5C4.63936 8.0051 4.30392 7.81562 4.12211 7.50413C3.94031 7.19263 3.94031 6.80737 4.12211 6.49587ZM5 11.3333C4.44774 11.3334 4.00006 11.7811 4 12.3333V17C4.00006 17.5523 4.44774 17.9999 5 18H9.66667C10.2189 17.9999 10.6666 17.5523 10.6667 17V12.3333C10.6666 11.7811 10.2189 11.3334 9.66667 11.3333H5ZM12.7888 11.8292C12.9706 11.5177 13.306 11.3282 13.6667 11.3333H19C19.3606 11.3282 19.6961 11.5177 19.8779 11.8292C20.0597 12.1407 20.0597 12.526 19.8779 12.8375C19.6961 13.149 19.3606 13.3384 19 13.3333H13.6667C13.306 13.3384 12.9706 13.149 12.7888 12.8375C12.607 12.526 12.607 12.1407 12.7888 11.8292ZM6 13.3333H8.66667V16H6V13.3333ZM12.7888 16.4959C12.9706 16.1844 13.306 15.9949 13.6667 16H19C19.3606 15.9949 19.6961 16.1844 19.8779 16.4959C20.0597 16.8074 20.0597 17.1926 19.8779 17.5041C19.6961 17.8156 19.3606 18.0051 19 18H13.6667C13.306 18.0051 12.9706 17.8156 12.7888 17.5041C12.607 17.1926 12.607 16.8074 12.7888 16.4959Z" fill="currentColor"/>
</svg>
