<svg width="28" height="27" viewBox="0 0 28 27" xmlns="http://www.w3.org/2000/svg">
<path fill-rule="evenodd" clip-rule="evenodd" d="M0 3.1957C0 1.44339 1.42275 0 3.15 0H24.85C26.5773 0 28 1.44339 28 3.1957V18.109C28 19.8613 26.5773 21.3047 24.85 21.3047H18.9V24.8554H21.35C21.7287 24.85 22.0809 25.0518 22.2718 25.3837C22.4627 25.7155 22.4627 26.1259 22.2718 26.4577C22.0809 26.7895 21.7287 26.9913 21.35 26.9859H18.0182C17.9054 27.0047 17.7905 27.0047 17.6777 26.9859H10.3182C10.2054 27.0047 10.0905 27.0047 9.97773 26.9859H6.65C6.27133 26.9913 5.91911 26.7895 5.72822 26.4577C5.53732 26.1259 5.53732 25.7155 5.72822 25.3837C5.91911 25.0518 6.27133 24.85 6.65 24.8554H9.1V21.3047H3.15C1.42275 21.3047 0 19.8613 0 18.109V3.1957ZM24.85 2.13047H3.15C2.55745 2.13047 2.1 2.59455 2.1 3.1957V18.109C2.1 18.7101 2.55745 19.1742 3.15 19.1742H9.98184C10.0946 19.1554 10.2095 19.1554 10.3223 19.1742H17.6818C17.7946 19.1554 17.9095 19.1554 18.0223 19.1742H24.85C25.4425 19.1742 25.9 18.7101 25.9 18.109V3.1957C25.9 2.59455 25.4425 2.13047 24.85 2.13047ZM19.2293 6.38179C18.9566 6.38985 18.6977 6.50526 18.5074 6.70358L12.2498 13.052L9.49218 10.2544C9.22882 9.97609 8.83775 9.864 8.4698 9.96131C8.10184 10.0586 7.81449 10.3502 7.71856 10.7234C7.62263 11.0967 7.73312 11.4935 8.00741 11.7607L11.5074 15.3114C11.9175 15.7273 12.5821 15.7273 12.9922 15.3114L19.9922 8.20989C20.3022 7.90356 20.3953 7.43566 20.2265 7.03135C20.0578 6.62704 19.6619 6.36915 19.2293 6.38179ZM16.8002 21.3047H11.2002V24.8555H16.8002V21.3047Z" fill="currentColor"/>
</svg>
