<svg width="28" height="18" viewBox="0 0 28 18" xmlns="http://www.w3.org/2000/svg">
<path fill-rule="evenodd" clip-rule="evenodd" d="M5.63053 7.54839C6.07585 3.32155 9.63835 0 14 0C18.3616 0 21.9241 3.32155 22.3695 7.54839H22.75C25.6391 7.54839 28 9.89842 28 12.7742C28 15.65 25.6391 18 22.75 18H14H5.25C2.36091 18 0 15.65 0 12.7742C0 9.89842 2.36091 7.54839 5.25 7.54839H5.63053ZM20.7083 8.41935C20.7083 4.72098 17.7155 1.74194 14 1.74194C10.2845 1.74194 7.29167 4.72098 7.29167 8.41935C7.29162 8.90036 6.8999 9.29027 6.41667 9.29032H5.25C3.30675 9.29032 1.75 10.8399 1.75 12.7742C1.75 14.7085 3.30675 16.2581 5.25 16.2581H14H22.75C24.6932 16.2581 26.25 14.7085 26.25 12.7742C26.25 10.8399 24.6932 9.29032 22.75 9.29032H21.5833C21.1001 9.29027 20.7084 8.90036 20.7083 8.41935Z" fill="currentColor"/>
</svg>
