<svg width="28" height="28" viewBox="0 0 28 28" xmlns="http://www.w3.org/2000/svg">
<path fill-rule="evenodd" clip-rule="evenodd" d="M12.3385 0C5.52 0 0 5.69545 0 12.6602C0 16.3255 1.52829 19.6338 3.96781 21.9459V21.9472C4.82924 22.763 5.33558 23.8349 5.33558 24.9665V26.9863C5.33047 27.3467 5.52003 27.682 5.83166 27.8637C6.14329 28.0454 6.52871 28.0454 6.84034 27.8637C7.15197 27.682 7.34152 27.3467 7.33642 26.9863V24.9665C7.33642 23.2381 6.56148 21.6485 5.3447 20.4961C3.293 18.5516 2.00084 15.7715 2.00084 12.6602C2.00084 6.74489 6.63311 1.99898 12.3385 1.99898C17.7138 1.99898 22.1082 6.22082 22.6033 11.6555C22.621 11.8506 22.6958 12.0361 22.8182 12.1891L26.0122 16.178L26.0156 16.1818L26.0109 16.1832L23.3458 17.1137C22.9446 17.2542 22.6761 17.6325 22.6762 18.0572V22.2153C22.6762 22.6492 22.4039 23.0257 21.9923 23.1627L18.2707 24.4017C17.321 24.7175 16.6737 25.6139 16.6737 26.6141V26.9863C16.6686 27.3467 16.8581 27.682 17.1698 27.8637C17.4814 28.0454 17.8668 28.0454 18.1784 27.8637C18.4901 27.682 18.6796 27.3467 18.6745 26.9863V26.6141C18.6745 26.4668 18.7624 26.3457 18.9025 26.2991L22.6254 25.0589C23.8478 24.6521 24.677 23.5018 24.677 22.2153V18.7665L26.6727 18.0689C27.9472 17.6228 28.4193 15.9825 27.5754 14.9286L24.5325 11.1285C23.7907 4.88631 18.6451 0 12.3385 0ZM12.672 7.06021C12.1798 7.06021 11.7038 7.12212 11.2443 7.2294L11.1362 8.21197C11.0835 8.69439 10.8041 9.12379 10.3833 9.36633C9.96243 9.60887 9.45125 9.63705 9.00639 9.44181L8.10106 9.04358C7.44946 9.73722 6.95226 10.5756 6.66947 11.5098L7.47059 12.098C7.86275 12.3852 8.09455 12.8421 8.09455 13.3279C8.09455 13.8136 7.86275 14.2692 7.47059 14.5564L6.66947 15.1433C6.95226 16.0775 7.45012 16.9159 8.10106 17.6095L9.00639 17.2113C9.45125 17.0161 9.96243 17.0436 10.3833 17.2868C10.8041 17.5293 11.0835 17.9587 11.1362 18.4411L11.2443 19.4237C11.7032 19.5303 12.1798 19.5929 12.672 19.5929C13.1642 19.5929 13.6402 19.531 14.0997 19.4237L14.2078 18.4411C14.2605 17.9587 14.5399 17.5293 14.9607 17.2868C15.3816 17.0442 15.8927 17.0161 16.3376 17.2113L17.2429 17.6095C17.8945 16.9159 18.3917 16.0775 18.6745 15.1433L17.8734 14.5551C17.4812 14.2686 17.2494 13.8123 17.2494 13.3266C17.2494 12.8408 17.4812 12.3839 17.8734 12.0967L18.6745 11.5098C18.3917 10.5756 17.8939 9.73722 17.2429 9.04358L16.3376 9.44181C15.8927 9.63705 15.3816 9.60954 14.9607 9.36633C14.5399 9.12379 14.2605 8.69439 14.2078 8.21197L14.0997 7.2294C13.6408 7.12278 13.1642 7.06021 12.672 7.06021ZM14.8759 13.3266C14.8759 12.1105 13.889 11.1246 12.6718 11.1246C11.4546 11.1246 10.4678 12.1105 10.4678 13.3266C10.4678 14.5426 11.4546 15.5286 12.6718 15.5286C13.889 15.5286 14.8759 14.5426 14.8759 13.3266Z" fill="currentColor"/>
</svg>
