<svg width="28" height="28" viewBox="0 0 28 28" xmlns="http://www.w3.org/2000/svg">
<path d="M24.745 19.3713L24.7443 19.3729C24.3758 20.2439 23.5051 20.8451 22.5716 20.8451H12.0486C11.8514 20.8451 11.651 20.9229 11.5255 21.0479C11.5253 21.0482 11.5251 21.0484 11.5248 21.0486L7.131 25.2747V21.6072C7.131 21.2037 6.80772 20.8801 6.40392 20.8801H3.9996C2.73062 20.8801 1.69527 19.8447 1.69527 18.5758V7.25133C1.69527 5.98234 2.73067 4.947 3.9996 4.947H15.3937C15.7972 4.947 16.1208 4.62372 16.1208 4.21992C16.1208 3.81643 15.7975 3.49285 15.3937 3.49285H3.9996C1.92339 3.49285 0.206152 5.21009 0.206152 7.2863V18.6107C0.206152 20.6869 1.92339 22.4042 3.9996 22.4042H5.64182V27.0096L5.64175 27.0096V27.0778C5.64175 27.35 5.7978 27.6473 6.13129 27.6974C6.17791 27.7174 6.22858 27.726 6.27165 27.7303C6.3202 27.7352 6.36789 27.7352 6.40211 27.7352H6.40359C6.60071 27.7352 6.80102 27.6574 6.9265 27.5324C6.92678 27.5322 6.92707 27.5319 6.92735 27.5316L12.3674 22.3342H22.5716C24.1108 22.3342 25.5413 21.3685 26.1141 19.9368L26.1141 19.9367C26.2753 19.5334 26.071 19.1308 25.7133 18.9719L25.7133 18.9719L25.7098 18.9705C25.3064 18.8093 24.9039 19.0136 24.745 19.3713ZM27.7938 9.16777V8.95767L27.7865 8.96359C27.6849 7.54402 26.529 6.45624 25.0434 6.5242H21.6263V4.1154C21.6263 2.87474 21.2355 1.96904 20.5062 1.42208C19.9239 0.985283 19.2363 0.887802 18.6928 0.901163C18.4203 0.907863 18.1814 0.94246 18.0059 0.977665C17.9181 0.995277 17.8458 1.01312 17.7926 1.02786C17.7527 1.03895 17.7178 1.04981 17.6961 1.05855C17.3743 1.14284 17.1752 1.42707 17.1752 1.74585V4.77725C17.1752 5.8467 16.5419 6.56936 15.8806 7.03439C15.2829 7.45472 14.6744 7.65565 14.5233 7.70357C14.2705 7.46392 13.9447 7.2906 13.547 7.2906H11.108C10.3559 7.2906 9.75358 7.89294 9.75358 8.645V16.4501C9.75358 17.2022 10.3559 17.8045 11.108 17.8045H13.547C13.8491 17.8045 14.1234 17.7139 14.3412 17.5577C14.8105 17.9936 15.4695 18.2576 16.1604 18.2576H23.6171C24.4891 18.2576 25.2274 18.0172 25.7759 17.564C26.3246 17.1106 26.6748 16.4509 26.7824 15.6284L27.7925 9.35795L27.7938 9.35005V9.34204V9.16777ZM19.6919 2.55987L19.6919 2.55995L19.6956 2.56233C20.0317 2.77607 20.2068 3.28367 20.2068 4.04589V7.18176C20.2068 7.58525 20.5301 7.90884 20.9339 7.90884H25.0805C25.7896 7.90884 26.3359 8.45292 26.3394 9.16094L25.4692 15.3913L25.4683 15.3912V15.4051V15.4349C25.4507 15.6077 25.4076 15.9365 25.1844 16.2236C24.9631 16.508 24.5508 16.7686 23.7563 16.7686H16.2996C15.5899 16.7686 15.0406 16.1879 15.0406 15.5096V9.07944C15.2443 9.0203 16.0873 8.74563 16.9162 8.138C17.8291 7.4688 18.7341 6.38808 18.7341 4.74272V2.32577C19.0261 2.30837 19.4016 2.35659 19.6919 2.55987ZM11.2775 16.3154V8.7102H13.4818V16.3154H11.2775Z" fill="currentColor"/>
</svg>
