<svg width="30" height="29" viewBox="0 0 30 29" xmlns="http://www.w3.org/2000/svg">
<path d="M7.93791 19.7899C7.67966 20.0409 7.57678 20.4118 7.66867 20.7604C7.76055 21.109 8.03297 21.3815 8.38161 21.4734C8.73025 21.5652 9.10108 21.4624 9.35212 21.2041L22.0619 8.49429C22.3202 8.24325 22.4231 7.87241 22.3312 7.52377C22.2393 7.17514 21.9669 6.90272 21.6182 6.81083C21.2696 6.71894 20.8988 6.82182 20.6477 7.08007L7.93791 19.7899Z" fill="currentColor"/>
<path d="M9.35232 7.08012C9.10128 6.82187 8.73044 6.71899 8.3818 6.81088C8.03317 6.90277 7.76075 7.17519 7.66886 7.52382C7.57697 7.87246 7.67985 8.24329 7.9381 8.49433L20.6479 21.2042C20.899 21.4624 21.2698 21.5653 21.6184 21.4734C21.9671 21.3815 22.2395 21.1091 22.3314 20.7605C22.4233 20.4118 22.3204 20.041 22.0621 19.7899L9.35232 7.08012Z" fill="currentColor"/>
</svg>
