<svg width="28" height="13" viewBox="0 0 28 13" xmlns="http://www.w3.org/2000/svg">
<path fill-rule="evenodd" clip-rule="evenodd" d="M6.3913 0C2.87213 0 0 2.92095 0 6.49994C0 9.94359 2.67967 12.7131 6.01562 12.9225C6.13406 12.975 6.2621 13.0014 6.3913 12.9999H21.6087C21.7388 13.0014 21.8677 12.9746 21.9868 12.9213C25.3215 12.7105 28 9.94269 28 6.49994C28 2.92095 25.1279 0 21.6087 0C18.0895 0 15.2174 2.92095 15.2174 6.49994C15.2174 8.32193 15.972 9.9604 17.1671 11.1428H10.8329C12.028 9.9604 12.7826 8.32193 12.7826 6.49994C12.7826 2.92095 9.91048 0 6.3913 0ZM6.3913 1.85713C8.92378 1.85713 10.9565 3.92442 10.9565 6.49994C10.9565 9.07546 8.92378 11.1428 6.3913 11.1428C3.85883 11.1428 1.82609 9.07546 1.82609 6.49994C1.82609 3.92442 3.85883 1.85713 6.3913 1.85713ZM26.1739 6.49994C26.1739 3.92442 24.1412 1.85713 21.6087 1.85713C19.0762 1.85713 17.0435 3.92442 17.0435 6.49994C17.0435 9.07546 19.0762 11.1428 21.6087 11.1428C24.1412 11.1428 26.1739 9.07546 26.1739 6.49994Z" fill="currentColor"/>
</svg>
