<svg width="28" height="29" viewBox="0 0 28 29" xmlns="http://www.w3.org/2000/svg">
<path fill-rule="evenodd" clip-rule="evenodd" d="M10.684 0.389404C11.7421 0.144586 12.8505 0 14 0C15.1495 0 16.2588 0.145113 17.3174 0.39082C17.7686 0.496137 18.104 0.872875 18.1546 1.33105L18.3867 3.43525C18.4626 4.12479 18.863 4.73487 19.4673 5.08208C20.0704 5.4286 20.8023 5.4684 21.4407 5.1897L23.3855 4.33867C23.8101 4.15239 24.3066 4.25285 24.6242 4.58931C26.135 6.1912 27.2945 8.13234 27.953 10.2973C28.0874 10.7389 27.9271 11.2168 27.5529 11.4896L25.8287 12.7456C25.2657 13.1563 24.9346 13.8057 24.9346 14.5C24.9346 15.1943 25.2657 15.8437 25.8287 16.2544L27.5529 17.5104C27.9271 17.7832 28.0874 18.2611 27.953 18.7027C27.2945 20.8677 26.135 22.8088 24.6242 24.4107C24.3066 24.7471 23.8101 24.8476 23.3855 24.6613L21.4407 23.8103C20.8023 23.5316 20.0704 23.5714 19.4673 23.9179C18.863 24.2651 18.4626 24.8752 18.3867 25.5647L18.1546 27.6689C18.1044 28.1281 17.7682 28.5056 17.316 28.6106C16.2579 28.8554 15.1495 29 14 29C12.8505 29 11.7412 28.8549 10.6826 28.6092C10.2314 28.5039 9.89596 28.1271 9.84542 27.6689L9.61334 25.5647C9.53744 24.8752 9.13695 24.2651 8.53269 23.9179C7.92923 23.5712 7.19655 23.531 6.55792 23.8103L4.61446 24.6613C4.18991 24.8476 3.69338 24.7471 3.37577 24.4107C1.86399 22.8086 0.705398 20.8674 0.0469818 18.7027C-0.0874418 18.2611 0.072919 17.7832 0.447063 17.5104L2.17126 16.2544C2.73429 15.8437 3.06539 15.1943 3.06539 14.5C3.06539 13.806 2.73428 13.1572 2.17126 12.7456L0.447063 11.4881C0.072919 11.2153 -0.0874418 10.7374 0.0469818 10.2958C0.705468 8.13092 1.86498 6.1912 3.37577 4.58931C3.69304 4.25236 4.18962 4.15132 4.61446 4.33726L6.55792 5.18828H6.55934C7.19767 5.46698 7.92964 5.4286 8.53269 5.08208C9.13695 4.73487 9.53744 4.12479 9.61334 3.43525L9.84542 1.33105C9.89558 0.87193 10.2318 0.494376 10.684 0.389404ZM15.966 2.40212C15.3191 2.28856 14.6722 2.175 14 2.175C13.3309 2.175 12.6862 2.28793 12.042 2.40077L11.9241 2.42139L11.7874 3.67173C11.6359 5.04845 10.8312 6.27294 9.62616 6.96538C8.42031 7.65827 6.95221 7.73652 5.67802 7.1792L4.52334 6.67368C3.63505 7.73418 2.9315 8.93094 2.44035 10.2435L3.46547 10.9911C4.58728 11.8105 5.25231 13.115 5.25231 14.5C5.25231 15.885 4.58782 17.1886 3.46547 18.0075L2.44035 18.7551C2.93122 20.0672 3.63397 21.2648 4.52191 22.3249L5.67802 21.8194C6.95221 21.2621 8.42031 21.3417 9.62616 22.0346C10.8312 22.7271 11.6359 23.9516 11.7874 25.3283L11.9241 26.5786L12.034 26.5979C12.6809 26.7114 13.3278 26.825 14 26.825C14.6691 26.825 15.3138 26.7121 15.958 26.5992L15.9581 26.5992L16.0759 26.5786L16.2126 25.3283C16.3641 23.9516 17.1688 22.7271 18.3738 22.0346C19.5797 21.3417 21.0478 21.2621 22.322 21.8194L23.4781 22.3249C24.3659 21.2647 25.0687 20.0671 25.5596 18.7551L24.5345 18.0075C23.4122 17.1886 22.7477 15.885 22.7477 14.5C22.7477 13.115 23.4122 11.8114 24.5345 10.9925L25.5596 10.2449C25.0687 8.93286 24.3659 7.73532 23.4781 6.6751L22.322 7.18062C21.0478 7.73793 19.5797 7.65827 18.3738 6.96538C17.1688 6.27294 16.3641 5.04845 16.2126 3.67173L16.0759 2.42139L15.966 2.40212ZM13.9998 8.7C10.7919 8.7 8.16797 11.3096 8.16797 14.5C8.16797 17.6904 10.7919 20.3 13.9998 20.3C17.2076 20.3 19.8316 17.6904 19.8316 14.5C19.8316 11.3096 17.2076 8.7 13.9998 8.7ZM17.6447 14.5C17.6447 12.4851 16.0258 10.875 13.9999 10.875C11.9739 10.875 10.355 12.4851 10.355 14.5C10.355 16.5149 11.9739 18.125 13.9999 18.125C16.0258 18.125 17.6447 16.5149 17.6447 14.5Z" fill="currentColor"/>
</svg>
