<svg width="25" height="25" viewBox="0 0 25 25" xmlns="http://www.w3.org/2000/svg">
<path d="M10.6427 0.428345C7.86773 0.428345 5.60089 2.74201 5.60089 5.57456C5.60089 7.29932 6.43976 8.82892 7.72382 9.76433V7.44519C7.39101 6.90392 7.19314 6.26321 7.19314 5.57456C7.19314 3.62026 8.7282 2.05342 10.6429 2.05342C12.5575 2.05342 14.0926 3.62026 14.0926 5.57456C14.0926 6.26321 13.8947 6.90387 13.5619 7.44519V9.76433C14.8458 8.82892 15.6848 7.29932 15.6848 5.57456C15.6848 2.74211 13.4181 0.428345 10.643 0.428345H10.6427ZM10.6427 3.67854C9.3335 3.67854 8.25458 4.77985 8.25458 6.11613V12.7013C7.86013 12.1628 7.43107 11.7509 6.92778 11.6094C6.23775 11.4154 5.61951 11.6678 5.20304 11.9142C4.69976 12.3223 4.26016 12.6397 4.08356 13.2937C3.91771 13.911 4.04024 14.5745 4.33233 15.3422C5.73116 18.7631 7.42571 22.0796 9.51537 24.526C9.66345 24.6999 9.88668 24.8043 10.1125 24.8053H17.2772C17.4462 24.8053 17.6145 24.7475 17.75 24.6445C18.5811 24.0161 19.2017 22.9976 19.7235 21.8005C20.2453 20.6036 20.6386 19.217 20.843 17.8646C21.0473 16.5123 21.0627 15.1748 20.7601 14.0728C20.4524 12.952 19.6406 11.949 18.4298 11.8043C18.2247 11.7982 18.0039 11.8324 17.8246 11.8551C17.6685 11.549 17.4588 11.3033 17.2274 11.1357C16.773 10.8065 16.3243 10.7143 15.9337 10.721C15.6535 10.7257 15.399 10.823 15.1543 10.9579C15.0564 10.8385 14.9773 10.6864 14.8641 10.6023C14.4109 10.2664 13.9454 10.1791 13.562 10.1791C13.3806 10.1791 13.2059 10.2072 13.0314 10.2467V6.11631C13.0314 4.77979 11.9524 3.67872 10.6432 3.67872L10.6427 3.67854ZM10.6427 5.30376C11.0975 5.30376 11.4388 5.65215 11.4388 6.11637V11.8043C11.4376 12.1712 11.71 12.5198 12.0608 12.5999C12.4115 12.68 12.8043 12.4837 12.9563 12.1514C13.2458 11.7678 13.5469 11.7765 13.9266 11.9144C14.0216 11.9849 14.0924 12.0253 14.0924 12.3461C14.0913 12.7097 14.3595 13.0582 14.706 13.1417C15.0525 13.2252 15.4433 13.0355 15.6015 12.71C15.8085 12.2715 15.9434 12.325 16.3064 12.4646C16.4152 12.5434 16.4806 12.5825 16.4806 12.8878C16.4826 13.2003 16.6807 13.4995 16.9614 13.6243C17.2422 13.749 17.5903 13.6919 17.8155 13.4803C17.8244 13.4983 18.1699 13.384 18.2963 13.4295C18.7896 13.5056 19.031 13.793 19.2333 14.5213C19.443 15.2761 19.4563 16.4176 19.2748 17.6193C19.0932 18.8207 18.7206 20.0909 18.263 21.1404C17.8478 22.093 17.3479 22.8043 16.9362 23.1803H10.5097C9.02563 21.1287 5.60107 15.6104 5.61718 13.7343C5.83227 13.3733 6.16747 13.139 6.50457 13.1756C6.92679 13.3931 7.03174 13.6164 7.28402 14.0814L8.33726 16.2312C8.49571 16.5568 8.88627 16.7464 9.23275 16.6629C9.57924 16.5795 9.84749 16.2309 9.84635 15.8674V6.11663C9.84635 5.65242 10.1877 5.30402 10.6425 5.30402L10.6427 5.30376Z" fill="currentColor"/>
</svg>
