<svg width="28" height="23" viewBox="0 0 28 23" xmlns="http://www.w3.org/2000/svg">
<path fill-rule="evenodd" clip-rule="evenodd" d="M11.8548 0.920898C12.3479 0.363932 13.125 0 14 0C14.875 0 15.6521 0.363932 16.1452 0.920898C16.6384 1.47786 16.8636 2.18287 16.8636 2.875C16.8636 3.56713 16.6384 4.27214 16.1452 4.8291C15.9663 5.03122 15.7401 5.19635 15.4952 5.33946L18.3278 9.71061L22.7065 5.71381C22.4136 5.23546 22.2727 4.69136 22.2727 4.15278C22.2727 3.46065 22.498 2.75564 22.9911 2.19868C23.4842 1.64171 24.2614 1.27778 25.1364 1.27778C26.0114 1.27778 26.7885 1.64171 27.2816 2.19868C27.7747 2.75564 28 3.46065 28 4.15278C28 4.84491 27.7747 5.54991 27.2816 6.10688C26.8929 6.54595 26.3263 6.8612 25.6758 6.97662L23.5455 17.6655V20.7639C23.5455 21.9969 22.5464 23 21.3182 23H6.68182C5.45364 23 4.45455 21.9969 4.45455 20.7639V17.6655L2.32422 6.97662C1.67367 6.8612 1.10714 6.54595 0.718395 6.10688C0.225271 5.54991 0 4.84491 0 4.15278C0 3.46065 0.225271 2.75564 0.718395 2.19868C1.21152 1.64171 1.98864 1.27778 2.86364 1.27778C3.73864 1.27778 4.51575 1.64171 5.00888 2.19868C5.502 2.75564 5.72727 3.46065 5.72727 4.15278C5.72727 4.69136 5.58637 5.23546 5.2935 5.71381L9.67223 9.71061L12.5048 5.33946C12.2599 5.19635 12.0337 5.03122 11.8548 4.8291C11.3616 4.27214 11.1364 3.56713 11.1364 2.875C11.1364 2.18287 11.3616 1.47786 11.8548 0.920898ZM14.7184 2.19368C14.5752 2.0319 14.3977 1.91667 14 1.91667C13.6023 1.91667 13.4248 2.0319 13.2816 2.19368C13.1384 2.35547 13.0455 2.6088 13.0455 2.875C13.0455 3.1412 13.1384 3.39453 13.2816 3.55631C13.4248 3.7181 13.6023 3.83333 14 3.83333C14.3977 3.83333 14.5752 3.7181 14.7184 3.55631C14.8616 3.39453 14.9545 3.1412 14.9545 2.875C14.9545 2.6088 14.8616 2.35547 14.7184 2.19368ZM2.86364 3.19444C3.26136 3.19444 3.43879 3.30968 3.58203 3.47146C3.72527 3.63325 3.81818 3.88657 3.81818 4.15278C3.81818 4.41898 3.72527 4.67231 3.58203 4.83409C3.43879 4.99588 3.26136 5.11111 2.86364 5.11111C2.46591 5.11111 2.28848 4.99588 2.14524 4.83409C2.002 4.67231 1.90909 4.41898 1.90909 4.15278C1.90909 3.88657 2.002 3.63325 2.14524 3.47146C2.28848 3.30968 2.46591 3.19444 2.86364 3.19444ZM25.8546 3.47146C25.7113 3.30968 25.5339 3.19444 25.1362 3.19444C24.7385 3.19444 24.561 3.30968 24.4178 3.47146C24.2746 3.63324 24.1816 3.88657 24.1816 4.15278C24.1816 4.41898 24.2746 4.67231 24.4178 4.83409C24.561 4.99587 24.7385 5.11111 25.1362 5.11111C25.5339 5.11111 25.7113 4.99587 25.8546 4.83409C25.9978 4.67231 26.0907 4.41898 26.0907 4.15278C26.0907 3.88657 25.9978 3.63324 25.8546 3.47146ZM13.9998 6.54861L17.3345 11.7046C17.4872 11.941 17.7356 12.0943 18.0156 12.1327C18.2956 12.171 18.5688 12.081 18.7788 11.8893L23.6286 7.46203L21.8089 16.6111H6.1907L4.37109 7.46203L9.22088 11.8893C9.43088 12.081 9.71038 12.171 9.98402 12.1327C10.264 12.0943 10.5124 11.941 10.6651 11.7046L13.9998 6.54861ZM21.6365 18.5278H6.36377V20.7639C6.36377 20.9428 6.50377 21.0833 6.68195 21.0833H21.3183C21.4965 21.0833 21.6365 20.9428 21.6365 20.7639V18.5278Z" fill="currentColor"/>
</svg>
