<svg width="12" height="13" viewBox="0 0 12 13" xmlns="http://www.w3.org/2000/svg">
<path fill-rule="evenodd" clip-rule="evenodd" d="M0 6.03247C0 2.71867 2.6862 0.0324707 6 0.0324707C9.3138 0.0324707 12 2.71867 12 6.03247C12 9.34627 9.3138 12.0325 6 12.0325C2.6862 12.0325 0 9.34627 0 6.03247ZM8.2683 8.30047C8.4441 8.12467 8.4441 7.83997 8.2683 7.66417L6.6363 6.03247L8.268 4.40077C8.4438 4.22497 8.4438 3.94027 8.268 3.76447C8.0922 3.58867 7.8075 3.58867 7.6317 3.76447L6 5.39617L4.3683 3.76447C4.1925 3.58867 3.9078 3.58867 3.732 3.76447C3.5562 3.94027 3.5562 4.22497 3.732 4.40077L5.3637 6.03247L3.7317 7.66447C3.5559 7.84027 3.5559 8.12497 3.7317 8.30077C3.8196 8.38867 3.9348 8.43247 4.05 8.43247C4.1652 8.43247 4.2804 8.38867 4.3683 8.30047L6 6.66877L7.6317 8.30077C7.7196 8.38867 7.8348 8.43247 7.95 8.43247C8.0652 8.43247 8.1804 8.38867 8.2683 8.30047Z" fill="currentColor"/>
</svg>
