<svg width="16" height="16" viewBox="0 0 16 16" xmlns="http://www.w3.org/2000/svg">
<path fill-rule="evenodd" clip-rule="evenodd" d="M0 8C0 3.59124 3.5912 0 7.99992 0C9.06119 0 10.0782 0.207956 11.0069 0.585156V0.584375C12.1996 1.06823 13.2421 1.83497 14.0663 2.79531L14.067 2.78125C14.0761 2.33971 14.4411 1.98898 14.8827 1.99766C15.0991 2.00185 15.3045 2.09353 15.4522 2.25177C15.5998 2.41002 15.677 2.62134 15.6663 2.8375L15.5967 4.82812C15.581 5.26943 15.2107 5.61455 14.7694 5.59922L12.7788 5.52969C12.4871 5.52856 12.2191 5.36875 12.0794 5.11262C11.9398 4.8565 11.9506 4.54466 12.1077 4.29883C12.2647 4.053 12.5432 3.91215 12.8342 3.93125L12.9389 3.93516C12.2666 3.11947 11.3987 2.47018 10.4054 2.06719H10.4046C9.66296 1.76599 8.85303 1.6 7.99992 1.6C4.45592 1.6 1.59998 4.45596 1.59998 8C1.59998 11.544 4.45592 14.4 7.99992 14.4C11.5439 14.4 14.3999 11.544 14.3999 8C14.3958 7.71149 14.5474 7.44313 14.7966 7.29769C15.0457 7.15225 15.354 7.15225 15.6031 7.29769C15.8523 7.44313 16.0039 7.71149 15.9998 8C15.9998 12.4088 12.4086 16 7.99992 16C3.5912 16 0 12.4088 0 8ZM4.14609 5.98691C4.21529 5.90651 4.85681 5.2002 5.9492 5.2002C7.03879 5.2002 7.79996 5.8994 7.79996 6.9002C7.79996 7.3058 7.66783 7.64974 7.45543 7.91895C7.80263 8.21375 7.99996 8.6194 7.99996 9.10019C7.99996 10.117 7.21749 10.8002 6.0531 10.8002C4.85991 10.8002 4.21569 10.0939 4.14609 10.0135C3.92929 9.76268 3.95701 9.38418 4.20781 9.16738C4.45821 8.95098 4.83748 8.9783 5.05468 9.2291C5.06228 9.2375 5.40511 9.60019 6.0531 9.60019C6.3319 9.60019 6.79997 9.535 6.79997 9.10019C6.79997 8.7054 6.17158 8.60019 5.79998 8.60019C5.46838 8.60019 5.19999 8.33179 5.19999 8.0002C5.19999 7.6686 5.46838 7.4002 5.79998 7.4002H6.00857C6.16217 7.4002 6.59997 7.3086 6.59997 6.9002C6.59997 6.5682 6.38079 6.4002 5.9492 6.4002C5.3988 6.4002 5.06321 6.76156 5.04921 6.77676C4.82761 7.01916 4.44988 7.04201 4.20468 6.82441C3.95949 6.60681 3.93129 6.23531 4.14609 5.98691ZM10.3999 5.2002C9.29709 5.2002 8.3999 6.0974 8.3999 7.2002V8.8002C8.3999 9.903 9.29709 10.8002 10.3999 10.8002C11.5027 10.8002 12.3999 9.903 12.3999 8.8002V7.2002C12.3999 6.0974 11.5027 5.2002 10.3999 5.2002ZM11.1998 7.20039C11.1998 6.75919 10.841 6.40039 10.3998 6.40039C9.95865 6.40039 9.59985 6.75919 9.59985 7.20039V8.80039C9.59985 9.24159 9.95865 9.60039 10.3998 9.60039C10.841 9.60039 11.1998 9.24159 11.1998 8.80039V7.20039Z" fill="currentColor"/>
</svg>
