<svg width="13" height="18" viewBox="0 0 13 18" xmlns="http://www.w3.org/2000/svg">
<path fill-rule="evenodd" clip-rule="evenodd" d="M6.5 0C4.26367 0 2.4375 1.75898 2.4375 3.91304V6.84783H2.45496C0.961551 7.99622 0 9.76073 0 11.7391C0 15.19 2.91736 18 6.5 18C10.0826 18 13 15.19 13 11.7391C13 9.76073 12.0384 7.99622 10.545 6.84783H10.5625V3.91304C10.5625 1.75898 8.73633 0 6.5 0ZM6.5 1.17391C8.07754 1.17391 9.34375 2.39354 9.34375 3.91304V6.11872C8.48328 5.71288 7.52046 5.47826 6.5 5.47826C5.47954 5.47826 4.51672 5.71288 3.65625 6.11872V3.91304C3.65625 2.39354 4.92246 1.17391 6.5 1.17391ZM8.53125 10.9565C8.53125 9.87613 7.62166 9 6.5 9C5.37834 9 4.46875 9.87613 4.46875 10.9565C4.46875 11.7583 4.97087 12.4459 5.6875 12.748V14.087C5.6875 14.5193 6.05109 14.8696 6.5 14.8696C6.94891 14.8696 7.3125 14.5193 7.3125 14.087V12.748C8.02913 12.4459 8.53125 11.7583 8.53125 10.9565Z" fill="currentColor"/>
</svg>
