<svg width="24" height="36" viewBox="0 0 24 36" xmlns="http://www.w3.org/2000/svg">
<path fill-rule="evenodd" clip-rule="evenodd" d="M5.00016 7.54429C5.00016 3.694 8.14798 0.547607 12 0.547607C15.8521 0.547607 18.9999 3.694 18.9999 7.54429V19.2054C18.9999 23.0557 15.8521 26.2021 12 26.2021C8.14798 26.2021 5.00016 23.0557 5.00016 19.2054V7.54429ZM0.333588 16.4845C0.324354 15.841 0.838279 15.3117 1.482 15.3017C1.79747 15.2967 2.10149 15.4197 2.32473 15.6426C2.54797 15.8654 2.6714 16.1692 2.66687 16.4845V19.2054C2.66687 24.3224 6.75412 28.4485 11.8542 28.5267C11.8965 28.5214 11.9391 28.5183 11.9818 28.5176C12.0341 28.5171 12.0864 28.5202 12.1383 28.5267C17.2419 28.4525 21.3332 24.3249 21.3332 19.2054V16.4845C21.3272 16.0639 21.5483 15.6728 21.9117 15.4608C22.2751 15.2488 22.7245 15.2488 23.0879 15.4608C23.4514 15.6728 23.6724 16.0639 23.6665 16.4845V19.2054C23.6665 25.2385 19.0512 30.2198 13.1667 30.8073V34.3649C13.1726 34.7854 12.9516 35.1766 12.5882 35.3886C12.2247 35.6006 11.7753 35.6006 11.4119 35.3886C11.0485 35.1766 10.8274 34.7854 10.8334 34.3649V30.8073C4.94886 30.2198 0.333588 25.2385 0.333588 19.2054V16.4845Z" fill="currentColor"/>
</svg>
