<svg width="40" height="41" viewBox="0 0 40 41" xmlns="http://www.w3.org/2000/svg">
<path fill-rule="evenodd" clip-rule="evenodd" d="M0 20.9673C0 9.93929 8.972 0.967285 20 0.967285C31.028 0.967285 40 9.93929 40 20.9673C40 31.9953 31.028 40.9673 20 40.9673C8.972 40.9673 0 31.9953 0 20.9673ZM22.561 28.0283L28.561 22.0283C29.146 21.4423 29.146 20.4923 28.561 19.9083L22.561 13.9083C21.975 13.3223 21.026 13.3223 20.44 13.9083C19.854 14.4933 19.854 15.4443 20.44 16.0293L23.879 19.4683H12.5C11.671 19.4683 11 20.1393 11 20.9683C11 21.7973 11.671 22.4683 12.5 22.4683H23.878L20.439 25.9073C19.853 26.4923 19.853 27.4433 20.439 28.0283C20.732 28.3213 21.116 28.4673 21.5 28.4673C21.884 28.4673 22.268 28.3213 22.561 28.0283Z" fill="currentColor"/>
</svg>
