<svg width="20" height="21" viewBox="0 0 20 21" xmlns="http://www.w3.org/2000/svg">
<path fill-rule="evenodd" clip-rule="evenodd" d="M1.94579 17.2307H18.0559C18.7254 17.2307 19.3393 16.9044 19.6977 16.3562C20.0561 15.808 20.1 15.1306 19.8072 14.5281L18.3348 11.6564V8.07664C18.3348 5.84682 17.4181 3.77101 15.7524 2.23151C14.0884 0.693091 11.9054 -0.0925413 9.59915 0.00869167C5.15103 0.211696 1.66688 3.84531 1.66688 8.2818V11.6564L0.186206 14.5437C-0.0988155 15.1306 -0.0543676 15.8075 0.303993 16.3557C0.662354 16.9038 1.27629 17.2307 1.94579 17.2307ZM10.0008 21C8.35183 21 6.98284 19.8331 6.71726 18.3076H13.2844C13.0183 19.8331 11.6499 21 10.0008 21Z" fill="currentColor"/>
</svg>
