<svg width="16" height="17" viewBox="0 0 16 17" xmlns="http://www.w3.org/2000/svg">
<path fill-rule="evenodd" clip-rule="evenodd" d="M4.23441 0.239604C4.37931 0.0922763 4.57657 0.00646375 4.78441 0.000345764C5.11423 -0.00926333 5.4162 0.182149 5.5448 0.482351C5.6734 0.782552 5.60226 1.12996 5.36565 1.35717L4.73128 1.98387L5.36565 2.61057C5.57464 2.8088 5.65883 3.10315 5.58574 3.38011C5.51266 3.65708 5.29372 3.87337 5.01337 3.94557C4.73302 4.01777 4.43507 3.9346 4.23441 3.72814L3.03443 2.54265C2.72213 2.23401 2.72213 1.73373 3.03443 1.42509L4.23441 0.239604ZM7.43438 0.239604C7.57928 0.0922763 7.77654 0.00646375 7.98438 0.000345764C8.28231 -0.00811721 8.56031 0.147734 8.70574 0.404758C8.85117 0.661783 8.83993 0.977364 8.67656 1.22365C12.77 1.56471 15.9999 4.96661 15.9999 9.09677C15.9999 13.4522 12.4087 17 8 17C3.59128 17 8.03447e-05 13.4522 8.03447e-05 9.09677C-0.00399985 8.81176 0.147579 8.54665 0.396775 8.40296C0.64597 8.25927 0.954175 8.25927 1.20337 8.40296C1.45257 8.54665 1.60414 8.81176 1.60006 9.09677C1.60006 12.5979 4.456 15.4194 8 15.4194C11.544 15.4194 14.3999 12.5979 14.3999 9.09677C14.3999 5.83646 11.9228 3.1679 8.72031 2.81587C8.90249 3.16426 8.79857 3.59193 8.47616 3.82066C8.15375 4.04939 7.71033 4.01001 7.43438 3.72814L6.23439 2.54265C5.9221 2.23401 5.9221 1.73373 6.23439 1.42509L7.43438 0.239604ZM8.33823 6.33105C8.04983 6.33105 7.80199 6.53403 7.74839 6.8142L7.41011 8.59243C7.37731 8.7659 7.42424 8.94466 7.53824 9.0802C7.65183 9.21574 7.82155 9.29476 7.99995 9.29476H9.29994C9.68593 9.29476 9.99993 9.60497 9.99993 9.9863C9.99993 10.5577 9.56513 10.6778 9.19994 10.6778C8.55394 10.6778 8.19392 10.4259 8.16792 10.4069C7.90912 10.2082 7.536 10.2513 7.33121 10.5049C7.12401 10.7606 7.16616 11.1338 7.42496 11.3385C7.49295 11.3922 8.12075 11.8633 9.19994 11.8633C10.3775 11.8633 11.1995 11.0916 11.1991 9.9863C11.1991 8.95137 10.3467 8.10928 9.29916 8.10928H8.72338L8.83588 7.51654H10.3999C10.7315 7.51654 10.9999 7.25139 10.9999 6.9238C10.9999 6.59621 10.7315 6.33105 10.3999 6.33105H8.33823ZM5.61004 6.36093C5.65574 6.34582 5.70291 6.33705 5.74989 6.33315C5.89083 6.32142 6.03306 6.35916 6.15066 6.44274C6.30706 6.55418 6.39988 6.7331 6.39988 6.92357V11.2703C6.39988 11.5979 6.13148 11.8631 5.79989 11.8631C5.46829 11.8631 5.19989 11.5979 5.19989 11.2703V7.74554L4.78974 7.88137C4.47614 7.98609 4.13517 7.81688 4.03037 7.50628C3.92557 7.19568 4.09566 6.85962 4.41006 6.75609L5.61004 6.36093Z" fill="currentColor"/>
</svg>
