<svg width="40" height="40" viewBox="0 0 40 40" xmlns="http://www.w3.org/2000/svg">
<path d="M20.0002 0C14.5569 0 9.61209 2.18732 6.0002 5.72852V4C6.00759 3.45974 5.7961 2.93948 5.41386 2.55761C5.03162 2.17573 4.51115 1.96475 3.9709 1.97266C2.8671 1.98883 1.9851 2.89619 2.0002 4V11C2.00154 12.0725 2.8485 12.9531 3.92012 12.9961C4.21668 13.0661 4.52531 13.0674 4.82247 13H11.0002C11.7215 13.0102 12.3924 12.6312 12.756 12.0083C13.1196 11.3853 13.1196 10.6147 12.756 9.99175C12.3924 9.36875 11.7215 8.9898 11.0002 9H8.38887C11.3014 5.92457 15.4158 4 20.0002 4C28.8603 4 36.0002 11.1399 36.0002 20C36.0002 28.8601 28.8603 36 20.0002 36C11.1401 36 4.0002 28.8601 4.0002 20C4.0104 19.2787 3.63145 18.6078 3.00846 18.2442C2.38546 17.8806 1.61494 17.8806 0.991947 18.2442C0.368951 18.6078 -0.00999971 19.2787 0.000200864 20C0.000200864 31.0219 8.97829 40 20.0002 40C31.0221 40 40.0002 31.0219 40.0002 20C40.0002 8.97809 31.0221 0 20.0002 0Z" fill="currentColor"/>
</svg>
