<svg width="24" height="24" viewBox="0 0 24 24" xmlns="http://www.w3.org/2000/svg">
<path d="M21.7345 7.78549C21.4226 7.06344 20.5627 6.51537 19.8208 6.56731C19.0789 6.61935 18.2211 6.32928 17.8412 5.9672C17.4613 5.60512 17.1533 4.74902 17.1814 4.00296C17.2095 3.25691 16.6356 2.42088 15.9018 2.12884C15.168 1.83682 14.1762 2.0588 13.6883 2.6169C13.2004 3.17486 12.3826 3.58495 11.8626 3.60099C11.3428 3.61703 10.515 3.22691 10.0111 2.68291C9.50716 2.13877 8.50542 1.94482 7.78361 2.25679C7.06181 2.56875 6.5099 3.42893 6.56192 4.17109C6.61394 4.91322 6.32397 5.77132 5.96202 6.15137C5.60007 6.53141 4.74425 6.83545 4.00249 6.81144C3.26062 6.78731 2.4208 7.35937 2.12887 8.09342C1.8368 8.82762 2.05885 9.81963 2.61661 10.3077C3.17453 10.7957 3.58444 11.6139 3.6005 12.132C3.61657 12.65 3.22866 13.4801 2.68274 13.9842C2.13683 14.4883 1.94087 15.4884 2.25677 16.2145C2.57269 16.9406 3.42851 17.4886 4.17041 17.4366C4.91229 17.3845 5.7701 17.6746 6.15001 18.0367C6.52993 18.3988 6.83793 19.2508 6.80987 19.9969C6.7818 20.7429 7.35578 21.5791 8.09155 21.8712C8.82742 22.1632 9.81716 21.9412 10.3051 21.3831C10.7929 20.825 11.6088 20.4149 12.1286 20.407C12.6484 20.399 13.4762 20.7851 13.9842 21.3291C14.4921 21.8731 15.4918 22.0592 16.2137 21.7471C16.9356 21.4351 17.4875 20.579 17.4354 19.8369C17.3834 19.0947 17.6734 18.2366 18.0353 17.8566C18.3972 17.4767 19.251 17.1727 19.9968 17.2026C20.7426 17.2326 21.5785 16.6565 21.8705 15.9205C22.1624 15.1844 21.9444 14.1943 21.3826 13.7022C20.8206 13.2101 20.4108 12.402 20.3967 11.8759C20.3828 11.3499 20.7707 10.5279 21.3185 10.0238C21.5916 9.72769 21.7755 9.36061 21.849 8.96463C21.9226 8.56851 21.8829 8.15986 21.7345 7.78549ZM13.5363 15.5743C12.5888 15.9841 11.5173 16.0006 10.5577 15.6198C9.59811 15.2392 8.82903 14.4925 8.41979 13.5446C8.01056 12.5965 7.99467 11.5247 8.37572 10.5649C8.75663 9.60508 9.50325 8.83617 10.4513 8.42719C11.3992 8.01825 12.4707 8.00289 13.4298 8.3845C14.3892 8.76597 15.1576 9.51327 15.5658 10.4616C15.9741 11.4081 15.9904 12.478 15.611 13.4366C15.2316 14.395 14.4876 15.1637 13.5422 15.5743L13.5363 15.5743Z" fill="currentColor"/>
</svg>
