<svg width="12" height="12" viewBox="0 0 12 12" xmlns="http://www.w3.org/2000/svg">
<path fill-rule="evenodd" clip-rule="evenodd" d="M0 6C0 2.6916 2.6916 0 6 0C9.3084 0 12 2.6916 12 6C12 9.3084 9.3084 12 6 12C2.6916 12 0 9.3084 0 6ZM5.5683 7.9683L8.5683 4.9683C8.7438 4.7925 8.7435 4.5078 8.5677 4.332C8.3919 4.1562 8.1072 4.1562 7.9314 4.332L5.2497 7.0137L4.068 5.832C3.8922 5.6562 3.6075 5.6562 3.4317 5.832C3.2559 6.0078 3.2559 6.2925 3.4317 6.4683L4.9317 7.9683C5.0196 8.0562 5.1348 8.1 5.25 8.1C5.3652 8.1 5.4804 8.0562 5.5683 7.9683Z" fill="currentColor"/>
</svg>
