<svg width="29" height="37" viewBox="0 0 29 37" xmlns="http://www.w3.org/2000/svg">
<path d="M28.1492 7.93419L20.4408 0.22583C20.2963 0.0812988 20.1006 0 19.8958 0H3.70829C2.0086 0 0.625 1.3828 0.625 3.08336V33.9167C0.625 35.6172 2.0086 37 3.70836 37H25.2917C26.9914 37 28.375 35.6172 28.375 33.9166V8.47914C28.375 8.27441 28.2937 8.07872 28.1492 7.93419ZM20.6666 2.6317L25.7433 7.70836H22.2083C21.3576 7.70836 20.6666 7.01656 20.6666 6.16671V2.6317ZM26.8334 33.9166C26.8334 34.7665 26.1423 35.4583 25.2917 35.4583H3.70836C2.85772 35.4583 2.16671 34.7665 2.16671 33.9166V3.08336C2.16671 2.23351 2.85779 1.54171 3.70836 1.54171H19.125V6.16671C19.125 7.8672 20.5086 9.25 22.2084 9.25H26.8334V33.9166Z" fill="currentColor"/>
<path d="M22.9791 21.5835H6.02086C5.59478 21.5835 5.25 21.9283 5.25 22.3544C5.25 22.7804 5.59478 23.1252 6.02086 23.1252H22.9792C23.4053 23.1252 23.7501 22.7804 23.7501 22.3544C23.75 21.9283 23.4052 21.5835 22.9791 21.5835Z" fill="currentColor"/>
<path d="M22.9791 16.9585H6.02086C5.59478 16.9585 5.25 17.3033 5.25 17.7294C5.25 18.1554 5.59478 18.5002 6.02086 18.5002H22.9792C23.4053 18.5002 23.7501 18.1554 23.7501 17.7294C23.75 17.3033 23.4052 16.9585 22.9791 16.9585Z" fill="currentColor"/>
<path d="M15.2291 26.2085L6.02086 26.2085C5.59478 26.2085 5.25 26.5533 5.25 26.9794C5.25 27.4054 5.59478 27.7502 6.02086 27.7502H15.2291C15.6552 27.7502 16 27.4054 16 26.9794C15.9999 26.5533 15.6551 26.2085 15.2291 26.2085Z" fill="currentColor"/>
<path d="M5.25 13.1044C5.25 13.5304 5.59478 13.8752 6.02086 13.8752H22.9793C23.4053 13.8752 23.7501 13.5304 23.7501 13.1044C23.7501 12.6783 23.4053 12.3335 22.9793 12.3335L6.02086 12.3335C5.59478 12.3336 5.25 12.6783 5.25 13.1044Z" fill="currentColor"/>
</svg>
