<svg width="48" height="31" viewBox="0 0 48 31" xmlns="http://www.w3.org/2000/svg">
<path fill-rule="evenodd" clip-rule="evenodd" d="M38.42 13H39C43.96 13 48 17.04 48 22C48 26.96 43.96 31 39 31H9C4.04 31 0 26.96 0 22C0 17.04 4.04 13 9 13H9.58C10.33 5.71 16.51 0 24 0C31.49 0 37.67 5.71 38.42 13ZM31.5 17C31.9 17 32.3 16.84 32.6 16.52C33.16 15.92 33.13 14.97 32.52 14.4L25.02 7.4C24.45 6.87 23.55 6.87 22.98 7.4L15.48 14.4C14.87 14.97 14.84 15.92 15.4 16.52C15.97 17.13 16.92 17.16 17.52 16.6L22.5 11.95V24.5C22.5 25.33 23.17 26 24 26C24.83 26 25.5 25.33 25.5 24.5V11.95L30.48 16.6C30.77 16.87 31.13 17 31.5 17Z" fill="currentColor"/>
</svg>
