<svg width="50" height="50" viewBox="0 0 50 50" xmlns="http://www.w3.org/2000/svg">
<path d="M31.7291 26.3085H18.2712C12.2805 26.3085 7.80423 32.4275 7.80423 37.8973L7.80371 45H42.1961V37.8973C42.1961 32.4275 37.7199 26.3085 31.7286 26.3085H31.7291ZM39.2057 42.0093H10.7946V37.8971C10.7946 33.921 14.0604 29.2992 18.2712 29.2992H31.7291C35.9399 29.2992 39.2057 33.9215 39.2057 37.8971V42.0093Z" fill="currentColor"/>
<path d="M34.7197 14.7197C34.7197 9.36046 30.3593 5 25 5C19.6407 5 15.2803 9.36046 15.2803 14.7197C15.2803 20.079 19.6407 24.4394 25 24.4394C30.3593 24.4394 34.7197 20.079 34.7197 14.7197ZM18.2712 14.7197C18.2712 11.0091 21.2903 7.99104 24.9999 7.99104C28.71 7.99104 31.7285 11.0091 31.7285 14.7197C31.7285 18.4304 28.7095 21.4484 24.9999 21.4484C21.2897 21.4489 18.2712 18.4304 18.2712 14.7197Z" fill="currentColor"/>
</svg>
