<svg width="20" height="21" viewBox="0 0 20 21" xmlns="http://www.w3.org/2000/svg">
<path fill-rule="evenodd" clip-rule="evenodd" d="M5.26299 1.575C5.26299 0.705075 5.96983 0 6.84193 0C7.71404 0 8.42088 0.705075 8.42088 1.575C8.42088 2.03486 8.21988 2.44474 7.90484 2.73267C7.96129 3.84988 8.86448 4.725 9.99983 4.725C11.1355 4.725 12.0389 3.84935 12.0948 2.73164C11.7874 2.44375 11.5911 2.03437 11.5911 1.575C11.5911 0.705075 12.2814 0 13.1341 0C13.9867 0 14.6781 0.705075 14.6781 1.575C14.6781 2.25707 14.2507 2.83153 13.6563 3.05054C13.567 3.81168 13.2423 4.50201 12.7568 5.05005C15.2372 5.63053 17.4718 6.94623 19.2289 8.61738C19.5445 8.91753 19.5565 9.41609 19.2556 9.73096C18.9547 10.0458 18.4549 10.0578 18.1392 9.75762C16.0012 7.72414 13.0903 6.3 9.99983 6.3C6.90937 6.3 3.99845 7.72414 1.86044 9.75762C1.65625 9.95184 1.3637 10.0226 1.093 9.94332C0.822293 9.86401 0.614581 9.64665 0.548119 9.37314C0.481657 9.09963 0.566544 8.81153 0.770798 8.61738C2.52786 6.94623 4.76245 5.63053 7.24284 5.05005C6.75999 4.50496 6.43569 3.81914 6.3444 3.06284C5.71751 2.85418 5.26299 2.27053 5.26299 1.575ZM2.94202 10.8886C4.72821 9.18164 7.20858 7.875 10 7.875C12.7914 7.875 15.2718 9.18164 17.058 10.8886C18.8442 12.5956 20 14.6907 20 16.6031C20 17.3762 19.7611 18.118 19.2835 18.7124C18.806 19.3067 18.1234 19.7475 17.2821 20.0771C15.5994 20.7365 13.2308 21 10 21C6.76916 21 4.40061 20.7365 2.71793 20.0771C1.87659 19.7475 1.19403 19.3067 0.716488 18.7124C0.238946 18.118 0 17.3762 0 16.6031C0 14.6907 1.15583 12.5956 2.94202 10.8886Z" fill="currentColor"/>
</svg>
