<svg width="20" height="16" viewBox="0 0 20 16" xmlns="http://www.w3.org/2000/svg">
<path fill-rule="evenodd" clip-rule="evenodd" d="M16.5593 15.9991C16.813 15.9883 17.0501 15.871 17.2139 15.6755C18.9829 13.5607 19.957 10.8712 19.9565 8.10264C19.9565 5.22521 18.9147 2.45645 17.0233 0.307252C16.8574 0.118915 16.6215 0.00764534 16.372 0.000501545C16.1093 -0.00794112 15.8802 0.0905566 15.7039 0.269368L15.585 0.389514C15.2474 0.73155 15.2313 1.27946 15.5486 1.64141C17.1133 3.42433 17.9754 5.719 17.9754 8.10264C17.9754 10.3943 17.1702 12.6223 15.7086 14.3766C15.4061 14.7399 15.4287 15.2765 15.7614 15.6121L15.8804 15.7322C16.0509 15.9043 16.2813 16 16.5213 16C16.5342 16 16.5469 15.9996 16.5593 15.9991ZM9.98427 14.2783C9.98427 14.6332 9.78114 14.9555 9.46325 15.1059C9.34034 15.1646 9.20864 15.193 9.0778 15.193C8.87059 15.193 8.66531 15.1211 8.49951 14.9823L3.54502 10.8389H0.906257C0.405831 10.8394 0 10.4296 0 9.92453V6.28054C0 5.77528 0.405831 5.36571 0.906257 5.36571H3.54523L8.49972 1.22231C8.77042 0.99587 9.14579 0.947595 9.46346 1.09913C9.78114 1.24958 9.98448 1.57214 9.98448 1.92673L9.98427 14.2783ZM13.467 12.8492C13.4449 12.8507 13.4237 12.8515 13.4018 12.8515C13.1624 12.8515 12.9316 12.7561 12.7611 12.5838L12.6399 12.461C12.322 12.1408 12.2847 11.6336 12.5524 11.2695C13.2311 10.346 13.5893 9.25128 13.5893 8.10286C13.5893 6.86763 13.1826 5.70904 12.413 4.7522C12.12 4.38852 12.147 3.86031 12.4754 3.5291L12.5964 3.40679C12.7774 3.22408 13.02 3.1245 13.2826 3.14031C13.5382 3.15329 13.777 3.27474 13.9391 3.47477C15.0067 4.79312 15.5706 6.39376 15.5706 8.10308C15.5706 9.69506 15.0719 11.2104 14.1281 12.4846C13.9705 12.697 13.7294 12.8303 13.467 12.8492Z" fill="currentColor"/>
</svg>
