<svg width="60" height="60" viewBox="0 0 60 60" fill="none" xmlns="http://www.w3.org/2000/svg">
<rect width="60" height="60" rx="10.8197" fill="#E7B025" fill-opacity="0.25"/>
<path d="M47.8688 28.8524C47.8688 18.8932 39.7952 10.8197 29.836 10.8197C19.8768 10.8197 11.8032 18.8932 11.8032 28.8524C11.8032 31.8148 12.5195 34.6759 13.8678 37.2382L11.8547 44.9713C11.7888 45.2245 11.7888 45.4905 11.8548 45.7439C12.0681 46.5631 12.9052 47.0541 13.7244 46.8408L21.4612 44.8264C24.0207 46.1711 26.8779 46.8852 29.836 46.8852C39.7952 46.8852 47.8688 38.8117 47.8688 28.8524ZM29.836 18.9371C30.5829 18.9371 31.1885 19.5426 31.1885 20.2895V31.56C31.1885 32.3069 30.5829 32.9125 29.836 32.9125C29.0891 32.9125 28.4836 32.3069 28.4836 31.56V20.2895C28.4836 19.5426 29.0891 18.9371 29.836 18.9371ZM31.6393 36.966C31.6393 37.962 30.832 38.7693 29.836 38.7693C28.8401 38.7693 28.0327 37.962 28.0327 36.966C28.0327 35.9701 28.8401 35.1628 29.836 35.1628C30.832 35.1628 31.6393 35.9701 31.6393 36.966Z" fill="#E7B025"/>
</svg>
