<svg width="60" height="60" viewBox="0 0 60 60" fill="none" xmlns="http://www.w3.org/2000/svg">
<rect width="60" height="60" rx="10.8197" fill="#E31818" fill-opacity="0.25"/>
<path d="M47.8688 28.8525C47.8688 18.8932 39.7952 10.8197 29.836 10.8197C19.8768 10.8197 11.8032 18.8932 11.8032 28.8525C11.8032 31.7743 12.5 34.5977 13.8132 37.1335L11.8879 44.0272C11.7771 44.4236 11.777 44.8432 11.8878 45.2399C12.2226 46.4389 13.4661 47.1395 14.6651 46.8046L21.5641 44.88C24.0977 46.1903 26.9178 46.8852 29.836 46.8852C39.7952 46.8852 47.8688 38.8116 47.8688 28.8525ZM24.9317 22.0355L29.836 26.9397L34.7404 22.0355C35.2686 21.5073 36.1248 21.5073 36.6529 22.0355C37.1811 22.5636 37.1811 23.42 36.6529 23.9481L31.7487 28.8525L36.6529 33.7568C37.1811 34.285 37.1811 35.1412 36.6529 35.6694C36.1248 36.1976 35.2686 36.1976 34.7404 35.6694L29.836 30.7652L24.9317 35.6694C24.4035 36.1976 23.5472 36.1976 23.019 35.6694C22.4909 35.1412 22.4909 34.285 23.019 33.7568L27.9233 28.8525L23.019 23.9481C22.4909 23.42 22.4909 22.5636 23.019 22.0355C23.5472 21.5073 24.4035 21.5073 24.9317 22.0355Z" fill="#E31818"/>
</svg>
