<svg width="60" height="60" viewBox="0 0 60 60" fill="none" xmlns="http://www.w3.org/2000/svg">
<rect width="60" height="60" rx="10.8197" fill="#68C220" fill-opacity="0.25"/>
<path fill-rule="evenodd" clip-rule="evenodd" d="M30.8197 11.8033C40.7788 11.8033 48.8524 19.8768 48.8524 29.836C48.8524 39.7953 40.7788 47.8688 30.8197 47.8688C27.8616 47.8688 25.0044 47.1547 22.4448 45.81L14.708 47.8244C13.8888 48.0377 13.0518 47.5467 12.8384 46.7275C12.7724 46.4741 12.7724 46.2081 12.8383 45.955L14.8514 38.2218C13.5031 35.6595 12.7869 32.7984 12.7869 29.836C12.7869 19.8768 20.8604 11.8033 30.8197 11.8033ZM36.8715 24.3341L28.8114 32.3941L25.2595 28.8423C24.7314 28.3141 23.875 28.3141 23.3469 28.8423C22.8187 29.3705 22.8187 30.2267 23.3469 30.7549L27.8551 35.2631C28.3833 35.7913 29.2395 35.7913 29.7677 35.2631L38.7841 26.2467C39.3122 25.7186 39.3122 24.8622 38.7841 24.3341C38.2559 23.8059 37.3997 23.8059 36.8715 24.3341Z" fill="#5EC62D"/>
</svg>
