<svg width="24" height="24" viewBox="0 0 24 24" fill="none" xmlns="http://www.w3.org/2000/svg">
<path d="M15.75 20.5C15.4245 20.5 15.1355 20.2895 15.036 19.9795L13.5725 15.4275L9.0205 13.964C8.7105 13.8645 8.5 13.5755 8.5 13.25C8.5 12.9245 8.7105 12.6355 9.0205 12.536L13.5725 11.0725L15.036 6.5205C15.1355 6.2105 15.4245 6 15.75 6C16.0755 6 16.3645 6.2105 16.464 6.5205L17.9275 11.0725L22.4795 12.536C22.7895 12.6355 23 12.9245 23 13.25C23 13.5755 22.7895 13.8645 22.4795 13.964L17.9275 15.4275L16.464 19.9795C16.3645 20.2895 16.0755 20.5 15.75 20.5ZM6 11.5C5.677 11.5 5.3905 11.2935 5.2885 10.9875L4.3445 8.1555L1.5125 7.2115C1.2065 7.1095 1 6.823 1 6.5C1 6.177 1.2065 5.8905 1.5125 5.7885L4.3445 4.8445L5.2885 2.0125C5.3905 1.7065 5.677 1.5 6 1.5C6.323 1.5 6.6095 1.7065 6.7115 2.0125L7.6555 4.8445L10.4875 5.7885C10.7935 5.8905 11 6.177 11 6.5C11 6.823 10.7935 7.1095 10.4875 7.2115L7.6555 8.1555L6.7115 10.9875C6.6095 11.2935 6.323 11.5 6 11.5ZM5.25 22.5C4.927 22.5 4.6405 22.2935 4.5385 21.9875L3.7815 19.718L1.5125 18.9615C1.2065 18.8595 1 18.573 1 18.25C1 17.927 1.2065 17.6405 1.5125 17.5385L3.7815 16.782L4.5385 14.5125C4.6405 14.2065 4.927 14 5.25 14C5.573 14 5.8595 14.2065 5.9615 14.5125L6.718 16.782L8.9875 17.5385C9.2935 17.6405 9.5 17.927 9.5 18.25C9.5 18.573 9.2935 18.8595 8.9875 18.9615L6.718 19.718L5.9615 21.9875C5.8595 22.2935 5.573 22.5 5.25 22.5Z" fill="#7077AD"/>
</svg>
