<svg width="61" height="61" viewBox="0 0 61 61" fill="none" xmlns="http://www.w3.org/2000/svg">
<rect width="61" height="61" rx="11" fill="#0B00D8" fill-opacity="0.15"/>
<path d="M30.5 13C40.1652 13 48 20.8365 48 30.5C48 40.1635 40.1652 48 30.5 48C20.8348 48 13 40.1635 13 30.5C13 20.8365 20.8348 13 30.5 13ZM30.5 15.9173C22.4588 15.9173 15.9173 22.4588 15.9173 30.5C15.9173 38.5413 22.4588 45.0827 30.5 45.0827C38.5413 45.0827 45.0827 38.5413 45.0827 30.5C45.0827 22.4588 38.5413 15.9173 30.5 15.9173ZM29.1875 20C29.8516 20 30.4011 20.4941 30.4879 21.1345L30.5 21.3125V30.5H36.1875C36.912 30.5 37.5 31.088 37.5 31.8125C37.5 32.4766 37.006 33.0261 36.3655 33.1129L36.1875 33.125H29.1875C28.5234 33.125 27.9739 32.631 27.8871 31.9905L27.875 31.8125V21.3125C27.875 20.588 28.463 20 29.1875 20Z" fill="#0B00D8"/>
</svg>
