<svg width="61" height="61" viewBox="0 0 61 61" fill="none" xmlns="http://www.w3.org/2000/svg">
<rect width="61" height="61" rx="11" fill="#E22121" fill-opacity="0.15"/>
<path d="M23.1205 14.5286C23.8505 14.1876 24.7183 14.5042 25.0586 15.2356C25.399 15.967 25.083 16.8364 24.3529 17.1774C19.2498 19.5608 15.917 24.701 15.917 30.4481C15.917 38.5281 22.4464 45.0775 30.4999 45.0775C38.5536 45.0775 45.083 38.5281 45.083 30.4481C45.083 24.7129 41.764 19.5814 36.677 17.1914C35.9475 16.8487 35.6336 15.9786 35.9757 15.248C36.3176 14.5173 37.1861 14.2028 37.9153 14.5454C44.0179 17.4125 48 23.5691 48 30.4481C48 40.1413 40.1653 48 30.4999 48C20.8346 48 13 40.1413 13 30.4481C13 23.5549 16.9987 17.3877 23.1205 14.5286ZM30.4999 10C31.2383 10 31.8485 10.5497 31.9452 11.263L31.9584 11.4612V26.0734C31.9584 26.8804 31.3056 27.5346 30.4999 27.5346C29.7615 27.5346 29.1515 26.985 29.0548 26.2717L29.0414 26.0734V11.4612C29.0414 10.6542 29.6944 10 30.4999 10Z" fill="#E22121"/>
</svg>
