<svg width="236" height="66" viewBox="0 0 236 66" fill="none" xmlns="http://www.w3.org/2000/svg">
<path fill-rule="evenodd" clip-rule="evenodd" d="M233.937 29.8313C236.688 31.5812 236.688 34.4188 233.937 36.1687L189.104 64.6876C186.353 66.4375 181.893 66.4375 179.141 64.6876C176.39 62.9376 176.39 60.1001 179.141 58.3501L211.948 37.4813L7.04477 37.4813C3.15394 37.4813 2.25228e-06 35.475 2.46865e-06 33C2.68502e-06 30.525 3.15394 28.5187 7.04477 28.5187L211.948 28.5187L179.141 7.65033C176.39 5.89994 176.39 3.06285 179.141 1.31246C181.893 -0.437474 186.353 -0.437474 189.104 1.31246L233.937 29.8313Z" fill="red"/>
</svg>
