<svg width="32" height="32" viewBox="0 0 32 32" fill="none" xmlns="http://www.w3.org/2000/svg">
<circle cx="16" cy="16" r="16" fill="url(#paint0_linear_4586_3945)"/>
<path d="M19.8125 22.375C19.5684 22.375 19.3516 22.2171 19.277 21.9846L18.1794 18.5706L14.7654 17.473C14.5329 17.3984 14.375 17.1816 14.375 16.9375C14.375 16.6934 14.5329 16.4766 14.7654 16.402L18.1794 15.3044L19.277 11.8904C19.3516 11.6579 19.5684 11.5 19.8125 11.5C20.0566 11.5 20.2734 11.6579 20.348 11.8904L21.4456 15.3044L24.8596 16.402C25.0921 16.4766 25.25 16.6934 25.25 16.9375C25.25 17.1816 25.0921 17.3984 24.8596 17.473L21.4456 18.5706L20.348 21.9846C20.2734 22.2171 20.0566 22.375 19.8125 22.375ZM12.5 15.625C12.2577 15.625 12.0429 15.4701 11.9664 15.2406L11.2584 13.1166L9.13438 12.4086C8.90488 12.3321 8.75 12.1172 8.75 11.875C8.75 11.6328 8.90488 11.4179 9.13438 11.3414L11.2584 10.6334L11.9664 8.50938C12.0429 8.27988 12.2577 8.125 12.5 8.125C12.7422 8.125 12.9571 8.27988 13.0336 8.50938L13.7416 10.6334L15.8656 11.3414C16.0951 11.4179 16.25 11.6328 16.25 11.875C16.25 12.1172 16.0951 12.3321 15.8656 12.4086L13.7416 13.1166L13.0336 15.2406C12.9571 15.4701 12.7422 15.625 12.5 15.625ZM11.9375 23.875C11.6952 23.875 11.4804 23.7201 11.4039 23.4906L10.8361 21.7885L9.13438 21.2211C8.90488 21.1446 8.75 20.9298 8.75 20.6875C8.75 20.4452 8.90488 20.2304 9.13438 20.1539L10.8361 19.5865L11.4039 17.8844C11.4804 17.6549 11.6952 17.5 11.9375 17.5C12.1797 17.5 12.3946 17.6549 12.4711 17.8844L13.0385 19.5865L14.7406 20.1539C14.9701 20.2304 15.125 20.4452 15.125 20.6875C15.125 20.9298 14.9701 21.1446 14.7406 21.2211L13.0385 21.7885L12.4711 23.4906C12.3946 23.7201 12.1797 23.875 11.9375 23.875Z" fill="white"/>
<defs>
<linearGradient id="paint0_linear_4586_3945" x1="-7.07122e-07" y1="34.0081" x2="41.8735" y2="16.9551" gradientUnits="userSpaceOnUse">
<stop stop-color="#682D8C"/>
<stop offset="1" stop-color="#EB1E79"/>
</linearGradient>
</defs>
</svg>
