<svg width="18" height="18" viewBox="0 0 18 18" fill="none" xmlns="http://www.w3.org/2000/svg">
<path d="M5.0625 1.125C3.92512 1.125 3 2.0505 3 3.1875V12.75V13.3125V13.6875C3 14.7611 3.82537 15.6452 4.875 15.7405V14.606C4.50842 14.5314 4.22054 14.2413 4.14551 13.875H14.4375C14.7484 13.875 15 13.623 15 13.3125V3.1875C15 2.0505 14.0749 1.125 12.9375 1.125H5.0625ZM6 3.75C6.41437 3.75 6.75 4.08562 6.75 4.5C6.75 4.91437 6.41437 5.25 6 5.25C5.58562 5.25 5.25 4.91437 5.25 4.5C5.25 4.08562 5.58562 3.75 6 3.75ZM6 6.75C6.41437 6.75 6.75 7.08562 6.75 7.5C6.75 7.91437 6.41437 8.25 6 8.25C5.58562 8.25 5.25 7.91437 5.25 7.5C5.25 7.08562 5.58562 6.75 6 6.75ZM6 9.75C6.41437 9.75 6.75 10.0856 6.75 10.5C6.75 10.9144 6.41437 11.25 6 11.25C5.58562 11.25 5.25 10.9144 5.25 10.5C5.25 10.0856 5.58562 9.75 6 9.75ZM5.625 14.625V17.0625C5.625 17.2897 5.76179 17.4948 5.97217 17.5818C6.18254 17.6699 6.4247 17.6211 6.5852 17.4602L7.3125 16.7329L8.03979 17.4602C8.14742 17.5678 8.29087 17.625 8.4375 17.625C8.50987 17.625 8.58346 17.6114 8.65283 17.5825C8.86321 17.4951 9 17.2897 9 17.0625V14.625H5.625ZM9.75 14.625V15.75H14.4375C14.7484 15.75 15 15.498 15 15.1875C15 14.877 14.7484 14.625 14.4375 14.625H9.75Z" fill="#2C9327"/>
</svg>
