<svg width="18" height="18" viewBox="0 0 18 18" fill="none" xmlns="http://www.w3.org/2000/svg">
<path d="M15.7778 4.9845C15.7054 4.734 15.3829 4.65975 15.1987 4.84425C14.1832 5.85975 13.2383 6.80475 13.1261 6.91687C12.4924 7.55062 11.4161 7.47225 10.8919 6.68212C10.5105 6.10762 10.6226 5.33437 11.1101 4.84687L13.1561 2.80087C13.3406 2.61637 13.2664 2.29425 13.0155 2.22187C11.6486 1.82775 10.1175 2.16187 9.04013 3.23925C7.89975 4.37962 7.58738 6.03 8.09325 7.45462C6.5565 8.99212 2.7945 12.7541 2.57025 12.9784C1.85363 13.695 1.89563 14.883 2.69625 15.5445C3.3945 16.1209 4.434 16.0174 5.07413 15.3772L10.545 9.90637C11.9696 10.4122 13.62 10.0999 14.7604 8.9595C15.8378 7.8825 16.1719 6.35137 15.7778 4.9845Z" fill="#585683"/>
</svg>
