<svg width="18" height="18" viewBox="0 0 18 18" fill="none" xmlns="http://www.w3.org/2000/svg">
<path d="M9 1.49268C8.44238 1.49286 7.88436 1.62281 7.37549 1.88306L2.99268 4.13965C2.30343 4.49477 1.875 5.19813 1.875 5.97363V12.019C1.875 12.7945 2.30378 13.4972 2.99341 13.853L7.37622 16.1096C7.88435 16.3699 8.44202 16.5 8.99927 16.5C9.00564 16.5 9.01194 16.4985 9.01831 16.4985C9.05844 16.2199 9.18202 15.9624 9.38452 15.7595L10.8376 14.3057C10.6156 13.82 10.5 13.2915 10.5 12.75C10.5 10.6823 12.1823 9 14.25 9C14.9333 9 15.5726 9.18694 16.125 9.50757V5.97363C16.125 5.19813 15.6962 4.49515 15.0066 4.13965L10.6245 1.88306H10.623C10.1145 1.62243 9.55762 1.49249 9 1.49268ZM4.35791 5.4353C4.4306 5.44105 4.50325 5.46101 4.57178 5.49683L7.88379 7.21802C8.58241 7.58064 9.41759 7.58064 10.1162 7.21802L13.4282 5.49683C13.7031 5.35283 14.043 5.46106 14.1863 5.73706C14.3299 6.01269 14.2228 6.35187 13.9468 6.49512L10.6348 8.21631C10.2946 8.39293 9.9315 8.50569 9.5625 8.56494V14.0588C9.5625 14.3693 9.3105 14.6213 9 14.6213C8.6895 14.6213 8.4375 14.3693 8.4375 14.0588V8.56494C8.06812 8.50569 7.70536 8.39293 7.36523 8.21631L4.05322 6.49512C3.7776 6.35187 3.67085 6.01269 3.81372 5.73706C3.92172 5.53034 4.13985 5.41806 4.35791 5.4353ZM14.25 9.75C12.5959 9.75 11.25 11.0959 11.25 12.75C11.25 13.3744 11.4423 13.9538 11.77 14.4346L9.91479 16.2898C9.80454 16.3997 9.75 16.5435 9.75 16.6875C9.75 16.8315 9.80492 16.9753 9.91479 17.0852C10.1345 17.3046 10.4905 17.3046 10.7102 17.0852L12.5654 15.2307C13.0462 15.5581 13.6256 15.75 14.25 15.75C15.9041 15.75 17.25 14.4041 17.25 12.75C17.25 11.0959 15.9041 9.75 14.25 9.75ZM14.25 10.875C15.2839 10.875 16.125 11.7161 16.125 12.75C16.125 13.7839 15.2839 14.625 14.25 14.625C13.2161 14.625 12.375 13.7839 12.375 12.75C12.375 11.7161 13.2161 10.875 14.25 10.875Z" fill="#585683"/>
</svg>
