<svg width="18" height="18" viewBox="0 0 18 18" fill="none" xmlns="http://www.w3.org/2000/svg">
<path d="M13.6875 2.25H4.3125C3.17513 2.25 2.25 3.1755 2.25 4.3125V13.6875C2.25 14.8245 3.17513 15.75 4.3125 15.75H13.6875C14.8249 15.75 15.75 14.8245 15.75 13.6875V4.3125C15.75 3.1755 14.8249 2.25 13.6875 2.25ZM13.125 8.05838V10.125C13.125 11.9861 11.6108 13.5 9.75 13.5C7.88925 13.5 6.375 11.9861 6.375 10.125V9.68175C5.30175 9.42675 4.5 8.46263 4.5 7.3125V5.4375C4.5 5.3985 4.50375 5.36063 4.51125 5.32425C4.56787 4.86037 4.95863 4.5 5.4375 4.5C5.95537 4.5 6.375 4.91963 6.375 5.4375C6.375 5.89088 6.05288 6.26925 5.625 6.35625V7.3125C5.625 8.03625 6.21375 8.625 6.9375 8.625C7.66125 8.625 8.25 8.03625 8.25 7.3125V6.35625C7.82212 6.26925 7.5 5.89125 7.5 5.4375C7.5 4.91963 7.91962 4.5 8.4375 4.5C8.91638 4.5 9.30712 4.86037 9.36375 5.32425C9.37125 5.36063 9.375 5.3985 9.375 5.4375V7.3125C9.375 8.46263 8.57325 9.42675 7.5 9.68175V10.125C7.5 11.3659 8.50912 12.375 9.75 12.375C10.9909 12.375 12 11.3659 12 10.125V8.05838C11.7735 7.88738 11.625 7.6185 11.625 7.3125C11.625 6.79462 12.0446 6.375 12.5625 6.375C13.0804 6.375 13.5 6.79462 13.5 7.3125C13.5 7.61812 13.3515 7.887 13.125 8.05838Z" fill="#585683"/>
</svg>
