<svg width="18" height="18" viewBox="0 0 18 18" fill="none" xmlns="http://www.w3.org/2000/svg">
<path d="M14.8125 2.625H3.1875C2.05013 2.625 1.125 3.55013 1.125 4.6875V13.3125C1.125 14.4499 2.05013 15.375 3.1875 15.375H14.8125C15.9499 15.375 16.875 14.4499 16.875 13.3125V4.6875C16.875 3.55013 15.9499 2.625 14.8125 2.625ZM11.6141 9.65588L8.23913 11.5309C8.12588 11.5935 8.00025 11.625 7.875 11.625C7.74337 11.625 7.61175 11.5905 7.49475 11.5215C7.26562 11.3865 7.125 11.1405 7.125 10.875V7.125C7.125 6.8595 7.26562 6.6135 7.49475 6.4785C7.7235 6.34387 8.007 6.34012 8.23913 6.46912L11.6141 8.34412C11.8523 8.4765 12 8.72738 12 9C12 9.27262 11.8523 9.5235 11.6141 9.65588Z" fill="#F9B31D"/>
</svg>
