<svg width="394" height="171" viewBox="0 0 394 171" fill="none" xmlns="http://www.w3.org/2000/svg">
<path d="M287.418 50.9417C287.481 50.4614 288.122 50.3416 288.353 50.7669L293.796 60.7527C293.899 60.9429 294.114 61.0447 294.327 61.0049L305.505 58.9147C305.981 58.8257 306.293 59.398 305.96 59.7498L298.145 68.0115C297.996 68.1688 297.966 68.4042 298.069 68.5944L303.512 78.5801C303.743 79.0054 303.296 79.4789 302.858 79.271L292.586 74.3913C292.39 74.2983 292.157 74.3419 292.008 74.4993L284.193 82.761C283.86 83.1128 283.271 82.8332 283.334 82.3529L284.8 71.0753C284.828 70.8605 284.715 70.6522 284.519 70.5592L274.247 65.6795C273.809 65.4716 273.893 64.8254 274.369 64.7364L285.548 62.6462C285.761 62.6064 285.924 62.434 285.952 62.2192L287.418 50.9417Z" fill="#FFDC01" fill-opacity="0.1"/>
<path d="M374.795 10.4635C374.945 10.0029 375.597 10.0029 375.746 10.4635L379.261 21.2794C379.328 21.4854 379.52 21.6249 379.736 21.6249L391.109 21.6249C391.593 21.6249 391.795 22.2447 391.403 22.5294L382.202 29.214C382.027 29.3413 381.954 29.567 382.02 29.773L385.535 40.5889C385.684 41.0495 385.157 41.4326 384.765 41.1479L375.565 34.4633C375.39 34.336 375.152 34.336 374.977 34.4633L365.776 41.1479C365.385 41.4326 364.857 41.0495 365.007 40.5889L368.521 29.773C368.588 29.567 368.515 29.3413 368.34 29.214L359.139 22.5294C358.747 22.2447 358.949 21.6249 359.433 21.6249L370.806 21.6249C371.022 21.6249 371.214 21.4854 371.281 21.2794L374.795 10.4635Z" fill="#FFDC01" fill-opacity="0.1"/>
<path d="M70.7612 132.884C70.8237 132.404 71.4643 132.284 71.6961 132.709L77.1384 142.695C77.242 142.885 77.4564 142.987 77.6693 142.947L88.8481 140.857C89.3242 140.768 89.636 141.34 89.3032 141.692L81.4879 149.954C81.3391 150.111 81.3085 150.347 81.4121 150.537L86.8544 160.523C87.0862 160.948 86.6383 161.421 86.2008 161.213L75.9284 156.334C75.7328 156.241 75.4995 156.284 75.3507 156.442L67.5354 164.703C67.2025 165.055 66.6139 164.776 66.6763 164.295L68.1429 153.018C68.1709 152.803 68.0573 152.595 67.8617 152.502L57.5893 147.622C57.1518 147.414 57.2358 146.768 57.7119 146.679L68.8907 144.589C69.1036 144.549 69.2667 144.376 69.2946 144.162L70.7612 132.884Z" fill="#FFDC01" fill-opacity="0.1"/>
<path d="M31.2507 92.1566C31.1915 91.6758 31.782 91.4002 32.1125 91.7544L37.4128 97.4349C37.5606 97.5933 37.7935 97.6385 37.9898 97.5469L45.0302 94.2613C45.4691 94.0565 45.9137 94.533 45.679 94.9567L41.9145 101.753C41.8095 101.942 41.8385 102.178 41.9863 102.336L47.2866 108.017C47.617 108.371 47.3012 108.941 46.8258 108.849L39.1988 107.369C38.9861 107.327 38.7711 107.428 38.6661 107.617L34.9015 114.414C34.6669 114.837 34.0271 114.713 33.9679 114.232L33.0188 106.521C32.9923 106.306 32.8304 106.133 32.6178 106.091L24.9908 104.611C24.5153 104.519 24.4357 103.872 24.8746 103.667L31.915 100.382C32.1113 100.29 32.2263 100.083 32.1998 99.8676L31.2507 92.1566Z" fill="#FFDC01" fill-opacity="0.15"/>
<path d="M105.795 58.4635C105.945 58.0029 106.597 58.0029 106.746 58.4635L110.261 69.2794C110.328 69.4854 110.52 69.6249 110.736 69.6249L122.109 69.6249C122.593 69.6249 122.795 70.2447 122.403 70.5294L113.202 77.214C113.027 77.3413 112.954 77.567 113.02 77.773L116.535 88.5889C116.684 89.0495 116.157 89.4326 115.765 89.1479L106.565 82.4633C106.39 82.336 106.152 82.336 105.977 82.4633L96.7765 89.1479C96.3846 89.4326 95.8574 89.0495 96.0071 88.5889L99.5214 77.773C99.5883 77.567 99.515 77.3413 99.3397 77.214L90.1392 70.5294C89.7473 70.2447 89.9487 69.6249 90.4331 69.6249L101.806 69.6249C102.022 69.6249 102.214 69.4854 102.281 69.2794L105.795 58.4635Z" fill="#FFDC01" fill-opacity="0.15"/>
<path d="M348.446 126.438C348.671 126.009 349.313 126.118 349.383 126.598L351.027 137.851C351.058 138.065 351.224 138.235 351.438 138.271L362.648 140.185C363.125 140.267 363.22 140.912 362.785 141.126L352.591 146.167C352.397 146.263 352.287 146.473 352.318 146.688L353.962 157.941C354.032 158.42 353.448 158.709 353.109 158.362L345.165 150.225C345.014 150.07 344.78 150.03 344.586 150.126L334.391 155.166C333.957 155.381 333.502 154.915 333.727 154.486L339.011 144.416C339.112 144.224 339.078 143.989 338.926 143.834L330.982 135.696C330.644 135.35 330.947 134.773 331.424 134.854L342.634 136.768C342.848 136.805 343.061 136.7 343.161 136.508L348.446 126.438Z" fill="#FFDC01" fill-opacity="0.15"/>
<path d="M361.587 88.22C361.979 87.936 362.506 88.3201 362.355 88.7805L360.356 94.8911C360.289 95.097 360.362 95.3228 360.537 95.4505L365.731 99.2395C366.122 99.525 365.92 100.144 365.435 100.143L359.006 100.131C358.79 100.131 358.597 100.27 358.53 100.476L356.532 106.586C356.381 107.047 355.729 107.045 355.58 106.584L353.606 100.466C353.539 100.26 353.347 100.12 353.131 100.12L346.702 100.107C346.217 100.106 346.017 99.4862 346.409 99.2022L351.618 95.4333C351.793 95.3063 351.867 95.0808 351.801 94.8746L349.826 88.7563C349.677 88.2953 350.205 87.9133 350.596 88.1988L355.79 91.9878C355.965 92.1154 356.203 92.1159 356.378 91.9889L361.587 88.22Z" fill="#FFDC01" fill-opacity="0.15"/>
<path d="M36.1292 8.51948C36.4049 8.12122 37.0291 8.30837 37.0402 8.79261L37.396 24.3422C37.401 24.5587 37.5448 24.7475 37.7523 24.8097L52.6508 29.2763C53.1148 29.4154 53.1297 30.067 52.6726 30.2272L37.994 35.3707C37.7896 35.4423 37.6545 35.6374 37.6595 35.854L38.0153 51.4036C38.0264 51.8878 37.4113 52.1033 37.1177 51.7181L27.6901 39.3473C27.5588 39.1751 27.3315 39.1069 27.127 39.1785L12.4485 44.3221C11.9913 44.4822 11.5963 43.9639 11.872 43.5656L20.7239 30.7766C20.8472 30.5985 20.8418 30.3612 20.7105 30.189L11.2828 17.8182C10.9892 17.433 11.3601 16.8971 11.824 17.0362L26.7225 21.5029C26.93 21.5651 27.154 21.4866 27.2773 21.3085L36.1292 8.51948Z" fill="#FFDC01" fill-opacity="0.1"/>
</svg>
