<svg width="25" height="25" viewBox="0 0 25 25" fill="none" xmlns="http://www.w3.org/2000/svg">
<path d="M22.9166 12.5C22.9166 18.2521 18.2521 22.9167 12.5 22.9167C6.7479 22.9167 2.08331 18.2521 2.08331 12.5C2.08331 6.74793 6.7479 2.08334 12.5 2.08334C18.2521 2.08334 22.9166 6.74793 22.9166 12.5Z" fill="url(#paint0_linear_3818_7416)"/>
<path opacity="0.05" d="M13.1057 10.2818C13.6005 10.2818 14.0588 10.4344 14.5062 10.7484C14.8182 10.9672 15.2448 10.9958 15.5849 10.8198C15.9307 10.6396 16.1458 10.2854 16.1458 9.89532V8.51928C16.1458 8.12293 15.9156 7.7547 15.5594 7.5823C14.9599 7.29168 14.2823 7.12241 13.5416 7.0797V5.98959C13.5416 5.55886 13.1911 5.20834 12.7604 5.20834H12.2396C11.8088 5.20834 11.4583 5.55886 11.4583 5.98959V7.30053C10.5885 7.55105 9.83956 8.0047 9.2281 8.65209C8.25154 9.68595 7.75623 11.0469 7.75623 12.6969C7.75623 14.2052 8.22237 15.4641 9.14216 16.4386C9.77498 17.1089 10.5526 17.5573 11.4588 17.775V19.0104C11.4588 19.4412 11.8094 19.7917 12.2401 19.7917H12.7609C13.1916 19.7917 13.5422 19.4412 13.5422 19.0104V17.8813C14.3224 17.7927 15.0208 17.5651 15.626 17.2011C15.937 17.0136 16.1302 16.6714 16.1302 16.3089V15.0313C16.1302 14.6333 15.9088 14.2761 15.5541 14.0995C15.2114 13.9276 14.7708 13.9667 14.4609 14.1995C13.9984 14.5484 13.5281 14.7188 13.0245 14.7188C12.4505 14.7188 12.0359 14.5563 11.7192 14.2083C11.3807 13.8354 11.2161 13.3037 11.2161 12.5828C11.2161 11.8417 11.3989 11.2771 11.7745 10.8568C12.1234 10.4641 12.5463 10.2818 13.1057 10.2818Z" fill="black"/>
<path opacity="0.07" d="M13.1058 10.0214C13.6563 10.0214 14.163 10.1891 14.6558 10.5349C14.8906 10.6995 15.2104 10.7203 15.4651 10.5885C15.7245 10.4536 15.886 10.1875 15.886 9.89531V8.51927C15.886 8.22188 15.713 7.94583 15.4459 7.81667C14.8125 7.50885 14.0849 7.34531 13.2818 7.32969V5.98958C13.2818 5.7026 13.0479 5.46875 12.761 5.46875H12.2401C11.9531 5.46875 11.7193 5.7026 11.7193 5.98958V7.5C10.8136 7.72448 10.0401 8.17135 9.41825 8.83073C8.48857 9.81458 8.01721 11.1151 8.01721 12.6964C8.01721 14.1359 8.4594 15.3349 9.3318 16.2589C9.9745 16.9401 10.7771 17.3786 11.7193 17.5646V19.0104C11.7193 19.2974 11.9531 19.5312 12.2401 19.5312H12.761C13.0479 19.5312 13.2818 19.2974 13.2818 19.0104V17.6437C14.1183 17.5807 14.8604 17.3573 15.4917 16.9776C15.725 16.8365 15.8698 16.5802 15.8698 16.3083V15.0307C15.8698 14.7323 15.7042 14.4646 15.4375 14.3318C15.1781 14.201 14.8516 14.2307 14.6177 14.4068C14.1078 14.7911 13.587 14.9781 13.0245 14.9781C12.3808 14.9781 11.8906 14.7828 11.5266 14.3818C11.1422 13.9589 10.9558 13.3703 10.9558 12.5812C10.9558 11.7729 11.1599 11.1516 11.5802 10.6818C11.9766 10.2375 12.4761 10.0214 13.1058 10.0214Z" fill="black"/>
<path d="M13.1057 9.76093C13.7114 9.76093 14.2672 9.94426 14.8052 10.3219C14.8943 10.3844 14.9995 10.4161 15.1047 10.4161C15.187 10.4161 15.2693 10.3969 15.3448 10.3573C15.5167 10.2677 15.625 10.0896 15.625 9.8953V8.51926C15.625 8.31978 15.5109 8.13801 15.3318 8.05051C14.7005 7.74426 13.9682 7.58853 13.1552 7.58853C13.1094 7.58853 13.0661 7.59322 13.0213 7.59426V5.98957C13.0213 5.84582 12.9047 5.72916 12.7609 5.72916H12.2401C12.0963 5.72916 11.9797 5.84582 11.9797 5.98957V7.70832C11.0417 7.90155 10.2453 8.33436 9.60728 9.00989C8.72498 9.94426 8.27759 11.1844 8.27759 12.6969C8.27759 14.0677 8.69582 15.2062 9.52134 16.0807C10.1781 16.7766 11.0047 17.1979 11.9802 17.3469V19.0104C11.9802 19.1542 12.0969 19.2708 12.2406 19.2708H12.7614C12.9052 19.2708 13.0219 19.1542 13.0219 19.0104V17.3979C13.9036 17.3656 14.6917 17.1557 15.3573 16.7552C15.514 16.6609 15.6094 16.4917 15.6094 16.3088V15.0312C15.6094 14.8338 15.4974 14.6531 15.3208 14.5651C15.2474 14.5286 15.1677 14.5104 15.0885 14.5104C14.9776 14.5104 14.8672 14.5458 14.775 14.6156C14.2182 15.0354 13.6458 15.2396 13.0245 15.2396C12.3031 15.2396 11.75 15.0167 11.3338 14.5583C10.9042 14.0854 10.6953 13.4391 10.6953 12.5823C10.6953 11.7073 10.9213 11.0292 11.3859 10.5088C11.8344 10.0057 12.3974 9.76093 13.1057 9.76093Z" fill="white"/>
<defs>
<linearGradient id="paint0_linear_3818_7416" x1="7.29113" y1="3.47761" x2="17.7088" y2="21.5224" gradientUnits="userSpaceOnUse">
<stop stop-color="#FFDA1C"/>
<stop offset="1" stop-color="#FEB705"/>
</linearGradient>
</defs>
</svg>
