<svg width="24" height="24" viewBox="0 0 24 24" fill="none" xmlns="http://www.w3.org/2000/svg">
<path d="M6.25 2C5.01 2 4 3.01 4 4.25V19.75C4 20.99 5.01 22 6.25 22H17.75C18.9905 22 20 20.9905 20 19.75V9.25C20 9.0425 19.9159 8.85535 19.7803 8.71973L13.2803 2.21973C13.1446 2.0841 12.9575 2 12.75 2H6.25ZM6.25 3.5H12V7.75C12 8.99 13.01 10 14.25 10H18.5V19.75C18.5 20.1635 18.1635 20.5 17.75 20.5H6.25C5.835 20.5 5.5 20.165 5.5 19.75V4.25C5.5 3.835 5.835 3.5 6.25 3.5ZM13.5 4.56055L17.4395 8.5H14.25C13.835 8.5 13.5 8.165 13.5 7.75V4.56055ZM8.25 12C7.91848 12 7.60054 12.1317 7.36612 12.3661C7.1317 12.6005 7 12.9185 7 13.25C7 13.5815 7.1317 13.8995 7.36612 14.1339C7.60054 14.3683 7.91848 14.5 8.25 14.5C8.58152 14.5 8.89946 14.3683 9.13388 14.1339C9.3683 13.8995 9.5 13.5815 9.5 13.25C9.5 12.9185 9.3683 12.6005 9.13388 12.3661C8.89946 12.1317 8.58152 12 8.25 12ZM11.75 12.5C11.6506 12.4986 11.5519 12.517 11.4597 12.554C11.3675 12.5911 11.2836 12.6461 11.2128 12.7159C11.142 12.7857 11.0858 12.8688 11.0474 12.9605C11.0091 13.0522 10.9893 13.1506 10.9893 13.25C10.9893 13.3494 11.0091 13.4478 11.0474 13.5395C11.0858 13.6312 11.142 13.7143 11.2128 13.7841C11.2836 13.8539 11.3675 13.9089 11.4597 13.946C11.5519 13.983 11.6506 14.0014 11.75 14H16.25C16.3494 14.0014 16.4481 13.983 16.5403 13.946C16.6325 13.9089 16.7164 13.8539 16.7872 13.7841C16.858 13.7143 16.9142 13.6312 16.9526 13.5395C16.9909 13.4478 17.0107 13.3494 17.0107 13.25C17.0107 13.1506 16.9909 13.0522 16.9526 12.9605C16.9142 12.8688 16.858 12.7857 16.7872 12.7159C16.7164 12.6461 16.6325 12.5911 16.5403 12.554C16.4481 12.517 16.3494 12.4986 16.25 12.5H11.75ZM8.25 16C7.91848 16 7.60054 16.1317 7.36612 16.3661C7.1317 16.6005 7 16.9185 7 17.25C7 17.5815 7.1317 17.8995 7.36612 18.1339C7.60054 18.3683 7.91848 18.5 8.25 18.5C8.58152 18.5 8.89946 18.3683 9.13388 18.1339C9.3683 17.8995 9.5 17.5815 9.5 17.25C9.5 16.9185 9.3683 16.6005 9.13388 16.3661C8.89946 16.1317 8.58152 16 8.25 16ZM11.75 16.5C11.6506 16.4986 11.5519 16.517 11.4597 16.554C11.3675 16.5911 11.2836 16.6461 11.2128 16.7159C11.142 16.7857 11.0858 16.8688 11.0474 16.9605C11.0091 17.0522 10.9893 17.1506 10.9893 17.25C10.9893 17.3494 11.0091 17.4478 11.0474 17.5395C11.0858 17.6312 11.142 17.7143 11.2128 17.7841C11.2836 17.8539 11.3675 17.9089 11.4597 17.946C11.5519 17.983 11.6506 18.0014 11.75 18H16.25C16.3494 18.0014 16.4481 17.983 16.5403 17.946C16.6325 17.9089 16.7164 17.8539 16.7872 17.7841C16.858 17.7143 16.9142 17.6312 16.9526 17.5395C16.9909 17.4478 17.0107 17.3494 17.0107 17.25C17.0107 17.1506 16.9909 17.0522 16.9526 16.9605C16.9142 16.8688 16.858 16.7857 16.7872 16.7159C16.7164 16.6461 16.6325 16.5911 16.5403 16.554C16.4481 16.517 16.3494 16.4986 16.25 16.5H11.75Z" fill="#585683"/>
</svg>
