<svg width="19" height="19" viewBox="0 0 19 19" fill="none" xmlns="http://www.w3.org/2000/svg">
<path d="M9.49967 1.58301C5.13454 1.58301 1.58301 5.13454 1.58301 9.49967C1.58301 10.7962 1.9245 12.0072 2.47827 13.0877L1.62012 16.1608C1.42024 16.8747 2.12606 17.5797 2.84009 17.38L5.91475 16.5218C6.99446 17.0749 8.2041 17.4163 9.49967 17.4163C13.8648 17.4163 17.4163 13.8648 17.4163 9.49967C17.4163 5.13454 13.8648 1.58301 9.49967 1.58301ZM9.49967 2.77051C13.223 2.77051 16.2288 5.77635 16.2288 9.49967C16.2288 13.223 13.223 16.2288 9.49967 16.2288C8.311 16.2288 7.20078 15.9194 6.23173 15.3792C6.09491 15.3028 5.93345 15.2837 5.78255 15.3258L2.85864 16.1423L3.67505 13.2199C3.71722 13.069 3.69805 12.9075 3.6217 12.7707C3.0807 11.8008 2.77051 10.689 2.77051 9.49967C2.77051 5.77635 5.77635 2.77051 9.49967 2.77051Z" fill="#7874A3"/>
</svg>
