<svg width="17" height="17" viewBox="0 0 17 17" fill="none" xmlns="http://www.w3.org/2000/svg">
<path d="M3.06944 0C1.37423 0 0 1.37423 0 3.06944V13.9306C0 15.6257 1.37423 17 3.06944 17H13.9306C15.6257 17 17 15.6257 17 13.9306V3.06944C17 1.37423 15.6257 0 13.9306 0H3.06944ZM1.41667 5.19444H15.5833V13.9306C15.5833 14.8434 14.8434 15.5833 13.9306 15.5833H3.06944C2.15664 15.5833 1.41667 14.8434 1.41667 13.9306V5.19444ZM12.5139 10.8611C11.8618 10.8611 11.3333 11.3896 11.3333 12.0417C11.3333 12.6937 11.8618 13.2222 12.5139 13.2222C13.1659 13.2222 13.6944 12.6937 13.6944 12.0417C13.6944 11.3896 13.1659 10.8611 12.5139 10.8611ZM8.5 10.8611C7.84796 10.8611 7.31944 11.3896 7.31944 12.0417C7.31944 12.6937 7.84796 13.2222 8.5 13.2222C9.15204 13.2222 9.68056 12.6937 9.68056 12.0417C9.68056 11.3896 9.15204 10.8611 8.5 10.8611ZM12.5139 7.08333C11.8618 7.08333 11.3333 7.61184 11.3333 8.26389C11.3333 8.91593 11.8618 9.44444 12.5139 9.44444C13.1659 9.44444 13.6944 8.91593 13.6944 8.26389C13.6944 7.61184 13.1659 7.08333 12.5139 7.08333ZM8.5 7.08333C7.84796 7.08333 7.31944 7.61184 7.31944 8.26389C7.31944 8.91593 7.84796 9.44444 8.5 9.44444C9.15204 9.44444 9.68056 8.91593 9.68056 8.26389C9.68056 7.61184 9.15204 7.08333 8.5 7.08333ZM4.48611 7.08333C3.8341 7.08333 3.30556 7.61184 3.30556 8.26389C3.30556 8.91593 3.8341 9.44444 4.48611 9.44444C5.13812 9.44444 5.66667 8.91593 5.66667 8.26389C5.66667 7.61184 5.13812 7.08333 4.48611 7.08333ZM3.06944 1.41667H13.9306C14.8434 1.41667 15.5833 2.15664 15.5833 3.06944V3.77778H1.41667V3.06944C1.41667 2.15664 2.15664 1.41667 3.06944 1.41667Z" fill="#615F8B"/>
</svg>
