<svg width="17" height="17" viewBox="0 0 17 17" fill="none" xmlns="http://www.w3.org/2000/svg">
<path d="M8.50033 1.41663C4.5882 1.41663 1.41699 4.58783 1.41699 8.49996C1.41699 12.4121 4.5882 15.5833 8.50033 15.5833C12.4125 15.5833 15.5837 12.4121 15.5837 8.49996C15.5837 4.58783 12.4125 1.41663 8.50033 1.41663ZM11.1782 10.4263C11.3857 10.6338 11.3857 10.9699 11.1782 11.1775C11.0744 11.2816 10.9384 11.3333 10.8024 11.3333C10.6664 11.3333 10.5304 11.2816 10.4266 11.1778L8.50033 9.25115L6.57401 11.1775C6.47024 11.2816 6.33424 11.3333 6.19824 11.3333C6.06224 11.3333 5.92624 11.2816 5.82247 11.1778C5.61493 10.9703 5.61493 10.6342 5.82247 10.4266L7.74914 8.49996L5.82283 6.57365C5.61528 6.36611 5.61528 6.03 5.82283 5.82246C6.03037 5.61492 6.36647 5.61492 6.57401 5.82246L8.50033 7.74877L10.4266 5.82246C10.6342 5.61492 10.9703 5.61492 11.1778 5.82246C11.3854 6.03 11.3854 6.36611 11.1778 6.57365L9.25151 8.49996L11.1782 10.4263Z" fill="#A71010"/>
</svg>
