<svg width="13" height="13" viewBox="0 0 13 13" fill="none" xmlns="http://www.w3.org/2000/svg">
<path d="M3.24442 2.70336C3.13666 2.70339 3.03137 2.73555 2.94199 2.79574C2.85261 2.85593 2.78321 2.9414 2.74266 3.04124C2.70211 3.14107 2.69226 3.25073 2.71436 3.3562C2.73646 3.46166 2.78951 3.55814 2.86673 3.63329L5.73376 6.50032L2.86673 9.36734C2.81475 9.41725 2.77324 9.47704 2.74465 9.54319C2.71606 9.60934 2.70096 9.68053 2.70022 9.7526C2.69949 9.82466 2.71314 9.89615 2.74038 9.96287C2.76762 10.0296 2.8079 10.0902 2.85886 10.1412C2.90982 10.1921 2.97044 10.2324 3.03716 10.2596C3.10388 10.2869 3.17536 10.3005 3.24743 10.2998C3.31949 10.2991 3.39068 10.284 3.45684 10.2554C3.52299 10.2268 3.58277 10.1853 3.63269 10.1333L6.49971 7.26627L9.36673 10.1333C9.41665 10.1853 9.47643 10.2268 9.54258 10.2554C9.60874 10.284 9.67993 10.2991 9.75199 10.2998C9.82406 10.3005 9.89554 10.2869 9.96226 10.2596C10.029 10.2324 10.0896 10.1921 10.1406 10.1412C10.1915 10.0902 10.2318 10.0296 10.259 9.96287C10.2863 9.89615 10.2999 9.82466 10.2992 9.7526C10.2985 9.68054 10.2834 9.60934 10.2548 9.54319C10.2262 9.47704 10.1847 9.41725 10.1327 9.36734L7.26566 6.50032L10.1327 3.63329C10.211 3.55721 10.2644 3.45925 10.2861 3.35226C10.3077 3.24527 10.2965 3.13424 10.254 3.03371C10.2114 2.93319 10.1395 2.84786 10.0476 2.78891C9.95578 2.72996 9.84824 2.70014 9.73913 2.70336C9.59841 2.70755 9.46484 2.76637 9.36673 2.86734L6.49971 5.73437L3.63269 2.86734C3.58221 2.81545 3.52184 2.77421 3.45515 2.74604C3.38847 2.71788 3.31681 2.70336 3.24442 2.70336Z" fill="#0B00D8"/>
</svg>
