<svg width="22" height="22" viewBox="0 0 22 22" fill="none" xmlns="http://www.w3.org/2000/svg">
<path d="M22 10.5196C22 11.6562 20.9938 12.6205 20.6595 13.6461C20.313 14.709 20.5461 16.0759 19.8997 16.9607C19.2468 17.8542 17.8653 18.0529 16.9682 18.7032C16.0801 19.347 15.4671 20.5982 14.4 20.9433C13.3704 21.2762 12.141 20.6339 11 20.6339C9.85897 20.6339 8.62949 21.2762 7.59991 20.9432C6.53286 20.5982 5.91984 19.347 5.03166 18.7031C4.13463 18.0528 2.75314 17.8542 2.10034 16.9606C1.45391 16.0759 1.68695 14.7089 1.34049 13.646C1.00616 12.6205 0 11.6561 0 10.5196C0 9.38296 1.00616 8.41853 1.34049 7.39294C1.68695 6.33002 1.454 4.96308 2.10034 4.07835C2.75323 3.18479 4.13471 2.9861 5.03175 2.33584C5.91993 1.692 6.53295 0.440868 7.6 0.0957451C8.62958 -0.237203 9.85906 0.405098 11 0.405098C12.141 0.405098 13.3705 -0.237201 14.4001 0.0958255C15.4671 0.440958 16.0802 1.692 16.9683 2.33592C17.8654 2.98619 19.2469 3.18488 19.8997 4.07844C20.5461 4.96317 20.3131 6.33011 20.6596 7.39302C20.9938 8.41853 22 9.38296 22 10.5196Z" fill="#FFEC03"/>
<path d="M12.567 20.0627C11.2007 19.7637 10.7988 19.7638 9.43293 20.0627C8.94841 20.1688 8.28587 20.3292 7.84639 20.1869C7.06872 19.9355 6.44769 18.7462 5.50147 18.0603C4.5506 17.371 3.21958 17.1413 2.74574 16.4928C2.27931 15.8543 2.46584 14.5243 2.09974 13.4005C1.94197 12.9169 1.68145 12.4788 1.42937 12.0553C0.588392 10.6424 0.588904 10.3955 1.42937 8.98383C1.68136 8.5603 1.94197 8.12235 2.09966 7.6386C2.46576 6.51632 2.27896 5.18515 2.74583 4.54629C3.2201 3.89722 4.54775 3.67031 5.50156 2.97877C6.44778 2.2929 7.06751 1.10405 7.84657 0.85218C8.28863 0.709174 8.9466 0.870022 9.43301 0.976492C10.7999 1.27546 11.2003 1.27546 12.5671 0.976492C13.0538 0.869943 13.714 0.709947 14.1535 0.85218C14.931 1.10362 15.5525 2.29299 16.4985 2.97886C17.457 3.67357 18.7785 3.89533 19.2543 4.54638C19.7207 5.18473 19.5343 6.51546 19.9002 7.6386C20.058 8.12244 20.3187 8.56038 20.5707 8.98383C21.4118 10.3969 21.4108 10.6436 20.5706 12.0555C19.8964 13.1879 19.7719 13.5418 19.6353 14.9277C19.4778 16.5267 19.3646 16.6946 17.867 17.3433C17.4035 17.544 16.9244 17.7516 16.4985 18.0603C15.5524 18.7464 14.9307 19.9358 14.1535 20.1869C14.0351 20.2253 13.0685 20.1725 12.567 20.0627Z" fill="#FFDC01"/>
<path d="M19.479 12.0675C20.3373 7.40283 17.2369 2.92832 12.5541 2.07336C7.87133 1.2184 3.37939 4.30676 2.5211 8.9714C1.66282 13.636 4.76321 18.1106 9.44601 18.9655C14.1288 19.8205 18.6208 16.7321 19.479 12.0675Z" fill="#FFEC03"/>
<g style="mix-blend-mode:screen" opacity="0.48">
<path d="M10.9255 1.93311C9.08339 1.94911 7.29491 2.55247 5.82216 3.65473C4.3494 4.757 3.26983 6.30021 2.74168 8.05816C2.21353 9.81612 2.26457 11.6964 2.88732 13.4233C3.51007 15.1503 4.67179 16.6331 6.20219 17.6545C10.9508 16.445 14.3931 12.867 14.3931 8.64137C14.3931 6.01857 13.067 3.64534 10.9255 1.93311Z" fill="#FFEC03"/>
</g>
</svg>
