<svg width="92" height="88" viewBox="0 0 92 88" fill="none" xmlns="http://www.w3.org/2000/svg">
<path d="M92 43.9909C92 48.7439 87.7924 52.7766 86.3943 57.0655C84.9455 61.5104 85.92 67.2267 83.2168 70.9264C80.4865 74.6632 74.7094 75.494 70.9581 78.2134C67.2439 80.9058 64.6804 86.1377 60.2182 87.581C55.9127 88.9733 50.7716 86.2874 46 86.2874C41.2284 86.2874 36.087 88.9733 31.7814 87.5807C27.3192 86.1377 24.7557 80.9058 21.0415 78.213C17.2903 75.4937 11.5131 74.6628 8.78324 70.9261C6.07997 67.2263 7.05454 61.51 5.60567 57.0651C4.20759 52.7766 0 48.7436 0 43.9909C0 39.2378 4.20759 35.2048 5.60567 30.9159C7.05454 26.471 6.08034 20.7547 8.78324 17.0549C11.5135 13.3182 17.2906 12.4873 21.0419 9.76804C24.7561 7.07563 27.3196 1.84363 31.7818 0.400388C36.0873 -0.991938 41.2288 1.69405 46 1.69405C50.7716 1.69405 55.913 -0.991932 60.2186 0.400725C64.6808 1.844 67.2443 7.07563 70.9585 9.76837C74.7097 12.4877 80.4869 13.3186 83.2171 17.0553C85.92 20.7551 84.9458 26.4714 86.3947 30.9163C87.7924 35.2048 92 39.2378 92 43.9909Z" fill="#FFEC03"/>
<path d="M52.5536 83.8984C46.8399 82.6478 45.1594 82.6485 39.4475 83.8984C37.4213 84.3418 34.6507 85.0127 32.8129 84.4179C29.5608 83.3664 26.9638 78.3931 23.0068 75.5245C19.0305 72.6423 13.4644 71.6816 11.4829 68.9695C9.53234 66.2996 10.3124 60.7376 8.78141 56.0383C8.12164 54.0157 7.0322 52.184 5.97806 50.4128C2.46124 44.5042 2.46338 43.4717 5.97806 37.5685C7.03183 35.7973 8.12164 33.9659 8.78108 31.943C10.312 27.2498 9.5309 21.6831 11.4832 19.0115C13.4666 16.2972 19.0186 15.3483 23.0072 12.4564C26.9641 9.58824 29.5557 4.6167 32.8136 3.56341C34.6622 2.96538 37.4137 3.63802 39.4478 4.08326C45.1637 5.33349 46.8384 5.33349 52.5539 4.08326C54.5891 3.63769 57.35 2.96862 59.1882 3.56341C62.4396 4.6149 65.0384 9.58861 68.9946 12.4568C73.0027 15.3619 78.5291 16.2893 80.5186 19.0119C82.4691 21.6813 81.6894 27.2462 83.2197 31.943C83.8794 33.9663 84.9696 35.7977 86.0237 37.5685C89.5409 43.4778 89.5366 44.5092 86.0234 50.4135C83.2038 55.149 82.683 56.6292 82.1118 62.4248C81.4531 69.1115 80.9799 69.8136 74.7173 72.5261C72.779 73.3656 70.7755 74.2337 68.9942 75.5245C65.038 78.3938 62.4381 83.3675 59.1882 84.4179C58.693 84.5782 54.6507 84.3573 52.5536 83.8984Z" fill="#FFDC01"/>
<path d="M81.4568 50.4642C85.046 30.9575 72.0807 12.2459 52.4981 8.67059C32.9155 5.09532 14.131 18.0103 10.5418 37.517C6.95259 57.0236 19.9178 75.7352 39.5005 79.3105C59.0831 82.8858 77.8676 69.9708 81.4568 50.4642Z" fill="#FFEC03"/>
<g style="mix-blend-mode:screen" opacity="0.48">
<path d="M45.6888 8.08386C37.9856 8.15081 30.5065 10.6739 24.3477 15.2834C18.1889 19.8929 13.6743 26.3463 11.4657 33.6977C9.25705 41.0492 9.4705 48.9121 12.0747 56.1339C14.679 63.3557 19.5371 69.5566 25.9369 73.8278C45.7946 68.7698 60.1897 53.8075 60.1897 36.1366C60.1897 25.1685 54.6441 15.2441 45.6888 8.08386Z" fill="#FFEC03"/>
</g>
</svg>
