<svg width="20" height="21" viewBox="0 0 20 21" fill="none" xmlns="http://www.w3.org/2000/svg">
<path opacity="0.4" d="M15.98 8.79V12.79C15.98 13.05 15.97 13.3 15.94 13.54C15.71 16.24 14.12 17.58 11.19 17.58H10.79C10.54 17.58 10.3 17.7 10.15 17.9L8.95 19.5C8.42 20.21 7.56 20.21 7.03 19.5L5.83 17.9C5.74996 17.8068 5.65212 17.7305 5.54223 17.6755C5.43234 17.6206 5.31259 17.5881 5.19 17.58H4.79C1.6 17.58 0 16.79 0 12.79V8.79C0 5.86 1.35 4.27 4.04 4.04C4.28 4.01 4.53 4 4.79 4H11.19C14.38 4 15.98 5.6 15.98 8.79Z" fill="#0B00D8"/>
<path d="M7.988 12C7.428 12 6.988 11.55 6.988 11C6.988 10.45 7.438 10 7.988 10C8.538 10 8.988 10.45 8.988 11C8.988 11.55 8.548 12 7.988 12ZM11.488 12C10.928 12 10.488 11.55 10.488 11C10.488 10.45 10.938 10 11.488 10C12.038 10 12.488 10.45 12.488 11C12.488 11.55 12.038 12 11.488 12ZM4.5 12C3.94 12 3.5 11.55 3.5 11C3.5 10.45 3.95 10 4.5 10C5.05 10 5.5 10.45 5.5 11C5.5 11.55 5.05 12 4.5 12Z" fill="#0B00D8"/>
<path d="M19.98 4.79V8.79C19.98 11.73 18.63 13.31 15.94 13.54C15.97 13.3 15.98 13.05 15.98 12.79V8.79C15.98 5.6 14.38 4 11.19 4H4.79004C4.53004 4 4.28004 4.01 4.04004 4.04C4.27004 1.35 5.86004 0 8.79004 0H15.19C18.38 0 19.98 1.6 19.98 4.79Z" fill="#0B00D8"/>
</svg>
