<svg width="18" height="19" viewBox="0 0 18 19" fill="none" xmlns="http://www.w3.org/2000/svg">
<path opacity="0.4" d="M14.3964 7.91892V11.5225C14.3964 11.7568 14.3874 11.982 14.3604 12.1982C14.1532 14.6306 12.7207 15.8378 10.0811 15.8378H9.72072C9.4955 15.8378 9.27928 15.9459 9.14414 16.1261L8.06306 17.5676C7.58559 18.2072 6.81081 18.2072 6.33333 17.5676L5.25225 16.1261C5.18014 16.0422 5.092 15.9734 4.993 15.9239C4.894 15.8744 4.78612 15.8451 4.67568 15.8378H4.31532C1.44144 15.8378 0 15.1261 0 11.5225V7.91892C0 5.27928 1.21622 3.84685 3.63964 3.63964C3.85586 3.61262 4.08108 3.60361 4.31532 3.60361H10.0811C12.955 3.60361 14.3964 5.04505 14.3964 7.91892Z" fill="white"/>
<path d="M7.19656 10.8108C6.69206 10.8108 6.29566 10.4054 6.29566 9.9099C6.29566 9.41441 6.70107 9.009 7.19656 9.009C7.69206 9.009 8.09746 9.41441 8.09746 9.9099C8.09746 10.4054 7.70107 10.8108 7.19656 10.8108ZM10.3497 10.8108C9.84521 10.8108 9.44882 10.4054 9.44882 9.9099C9.44882 9.41441 9.85422 9.009 10.3497 9.009C10.8452 9.009 11.2506 9.41441 11.2506 9.9099C11.2506 10.4054 10.8452 10.8108 10.3497 10.8108ZM4.05422 10.8108C3.54972 10.8108 3.15332 10.4054 3.15332 9.9099C3.15332 9.41441 3.55873 9.009 4.05422 9.009C4.54972 9.009 4.95512 9.41441 4.95512 9.9099C4.95512 10.4054 4.54972 10.8108 4.05422 10.8108Z" fill="white"/>
<path d="M18 4.31532V7.91892C18 10.5676 16.7838 11.991 14.3604 12.1982C14.3874 11.982 14.3964 11.7568 14.3964 11.5225V7.91892C14.3964 5.04504 12.955 3.6036 10.0811 3.6036H4.31532C4.08109 3.6036 3.85586 3.61261 3.63965 3.63964C3.84686 1.21622 5.27929 0 7.91893 0H13.6847C16.5586 0 18 1.44144 18 4.31532Z" fill="white"/>
</svg>
