<svg width="96" height="96" viewBox="0 0 96 96" fill="none" xmlns="http://www.w3.org/2000/svg">
<path fill-rule="evenodd" clip-rule="evenodd" d="M0 48C0 21.5328 21.5328 0 48 0C74.4672 0 96 21.5328 96 48C96 74.4672 74.4672 96 48 96C21.5328 96 0 74.4672 0 48ZM42.0001 64.7999C42.9217 64.7999 43.8433 64.4495 44.5465 63.7463L68.5465 39.7463C69.9505 38.3399 69.9481 36.0623 68.5417 34.6559C67.1353 33.2495 64.8577 33.2495 63.4513 34.6559L41.9977 56.1095L32.5441 46.6559C31.1377 45.2495 28.8601 45.2495 27.4537 46.6559C26.0473 48.0623 26.0473 50.3399 27.4537 51.7463L39.4537 63.7463C40.1569 64.4495 41.0785 64.7999 42.0001 64.7999Z" fill="#27CC42"/>
</svg>
