<svg width="69" height="69" viewBox="0 0 69 69" fill="none" xmlns="http://www.w3.org/2000/svg">
<g clip-path="url(#clip0_1122_13125)">
<rect width="69" height="69" rx="19.7143" fill="#C0E5FF"/>
<g filter="url(#filter0_if_1122_13125)">
<path d="M59.8 -1.56073C59.8 32.3279 32.3279 59.8 -1.56067 59.8C-35.4493 59.8 -62.9214 32.3279 -62.9214 -1.56073C-62.9214 -35.4493 -35.4493 -62.9214 -1.56067 -62.9214C32.3279 -62.9214 59.8 -35.4493 59.8 -1.56073Z" fill="#99D3FD"/>
</g>
<g filter="url(#filter1_if_1122_13125)">
<path d="M59.6355 28.5035C59.6355 38.5295 51.5079 46.6571 41.4819 46.6571C31.456 46.6571 23.3284 38.5295 23.3284 28.5035C23.3284 18.4776 31.456 10.35 41.4819 10.35C51.5079 10.35 59.6355 18.4776 59.6355 28.5035Z" fill="url(#paint0_radial_1122_13125)"/>
</g>
<g filter="url(#filter2_i_1122_13125)">
<path d="M54.7071 23.9857C54.7071 34.8736 45.8807 43.7 34.9928 43.7C24.1049 43.7 15.2786 34.8736 15.2786 23.9857C15.2786 13.0978 24.1049 4.27142 34.9928 4.27142C45.8807 4.27142 54.7071 13.0978 54.7071 23.9857Z" fill="url(#paint1_radial_1122_13125)"/>
</g>
<mask id="mask0_1122_13125" style="mask-type:alpha" maskUnits="userSpaceOnUse" x="15" y="4" width="40" height="40">
<path d="M54.7071 23.9857C54.7071 34.8736 45.8807 43.7 34.9928 43.7C24.1049 43.7 15.2786 34.8736 15.2786 23.9857C15.2786 13.0978 24.1049 4.27142 34.9928 4.27142C45.8807 4.27142 54.7071 13.0978 54.7071 23.9857Z" fill="#FFD88B"/>
</mask>
<g mask="url(#mask0_1122_13125)">
<g filter="url(#filter3_f_1122_13125)">
<path d="M54.9533 21.3571C54.9533 33.1977 45.3546 42.7964 33.514 42.7964C21.6734 42.7964 12.0747 33.1977 12.0747 21.3571C12.0747 9.51655 21.6734 -0.0821463 33.514 -0.0821463C45.3546 -0.0821463 54.9533 9.51655 54.9533 21.3571Z" stroke="#EC5602" stroke-width="1.80714"/>
</g>
<g filter="url(#filter4_f_1122_13125)">
<path d="M57.6641 24.4786C57.6641 36.1831 48.1757 45.6714 36.4712 45.6714C24.7667 45.6714 15.2784 36.1831 15.2784 24.4786C15.2784 12.7741 24.7667 3.2857 36.4712 3.2857C48.1757 3.2857 57.6641 12.7741 57.6641 24.4786Z" stroke="white" stroke-width="0.985714"/>
</g>
</g>
<g filter="url(#filter5_i_1122_13125)">
<path d="M60.4572 51.5006C60.4572 56.7193 56.2165 60.95 50.9836 60.95H16.7034C9.74717 60.95 4.10718 55.3252 4.10718 48.3839C4.10718 41.4446 9.74717 35.8178 16.7034 35.8178C17.3272 35.8178 17.9404 35.8656 18.5417 35.9525C21.3863 30.3171 27.2365 26.45 33.9945 26.45C42.1718 26.45 49.0222 32.114 50.822 39.7234C51.0015 40.4832 51.1312 41.2615 51.2057 42.0544V42.0564C56.3336 42.1732 60.4572 46.3562 60.4572 51.5006Z" fill="url(#paint2_radial_1122_13125)"/>
</g>
<mask id="mask1_1122_13125" style="mask-type:alpha" maskUnits="userSpaceOnUse" x="4" y="26" width="57" height="35">
<path d="M60.4572 51.5006C60.4572 56.7193 56.2165 60.95 50.9836 60.95H16.7034C9.74717 60.95 4.10718 55.3252 4.10718 48.3839C4.10718 41.4446 9.74717 35.8178 16.7034 35.8178C17.3272 35.8178 17.9404 35.8656 18.5417 35.9525C21.3863 30.3171 27.2365 26.45 33.9945 26.45C42.1718 26.45 49.0222 32.114 50.822 39.7234C51.0015 40.4832 51.1312 41.2615 51.2057 42.0544V42.0564C56.3336 42.1732 60.4572 46.3562 60.4572 51.5006Z" fill="url(#paint3_radial_1122_13125)"/>
</mask>
<g mask="url(#mask1_1122_13125)">
<g filter="url(#filter6_f_1122_13125)">
<path d="M23.5864 48.5464C17.935 48.0864 16.5769 39.7571 16.6043 35.65C16.4728 35.1243 17.5353 35.3214 18.083 35.4857L20.4651 32.0357C15.7994 44.1271 20.6293 48.1357 23.5864 48.5464Z" fill="white"/>
</g>
<g filter="url(#filter7_f_1122_13125)">
<path d="M44.8503 51.9964C50.5017 51.5364 51.8598 43.2071 51.8325 39.1C51.964 38.5743 50.9015 38.7714 50.3538 38.9357L47.9717 35.4857C52.6374 47.5771 47.8074 51.5857 44.8503 51.9964Z" fill="white"/>
</g>
<g filter="url(#filter8_f_1122_13125)">
<path d="M13.9752 34.9757L14.6185 35.0687L14.9113 34.4884C17.9314 28.5021 24.1416 24.3964 31.3144 24.3964C39.994 24.3964 47.2658 30.4113 49.1758 38.491C49.3633 39.2846 49.4995 40.0967 49.579 40.9235V41.7661L50.462 41.7862C55.6851 41.9052 59.8824 46.168 59.8824 51.4063C59.8824 56.7208 55.5658 61.0321 50.2352 61.0321H12.0572C4.80743 61.0321 -1.06762 55.1674 -1.06762 47.9335C-1.06762 40.7018 4.80753 34.8349 12.0572 34.8349C12.7058 34.8349 13.3454 34.8846 13.9752 34.9757Z" stroke="#D7DFEB" stroke-width="1.80714"/>
</g>
<g filter="url(#filter9_f_1122_13125)">
<path d="M20.0538 34.9757L20.6971 35.0687L20.9899 34.4884C24.01 28.5021 30.2202 24.3964 37.393 24.3964C46.0726 24.3964 53.3444 30.4113 55.2544 38.491C55.4419 39.2846 55.5781 40.0967 55.6576 40.9235V41.7661L56.5406 41.7862C61.7637 41.9052 65.961 46.168 65.961 51.4063C65.961 56.7208 61.6444 61.0321 56.3138 61.0321H18.1358C10.886 61.0321 5.01099 55.1674 5.01099 47.9335C5.01099 40.7018 10.8861 34.8349 18.1358 34.8349C18.7844 34.8349 19.424 34.8846 20.0538 34.9757Z" stroke="white" stroke-width="1.80714"/>
</g>
</g>
<g filter="url(#filter10_i_1122_13125)">
<path d="M65.7251 42.7402C65.7251 45.1757 63.7462 47.15 61.3041 47.15H45.3067C42.0605 47.15 39.4285 44.5251 39.4285 41.2858C39.4285 38.0475 42.0605 35.4216 45.3067 35.4216C45.5978 35.4216 45.884 35.4439 46.1646 35.4845C47.4921 32.8546 50.2221 31.05 53.3759 31.05C57.1919 31.05 60.3888 33.6932 61.2287 37.2442C61.3125 37.5988 61.373 37.962 61.4078 38.3321V38.333C63.8008 38.3875 65.7251 40.3395 65.7251 42.7402Z" fill="url(#paint4_radial_1122_13125)"/>
</g>
<mask id="mask2_1122_13125" style="mask-type:alpha" maskUnits="userSpaceOnUse" x="39" y="31" width="27" height="17">
<path d="M65.7253 42.7402C65.7253 45.1757 63.7463 47.15 61.3042 47.15H45.3068C42.0606 47.15 39.4286 44.5251 39.4286 41.2858C39.4286 38.0475 42.0606 35.4216 45.3068 35.4216C45.5979 35.4216 45.8841 35.4439 46.1647 35.4845C47.4922 32.8546 50.2222 31.05 53.376 31.05C57.1921 31.05 60.3889 33.6932 61.2288 37.2442C61.3126 37.5988 61.3732 37.962 61.4079 38.3321V38.333C63.8009 38.3875 65.7253 40.3395 65.7253 42.7402Z" fill="url(#paint5_radial_1122_13125)"/>
</mask>
<g mask="url(#mask2_1122_13125)">
<g filter="url(#filter11_f_1122_13125)">
<path d="M48.5187 41.3617C45.8813 41.147 45.2476 37.26 45.2603 35.3433C45.199 35.098 45.6948 35.19 45.9504 35.2667L47.062 33.6567C44.8847 39.2993 47.1387 41.17 48.5187 41.3617Z" fill="white"/>
</g>
<g filter="url(#filter12_f_1122_13125)">
<path d="M58.4418 42.9717C61.0791 42.757 61.7129 38.87 61.7001 36.9533C61.7615 36.708 61.2657 36.8 61.0101 36.8767L59.8984 35.2667C62.0757 40.9093 59.8218 42.78 58.4418 42.9717Z" fill="white"/>
</g>
<g filter="url(#filter13_f_1122_13125)">
<path d="M44.0335 35.0286L44.3337 35.072L44.4703 34.8012C45.8797 32.0076 48.7777 30.0916 52.1251 30.0916C56.1755 30.0916 59.5691 32.8986 60.4604 36.6691C60.5479 37.0395 60.6114 37.4185 60.6486 37.8043V38.1975L61.0606 38.2069C63.4981 38.2624 65.4568 40.2517 65.4568 42.6963C65.4568 45.1763 63.4424 47.1883 60.9548 47.1883H43.1384C39.7552 47.1883 37.0135 44.4514 37.0135 41.0756C37.0135 37.7008 39.7552 34.9629 43.1384 34.9629C43.441 34.9629 43.7395 34.9861 44.0335 35.0286Z" stroke="#D7DFEB" stroke-width="0.843333"/>
</g>
<g filter="url(#filter14_f_1122_13125)">
<path d="M46.8701 35.0286L47.1703 35.072L47.307 34.8012C48.7164 32.0076 51.6144 30.0916 54.9617 30.0916C59.0122 30.0916 62.4057 32.8986 63.2971 36.6691C63.3846 37.0395 63.4481 37.4185 63.4852 37.8043V38.1975L63.8973 38.2069C66.3347 38.2624 68.2935 40.2517 68.2935 42.6963C68.2935 45.1763 66.2791 47.1883 63.7914 47.1883H45.9751C42.5918 47.1883 39.8501 44.4514 39.8501 41.0756C39.8501 37.7008 42.5919 34.9629 45.9751 34.9629C46.2777 34.9629 46.5762 34.9861 46.8701 35.0286Z" stroke="white" stroke-width="0.843333"/>
</g>
</g>
</g>
<defs>
<filter id="filter0_if_1122_13125" x="-85.9214" y="-85.9214" width="168.721" height="168.721" filterUnits="userSpaceOnUse" color-interpolation-filters="sRGB">
<feFlood flood-opacity="0" result="BackgroundImageFix"/>
<feBlend mode="normal" in="SourceGraphic" in2="BackgroundImageFix" result="shape"/>
<feColorMatrix in="SourceAlpha" type="matrix" values="0 0 0 0 0 0 0 0 0 0 0 0 0 0 0 0 0 0 127 0" result="hardAlpha"/>
<feOffset dy="1.66813"/>
<feGaussianBlur stdDeviation="9.17473"/>
<feComposite in2="hardAlpha" operator="arithmetic" k2="-1" k3="1"/>
<feColorMatrix type="matrix" values="0 0 0 0 1 0 0 0 0 1 0 0 0 0 1 0 0 0 1 0"/>
<feBlend mode="normal" in2="shape" result="effect1_innerShadow_1122_13125"/>
<feGaussianBlur stdDeviation="11.5" result="effect2_foregroundBlur_1122_13125"/>
</filter>
<filter id="filter1_if_1122_13125" x="9.52837" y="-3.45002" width="63.9071" height="63.9071" filterUnits="userSpaceOnUse" color-interpolation-filters="sRGB">
<feFlood flood-opacity="0" result="BackgroundImageFix"/>
<feBlend mode="normal" in="SourceGraphic" in2="BackgroundImageFix" result="shape"/>
<feColorMatrix in="SourceAlpha" type="matrix" values="0 0 0 0 0 0 0 0 0 0 0 0 0 0 0 0 0 0 127 0" result="hardAlpha"/>
<feOffset dy="0.657143"/>
<feGaussianBlur stdDeviation="3.61429"/>
<feComposite in2="hardAlpha" operator="arithmetic" k2="-1" k3="1"/>
<feColorMatrix type="matrix" values="0 0 0 0 1 0 0 0 0 1 0 0 0 0 1 0 0 0 1 0"/>
<feBlend mode="normal" in2="shape" result="effect1_innerShadow_1122_13125"/>
<feGaussianBlur stdDeviation="6.9" result="effect2_foregroundBlur_1122_13125"/>
</filter>
<filter id="filter2_i_1122_13125" x="15.2786" y="4.27142" width="39.4286" height="40.0857" filterUnits="userSpaceOnUse" color-interpolation-filters="sRGB">
<feFlood flood-opacity="0" result="BackgroundImageFix"/>
<feBlend mode="normal" in="SourceGraphic" in2="BackgroundImageFix" result="shape"/>
<feColorMatrix in="SourceAlpha" type="matrix" values="0 0 0 0 0 0 0 0 0 0 0 0 0 0 0 0 0 0 127 0" result="hardAlpha"/>
<feOffset dy="0.657143"/>
<feGaussianBlur stdDeviation="3.61429"/>
<feComposite in2="hardAlpha" operator="arithmetic" k2="-1" k3="1"/>
<feColorMatrix type="matrix" values="0 0 0 0 1 0 0 0 0 1 0 0 0 0 1 0 0 0 1 0"/>
<feBlend mode="normal" in2="shape" result="effect1_innerShadow_1122_13125"/>
</filter>
<filter id="filter3_f_1122_13125" x="7.22829" y="-4.92858" width="52.5714" height="52.5714" filterUnits="userSpaceOnUse" color-interpolation-filters="sRGB">
<feFlood flood-opacity="0" result="BackgroundImageFix"/>
<feBlend mode="normal" in="SourceGraphic" in2="BackgroundImageFix" result="shape"/>
<feGaussianBlur stdDeviation="1.97143" result="effect1_foregroundBlur_1122_13125"/>
</filter>
<filter id="filter4_f_1122_13125" x="13.7998" y="1.80713" width="45.3429" height="45.3429" filterUnits="userSpaceOnUse" color-interpolation-filters="sRGB">
<feFlood flood-opacity="0" result="BackgroundImageFix"/>
<feBlend mode="normal" in="SourceGraphic" in2="BackgroundImageFix" result="shape"/>
<feGaussianBlur stdDeviation="0.492857" result="effect1_foregroundBlur_1122_13125"/>
</filter>
<filter id="filter5_i_1122_13125" x="4.10718" y="26.45" width="56.35" height="35.1571" filterUnits="userSpaceOnUse" color-interpolation-filters="sRGB">
<feFlood flood-opacity="0" result="BackgroundImageFix"/>
<feBlend mode="normal" in="SourceGraphic" in2="BackgroundImageFix" result="shape"/>
<feColorMatrix in="SourceAlpha" type="matrix" values="0 0 0 0 0 0 0 0 0 0 0 0 0 0 0 0 0 0 127 0" result="hardAlpha"/>
<feOffset dy="0.657143"/>
<feGaussianBlur stdDeviation="3.61429"/>
<feComposite in2="hardAlpha" operator="arithmetic" k2="-1" k3="1"/>
<feColorMatrix type="matrix" values="0 0 0 0 1 0 0 0 0 1 0 0 0 0 1 0 0 0 1 0"/>
<feBlend mode="normal" in2="shape" result="effect1_innerShadow_1122_13125"/>
</filter>
<filter id="filter6_f_1122_13125" x="14.6217" y="30.0643" width="10.9361" height="20.4536" filterUnits="userSpaceOnUse" color-interpolation-filters="sRGB">
<feFlood flood-opacity="0" result="BackgroundImageFix"/>
<feBlend mode="normal" in="SourceGraphic" in2="BackgroundImageFix" result="shape"/>
<feGaussianBlur stdDeviation="0.985714" result="effect1_foregroundBlur_1122_13125"/>
</filter>
<filter id="filter7_f_1122_13125" x="42.8789" y="33.5143" width="10.9361" height="20.4536" filterUnits="userSpaceOnUse" color-interpolation-filters="sRGB">
<feFlood flood-opacity="0" result="BackgroundImageFix"/>
<feBlend mode="normal" in="SourceGraphic" in2="BackgroundImageFix" result="shape"/>
<feGaussianBlur stdDeviation="0.985714" result="effect1_foregroundBlur_1122_13125"/>
</filter>
<filter id="filter8_f_1122_13125" x="-5.91405" y="19.55" width="70.6428" height="46.3286" filterUnits="userSpaceOnUse" color-interpolation-filters="sRGB">
<feFlood flood-opacity="0" result="BackgroundImageFix"/>
<feBlend mode="normal" in="SourceGraphic" in2="BackgroundImageFix" result="shape"/>
<feGaussianBlur stdDeviation="1.97143" result="effect1_foregroundBlur_1122_13125"/>
</filter>
<filter id="filter9_f_1122_13125" x="0.164565" y="19.55" width="70.6428" height="46.3286" filterUnits="userSpaceOnUse" color-interpolation-filters="sRGB">
<feFlood flood-opacity="0" result="BackgroundImageFix"/>
<feBlend mode="normal" in="SourceGraphic" in2="BackgroundImageFix" result="shape"/>
<feGaussianBlur stdDeviation="1.97143" result="effect1_foregroundBlur_1122_13125"/>
</filter>
<filter id="filter10_i_1122_13125" x="39.4285" y="31.05" width="26.2966" height="16.4067" filterUnits="userSpaceOnUse" color-interpolation-filters="sRGB">
<feFlood flood-opacity="0" result="BackgroundImageFix"/>
<feBlend mode="normal" in="SourceGraphic" in2="BackgroundImageFix" result="shape"/>
<feColorMatrix in="SourceAlpha" type="matrix" values="0 0 0 0 0 0 0 0 0 0 0 0 0 0 0 0 0 0 127 0" result="hardAlpha"/>
<feOffset dy="0.306667"/>
<feGaussianBlur stdDeviation="1.68667"/>
<feComposite in2="hardAlpha" operator="arithmetic" k2="-1" k3="1"/>
<feColorMatrix type="matrix" values="0 0 0 0 1 0 0 0 0 1 0 0 0 0 1 0 0 0 1 0"/>
<feBlend mode="normal" in2="shape" result="effect1_innerShadow_1122_13125"/>
</filter>
<filter id="filter11_f_1122_13125" x="44.3351" y="32.7367" width="5.10355" height="9.54499" filterUnits="userSpaceOnUse" color-interpolation-filters="sRGB">
<feFlood flood-opacity="0" result="BackgroundImageFix"/>
<feBlend mode="normal" in="SourceGraphic" in2="BackgroundImageFix" result="shape"/>
<feGaussianBlur stdDeviation="0.46" result="effect1_foregroundBlur_1122_13125"/>
</filter>
<filter id="filter12_f_1122_13125" x="57.5218" y="34.3467" width="5.10355" height="9.54499" filterUnits="userSpaceOnUse" color-interpolation-filters="sRGB">
<feFlood flood-opacity="0" result="BackgroundImageFix"/>
<feBlend mode="normal" in="SourceGraphic" in2="BackgroundImageFix" result="shape"/>
<feGaussianBlur stdDeviation="0.46" result="effect1_foregroundBlur_1122_13125"/>
</filter>
<filter id="filter13_f_1122_13125" x="34.7518" y="27.83" width="32.9666" height="21.62" filterUnits="userSpaceOnUse" color-interpolation-filters="sRGB">
<feFlood flood-opacity="0" result="BackgroundImageFix"/>
<feBlend mode="normal" in="SourceGraphic" in2="BackgroundImageFix" result="shape"/>
<feGaussianBlur stdDeviation="0.92" result="effect1_foregroundBlur_1122_13125"/>
</filter>
<filter id="filter14_f_1122_13125" x="37.5885" y="27.83" width="32.9666" height="21.62" filterUnits="userSpaceOnUse" color-interpolation-filters="sRGB">
<feFlood flood-opacity="0" result="BackgroundImageFix"/>
<feBlend mode="normal" in="SourceGraphic" in2="BackgroundImageFix" result="shape"/>
<feGaussianBlur stdDeviation="0.92" result="effect1_foregroundBlur_1122_13125"/>
</filter>
<radialGradient id="paint0_radial_1122_13125" cx="0" cy="0" r="1" gradientUnits="userSpaceOnUse" gradientTransform="translate(47.1427 20.2076) rotate(121.811) scale(30.5506)">
<stop stop-color="#FFD88B"/>
<stop offset="1" stop-color="#FF6400"/>
</radialGradient>
<radialGradient id="paint1_radial_1122_13125" cx="0" cy="0" r="1" gradientUnits="userSpaceOnUse" gradientTransform="translate(41.1403 14.9765) rotate(121.811) scale(33.1771)">
<stop stop-color="#FFD88B"/>
<stop offset="1" stop-color="#FF5C00"/>
</radialGradient>
<radialGradient id="paint2_radial_1122_13125" cx="0" cy="0" r="1" gradientUnits="userSpaceOnUse" gradientTransform="translate(41.0679 35.8169) rotate(135.374) scale(35.118 39.1958)">
<stop stop-color="white"/>
<stop offset="1" stop-color="#D7DFEB"/>
</radialGradient>
<radialGradient id="paint3_radial_1122_13125" cx="0" cy="0" r="1" gradientUnits="userSpaceOnUse" gradientTransform="translate(41.0679 35.8169) rotate(135.374) scale(35.118 39.1958)">
<stop stop-color="white"/>
<stop offset="1" stop-color="#E7E7E7"/>
</radialGradient>
<radialGradient id="paint4_radial_1122_13125" cx="0" cy="0" r="1" gradientUnits="userSpaceOnUse" gradientTransform="translate(56.6768 35.4212) rotate(135.374) scale(16.3884 18.2914)">
<stop stop-color="white"/>
<stop offset="1" stop-color="#D7DFEB"/>
</radialGradient>
<radialGradient id="paint5_radial_1122_13125" cx="0" cy="0" r="1" gradientUnits="userSpaceOnUse" gradientTransform="translate(56.6769 35.4212) rotate(135.374) scale(16.3884 18.2914)">
<stop stop-color="white"/>
<stop offset="1" stop-color="#E7E7E7"/>
</radialGradient>
<clipPath id="clip0_1122_13125">
<rect width="69" height="69" rx="19.7143" fill="white"/>
</clipPath>
</defs>
</svg>
