<svg width="20" height="20" viewBox="0 0 20 20" fill="none" xmlns="http://www.w3.org/2000/svg">
<circle cx="10" cy="10" r="10" fill="#E7E5F4"/>
<path d="M13.6643 8.63401L14.2743 8.02401C14.9078 7.39051 14.9078 6.35951 14.2743 5.72576C13.9675 5.41926 13.5598 5.25076 13.125 5.25076C12.6903 5.25076 12.2823 5.41951 11.9758 5.72601L11.366 6.33576L13.6643 8.63401ZM10.8358 6.86601L6.3185 11.3833C6.22225 11.4795 6.149 11.5983 6.1065 11.727L5.269 14.2573C5.22425 14.3918 5.2595 14.54 5.35975 14.6403C5.4315 14.7118 5.527 14.75 5.625 14.75C5.6645 14.75 5.70425 14.7438 5.743 14.731L8.2725 13.8933C8.40175 13.8508 8.52075 13.7775 8.617 13.681L13.134 9.16401L10.8358 6.86601Z" fill="#585683"/>
</svg>
