<svg width="103" height="101" viewBox="0 0 103 101" fill="none" xmlns="http://www.w3.org/2000/svg">
<g opacity="0.28" filter="url(#filter0_f_2675_18863)">
<rect x="19" y="18" width="65" height="65" rx="13" fill="black"/>
</g>
<path d="M36.5714 56.1429C35.1571 56.1429 34 57.3 34 58.7143V66.4286C34 67.8429 35.1571 69 36.5714 69H44.2857C45.7 69 46.8571 67.8429 46.8571 66.4286C46.8571 65.0143 45.7 63.8571 44.2857 63.8571H39.1429V58.7143C39.1429 57.3 37.9857 56.1429 36.5714 56.1429ZM36.5714 45.8571C37.9857 45.8571 39.1429 44.7 39.1429 43.2857V38.1429H44.2857C45.7 38.1429 46.8571 36.9857 46.8571 35.5714C46.8571 34.1571 45.7 33 44.2857 33H36.5714C35.1571 33 34 34.1571 34 35.5714V43.2857C34 44.7 35.1571 45.8571 36.5714 45.8571ZM64.8571 63.8571H59.7143C58.3 63.8571 57.1429 65.0143 57.1429 66.4286C57.1429 67.8429 58.3 69 59.7143 69H67.4286C68.8429 69 70 67.8429 70 66.4286V58.7143C70 57.3 68.8429 56.1429 67.4286 56.1429C66.0143 56.1429 64.8571 57.3 64.8571 58.7143V63.8571ZM57.1429 35.5714C57.1429 36.9857 58.3 38.1429 59.7143 38.1429H64.8571V43.2857C64.8571 44.7 66.0143 45.8571 67.4286 45.8571C68.8429 45.8571 70 44.7 70 43.2857V35.5714C70 34.1571 68.8429 33 67.4286 33H59.7143C58.3 33 57.1429 34.1571 57.1429 35.5714Z" fill="white"/>
<defs>
<filter id="filter0_f_2675_18863" x="2" y="1" width="99" height="99" filterUnits="userSpaceOnUse" color-interpolation-filters="sRGB">
<feFlood flood-opacity="0" result="BackgroundImageFix"/>
<feBlend mode="normal" in="SourceGraphic" in2="BackgroundImageFix" result="shape"/>
<feGaussianBlur stdDeviation="8.5" result="effect1_foregroundBlur_2675_18863"/>
</filter>
</defs>
</svg>
