<svg width="111" height="156" viewBox="0 0 111 156" fill="none" xmlns="http://www.w3.org/2000/svg">
<path d="M43.2912 147.054L32.4687 129.451L16.5625 142.681L32.9283 43.4143L59.657 47.7876L43.2912 147.054Z" fill="#007A96"/>
<path d="M94.2757 151.566L78.3393 138.372L67.5572 156L50.9609 56.7716L77.6799 52.3372L94.2757 151.566Z" fill="#007A96"/>
<g style="mix-blend-mode:multiply" opacity="0.57">
<path d="M59.658 47.7872L32.9291 43.4143L23.626 99.8413C26.9657 103.057 30.4376 108.702 36.6969 110.727C41.0751 112.143 45.4525 111.246 49.3354 110.396L59.658 47.7872Z" fill="#007A96"/>
</g>
<g style="mix-blend-mode:multiply" opacity="0.57">
<path d="M77.6808 52.3372L50.9619 56.7716L59.8653 110.005C64.171 110.904 69.2328 112.368 74.3037 110.727C78.9639 109.22 82.0425 105.738 84.7583 102.665C85.172 102.198 85.5444 101.779 85.8863 101.401L77.6808 52.3372Z" fill="#007A96"/>
</g>
<path d="M111 53.076C111 58.8106 105.923 63.6762 104.237 68.8508C102.489 74.2136 103.664 81.1104 100.403 85.5743C97.1087 90.0828 90.1385 91.0852 85.6125 94.3661C81.1313 97.6146 78.0383 103.927 72.6546 105.668C67.4598 107.348 61.257 104.108 55.5 104.108C49.743 104.108 43.5397 107.348 38.345 105.668C32.9612 103.927 29.8683 97.6146 25.387 94.3657C20.8611 91.0848 13.8908 90.0823 10.5972 85.5739C7.33562 81.11 8.51145 74.2132 6.76337 68.8503C5.07655 63.6762 0 58.8102 0 53.076C0 47.3413 5.07655 42.4753 6.76337 37.3007C8.51145 31.9378 7.33607 25.041 10.5972 20.5772C13.8913 16.0687 20.8615 15.0662 25.3875 11.7854C29.8687 8.5369 32.9617 2.22438 38.3454 0.483077C43.5402 -1.1968 49.7434 2.04391 55.5 2.04391C61.257 2.04391 67.4603 -1.19679 72.655 0.483483C78.0388 2.22483 81.1317 8.53691 85.613 11.7858C90.1389 15.0667 97.1092 16.0691 100.403 20.5776C103.664 25.0415 102.489 31.9383 104.237 37.3011C105.923 42.4753 111 47.3413 111 53.076Z" fill="#FFEC03"/>
<path d="M63.406 101.225C56.5123 99.7164 54.4848 99.7173 47.5933 101.225C45.1486 101.76 41.8058 102.57 39.5884 101.852C35.6647 100.583 32.5314 94.5829 27.7572 91.122C22.9597 87.6445 16.2441 86.4854 13.8533 83.2132C11.5 79.992 12.4411 73.2813 10.5939 67.6115C9.79793 65.1712 8.48349 62.9611 7.21164 60.8242C2.96853 53.6953 2.97111 52.4496 7.21164 45.3272C8.48305 43.1903 9.79793 40.9807 10.5935 38.5399C12.4407 32.8775 11.4982 26.1612 13.8538 22.9378C16.2467 19.663 22.9453 18.5181 27.7577 15.029C32.5318 11.5685 35.6586 5.57018 39.5893 4.29936C41.8197 3.57783 45.1395 4.38938 47.5937 4.92657C54.49 6.435 56.5106 6.435 63.4064 4.92657C65.8619 4.38898 69.193 3.58173 71.4108 4.29936C75.3337 5.568 78.4692 11.5689 83.2425 15.0294C88.0783 18.5346 94.746 19.6534 97.1464 22.9383C99.4997 26.159 98.559 32.8732 100.405 38.5399C101.201 40.9811 102.517 43.1908 103.788 45.3272C108.032 52.457 108.027 53.7014 103.788 60.825C100.386 66.5385 99.7579 68.3244 99.0687 75.3169C98.2739 83.3846 97.703 84.2316 90.147 87.5043C87.8084 88.5172 85.3912 89.5646 83.242 91.122C78.4688 94.5838 75.332 100.585 71.4108 101.852C70.8133 102.046 65.9363 101.779 63.406 101.225Z" fill="#FFDC01"/>
<path d="M98.2804 60.8862C102.611 37.3509 86.968 14.775 63.3411 10.4613C39.7142 6.14769 17.0503 21.7299 12.7199 45.2651C8.38942 68.8003 24.0323 91.3763 47.6592 95.6899C71.2861 100.004 93.9499 84.4214 98.2804 60.8862Z" fill="#FFEC03"/>
<g style="mix-blend-mode:screen" opacity="0.48">
<path d="M55.1238 9.75342C45.8297 9.83419 36.806 12.8784 29.3753 18.4398C21.9446 24.0012 16.4977 31.7874 13.8329 40.6571C11.1681 49.5268 11.4256 59.0135 14.5677 67.7268C17.7098 76.4401 23.5712 83.9216 31.2927 89.0749C55.2515 82.9723 72.6194 64.92 72.6194 43.5997C72.6194 30.3665 65.9286 18.3924 55.1238 9.75342Z" fill="#FFEC03"/>
</g>
</svg>
