<svg width="95" height="156" viewBox="0 0 95 156" fill="none" xmlns="http://www.w3.org/2000/svg">
<path d="M51.1263 91.3384H43.8741L33.8271 134.36H61.1729L51.1263 91.3384Z" fill="#FFDC01"/>
<path d="M61.1729 134.36L51.1263 91.3384H43.8741L41.833 100.078C45.3203 102.039 49.8945 105.803 50.8706 112.347C52.1335 120.812 50.4058 130.49 49.5789 134.36H61.1729Z" fill="#FFC001"/>
<path d="M52.9424 33.3423H42.0576C43.7184 52.1271 43.7184 71.019 42.0576 89.8038H52.9424C50.2137 60.189 52.8825 34.8577 52.9424 33.3423Z" fill="#FFB10F"/>
<path d="M42.0576 33.3423C42.0913 34.2 42.5811 38.9267 42.9383 46.3364C45.6583 47.3216 48.3035 49.2785 48.3035 53.1666C48.3035 60.3433 46.9999 84.8226 46.7303 89.8038H52.9424C50.2137 60.189 52.8825 34.8577 52.9424 33.3423H42.0576Z" fill="#E8860E"/>
<path d="M89.2764 5.22314H5.72324C4.20535 5.22316 2.74962 5.8184 1.67631 6.87793C0.602999 7.93745 1.54537e-05 9.37447 0 10.8729H95C95 10.1309 94.8519 9.39621 94.5643 8.71074C94.2766 8.02527 93.855 7.40244 93.3235 6.87781C92.792 6.35318 92.1611 5.93704 91.4667 5.65313C90.7722 5.36922 90.028 5.22311 89.2764 5.22314Z" fill="#FFEC03"/>
<path d="M81.7921 0H13.2086C11.8052 9.15223e-05 10.4593 0.55047 9.46698 1.53008C8.47462 2.50968 7.91708 3.83829 7.91699 5.22366H87.0837C87.0836 3.83829 86.5261 2.50969 85.5338 1.53008C84.5414 0.550473 83.1955 9.26967e-05 81.7921 0V0Z" fill="#FFDC01"/>
<path d="M4.08594 10.8735C4.08594 28.5818 20.9873 42.9936 42.0574 43.4801H52.9422C74.0124 42.9936 90.9137 28.5818 90.9137 10.8735H4.08594Z" fill="#FFCF03"/>
<path d="M58.7119 85.5059H36.2878C35.9434 85.5058 35.6023 85.5728 35.2841 85.7029C34.9659 85.833 34.6767 86.0237 34.4332 86.2642C34.1896 86.5046 33.9964 86.79 33.8646 87.1042C33.7328 87.4183 33.665 87.755 33.665 88.095H61.3347C61.3347 87.755 61.2669 87.4183 61.1351 87.1042C61.0033 86.79 60.8101 86.5046 60.5665 86.2642C60.323 86.0237 60.0338 85.833 59.7156 85.7029C59.3974 85.5728 59.0563 85.5058 58.7119 85.5059Z" fill="#FFDC01"/>
<path d="M34.915 88.0952V88.1159C34.915 89.3101 35.1532 90.4926 35.6161 91.5958C36.079 92.6991 36.7575 93.7016 37.6128 94.546C38.4682 95.3904 39.4837 96.0603 40.6013 96.5173C41.7189 96.9743 42.9167 97.2095 44.1264 97.2095H50.8731C53.3161 97.2094 55.6591 96.2513 57.3866 94.5459C59.1141 92.8406 60.0845 90.5276 60.0844 88.1159V88.0952H34.915Z" fill="#FF8B00"/>
<path d="M50.8734 97.2097C53.3119 97.2096 55.6508 96.255 57.3775 94.5552C59.1042 92.8555 60.0778 90.5493 60.0847 88.1421C54.8645 95.5163 45.6036 95.7177 36.7822 93.6051C37.6404 94.726 38.7504 95.6349 40.0249 96.2604C41.2993 96.8859 42.7035 97.2109 44.1267 97.2097H50.8734Z" fill="#F08300"/>
<path d="M62.7626 134.359H32.2381C30.4806 136.094 29.4957 137.066 27.7383 138.801H67.2619C65.5049 137.066 64.5196 136.094 62.7626 134.359Z" fill="#FFEC03"/>
<path d="M18.9004 138.802V156H76.0988V138.802H18.9004Z" fill="#893003"/>
<path d="M76.0988 138.802H69.4839C69.4752 143.134 67.9935 149.429 60.0843 151.964C49.8644 155.24 27.1098 155.219 18.9004 155.095V156H76.0988V138.802Z" fill="#7A2B03"/>
<path d="M59.7966 62.1137C59.7967 64.5144 59.0755 66.8613 57.7244 68.8574C56.3733 70.8536 54.4529 72.4094 52.206 73.3282C49.9592 74.2469 47.4868 74.4873 45.1015 74.019C42.7163 73.5506 40.5253 72.3946 38.8056 70.697C37.0859 68.9994 35.9148 66.8365 35.4404 64.4819C34.9659 62.1273 35.2094 59.6867 36.1401 57.4687C37.0708 55.2507 38.6469 53.3549 40.6691 52.0212C42.6912 50.6874 45.0686 49.9755 47.5006 49.9756C50.7617 49.9756 53.8892 51.2545 56.1951 53.5308C58.5011 55.8071 59.7966 58.8945 59.7966 62.1137Z" fill="#FF8B00"/>
<path d="M54.7852 62.1137C54.7852 63.5362 54.358 64.9268 53.5574 66.1095C52.7569 67.2923 51.619 68.2141 50.2877 68.7585C48.9564 69.3029 47.4915 69.4454 46.0782 69.1678C44.6649 68.8903 43.3667 68.2054 42.3478 67.1995C41.3289 66.1937 40.635 64.9122 40.3539 63.517C40.0727 62.1219 40.217 60.6757 40.7685 59.3616C41.32 58.0474 42.2538 56.9241 43.452 56.1339C44.6501 55.3436 46.0588 54.9218 47.4998 54.9219C49.432 54.9219 51.285 55.6797 52.6513 57.0284C54.0175 58.3771 54.7851 60.2064 54.7852 62.1137Z" fill="#FFDC01"/>
<path d="M50.8883 68.4829L41.9902 57.4082C41.7586 57.6724 41.5468 57.9528 41.3564 58.2473L49.916 68.9016C50.25 68.7856 50.575 68.6457 50.8883 68.4829Z" fill="#FFEC73"/>
<path d="M47.5006 69.3061C47.6879 69.3061 47.8735 69.2991 48.0574 69.2853L40.5522 59.9434C40.4882 60.1426 40.4331 60.3454 40.3867 60.5518L47.42 69.3056C47.4467 69.3061 47.4734 69.3061 47.5006 69.3061Z" fill="#FFEC73"/>
<path d="M52.8097 67.0389L43.8505 55.8877C43.7016 55.9728 43.5562 56.0631 43.4141 56.1586L52.4434 67.3971C52.5699 67.2821 52.692 67.1627 52.8097 67.0389Z" fill="#FFEC73"/>
<path d="M54.1155 65.1324L46.0294 55.0684C45.7553 55.1239 45.4846 55.195 45.2188 55.2814L53.7193 65.8622C53.8655 65.6267 53.9978 65.383 54.1155 65.1324Z" fill="#FFEC73"/>
<path d="M56.5908 62.2528C56.5934 62.1266 56.6022 61.9023 56.5518 60.9513C56.6652 61.2269 56.8497 61.4684 57.087 61.6517C57.3243 61.835 57.6061 61.9538 57.9044 61.9961C57.8984 61.5875 57.7462 61.1941 57.4747 60.8855C57.2032 60.577 56.83 60.3731 56.4209 60.3101C56.3609 60.007 56.2851 59.7071 56.1938 59.4117C56.3641 59.6133 56.5766 59.7761 56.8168 59.8888C57.0569 60.0015 57.319 60.0615 57.5849 60.0646C57.5152 59.6729 57.311 59.3169 57.0067 59.0564C56.7023 58.7959 56.3163 58.6469 55.9136 58.6344C55.7824 58.3174 55.6332 58.0079 55.4667 57.7075C55.663 57.9132 55.9059 58.0699 56.1756 58.1648C56.4452 58.2596 56.7338 58.29 57.0176 58.2532C56.878 57.8688 56.6199 57.5371 56.2796 57.3048C55.9166 57.1032 55.4969 57.0239 55.0842 57.0788C54.8833 56.7769 54.6645 56.4871 54.4289 56.2107C54.6616 56.3343 54.9184 56.4071 55.1821 56.4241C55.4457 56.4411 55.71 56.4019 55.957 56.3092C55.7443 55.967 55.4179 55.7082 55.0334 55.577C54.649 55.4459 54.2303 55.4506 53.8489 55.5902C53.5501 55.2987 53.2316 55.0276 52.8956 54.7787C53.1542 54.847 53.4248 54.8587 53.6885 54.8131C53.9522 54.7675 54.2026 54.6657 54.4224 54.5147C54.1329 54.2354 53.7549 54.0632 53.3518 54.027C52.9487 53.9908 52.5454 54.0928 52.2096 54.316C51.9314 54.146 51.6441 53.9908 51.3491 53.851C51.595 53.8488 51.838 53.7986 52.0642 53.7033C52.2904 53.608 52.4953 53.4695 52.6671 53.2958C52.3349 53.0763 51.9366 52.9759 51.5385 53.0116C51.1405 53.0472 50.7669 53.2166 50.4802 53.4915C50.0682 53.3452 49.646 53.2283 49.217 53.142C49.5073 53.1189 49.7876 53.0262 50.0335 52.8719C50.2794 52.7176 50.4833 52.5064 50.6277 52.2566C50.2399 52.1219 49.8166 52.1254 49.4311 52.2663C49.0455 52.4072 48.722 52.6768 48.5166 53.0283C48.1785 52.9866 47.8383 52.9632 47.4976 52.9583C47.7687 52.8865 48.0182 52.7508 48.2244 52.5628C48.4307 52.3747 48.5876 52.1401 48.6816 51.8789C48.2752 51.8048 47.8554 51.8746 47.4961 52.076C47.1367 52.2774 46.8609 52.5975 46.7171 52.9799C46.4943 52.995 46.2737 53.0181 46.0553 53.049C46.3775 52.7532 46.5881 52.3579 46.6523 51.9282C46.274 51.9462 45.9117 52.085 45.62 52.3237C45.3284 52.5623 45.1231 52.888 45.035 53.2517C44.6831 53.3423 44.3369 53.4536 43.9984 53.5849C44.277 53.2129 44.407 52.7526 44.3635 52.292C43.994 52.3981 43.6704 52.6217 43.4431 52.9281C43.2157 53.2346 43.0974 53.6066 43.1064 53.9863C42.7945 54.1472 42.4921 54.3255 42.2007 54.5203C42.387 54.0892 42.4028 53.6047 42.2449 53.1627C41.9157 53.3528 41.6586 53.644 41.5129 53.9919C41.3671 54.3399 41.3408 54.7253 41.4378 55.0894C41.2583 55.2381 41.0849 55.3931 40.9177 55.5543C40.9686 55.1528 40.8921 54.7455 40.6989 54.3886C40.4151 54.6206 40.2126 54.9351 40.1203 55.2873C40.0279 55.6395 40.0504 56.0115 40.1846 56.3503C39.9964 56.5802 39.8195 56.8188 39.654 57.0663C39.6294 56.6524 39.4718 56.257 39.2041 55.9376C38.9686 56.225 38.8328 56.5794 38.8164 56.9486C38.8 57.3179 38.904 57.6826 39.113 57.9893C38.9506 58.3086 38.8074 58.6372 38.684 58.9731C38.5885 58.5267 38.3281 58.1313 37.9535 57.8639C37.7877 58.2065 37.7411 58.5936 37.8211 58.965C37.901 59.3364 38.103 59.6713 38.3956 59.9177C38.3114 60.2612 38.2475 60.6091 38.2043 60.9599C38.0052 60.5264 37.6461 60.1843 37.2002 60.0033C37.1232 60.3762 37.1736 60.7638 37.3434 61.1055C37.5132 61.4472 37.7928 61.7238 38.1387 61.892C38.1343 62.1257 38.1387 62.3655 38.1536 62.6127C37.8826 62.2866 37.5113 62.0567 37.096 61.9576C37.0816 62.3292 37.1888 62.6954 37.4019 63.002C37.6149 63.3086 37.9224 63.5392 38.2787 63.6597C38.3242 63.912 38.3801 64.1609 38.4464 64.4063C38.2896 64.2138 38.095 64.0545 37.8743 63.9381C37.6536 63.8216 37.4114 63.7502 37.1621 63.7284C37.2027 64.1262 37.3811 64.4979 37.6671 64.7809C37.9532 65.0639 38.3294 65.2408 38.7322 65.2818C38.8562 65.6051 38.9989 65.9211 39.1599 66.2281C38.9621 66.0419 38.7228 65.9043 38.4613 65.8262C38.1997 65.7481 37.9232 65.7318 37.6541 65.7787C37.7878 66.1589 38.0517 66.4811 38.4002 66.69C38.7487 66.8989 39.1601 66.9812 39.5635 66.9229C39.8073 67.2918 40.0703 67.648 40.3513 67.9902C40.106 67.8174 39.8192 67.711 39.5193 67.6817C39.2194 67.6524 38.9169 67.7011 38.642 67.823C38.8691 68.1639 39.2105 68.415 39.6064 68.5322C40.0023 68.6494 40.4274 68.6251 40.807 68.4638C41.039 68.6953 41.2833 68.9146 41.5389 69.1206C41.2813 69.0226 41.0038 68.9864 40.7293 69.015C40.4548 69.0436 40.1912 69.1362 39.96 69.2852C40.235 69.5845 40.6076 69.7793 41.013 69.8354C41.4185 69.8915 41.831 69.8055 42.1788 69.5924C42.4327 69.7631 42.6962 69.9221 42.9672 70.0677C43.0289 70.1198 43.0943 70.1676 43.1628 70.2107C42.87 70.1403 42.5636 70.1469 42.2741 70.2298C41.9847 70.3126 41.7223 70.4689 41.5131 70.683C41.86 70.906 42.269 71.0161 42.6826 70.998C43.0984 70.9435 43.4829 70.7509 43.773 70.4519C44.0851 70.5823 44.4043 70.6956 44.729 70.7915C44.8282 70.8487 44.9329 70.8962 45.0415 70.9332C44.7402 70.9326 44.444 71.0099 44.1824 71.1575C43.9208 71.3051 43.703 71.5179 43.5507 71.7745C43.9409 71.9107 44.3646 71.923 44.7623 71.8095C45.1551 71.6604 45.4833 71.3812 45.6907 71.0196C46.0451 71.0837 46.4031 71.1275 46.7627 71.1506C46.8431 71.1688 46.9247 71.1815 47.0069 71.1886C46.7144 71.2603 46.4461 71.4064 46.2286 71.6123C46.0111 71.8182 45.8521 72.0767 45.7673 72.3622C46.1752 72.4124 46.5881 72.3202 46.9344 72.1016C47.2808 71.883 47.5388 71.5518 47.6639 71.1653C47.9563 71.1557 48.2449 71.1331 48.5297 71.0974C48.3221 71.2387 48.1459 71.4202 48.0119 71.631C47.8778 71.8418 47.7888 72.0773 47.7501 72.3233C48.1444 72.3143 48.5238 72.1727 48.8255 71.922C49.1273 71.6712 49.3333 71.3264 49.4096 70.9444C49.9255 70.8288 50.4303 70.6694 50.9184 70.4678C50.738 70.6527 50.5992 70.8731 50.5111 71.1146C50.423 71.3561 50.3876 71.6132 50.4071 71.8691C50.7968 71.7667 51.1386 71.5345 51.375 71.212C51.6113 70.8894 51.7275 70.4962 51.7041 70.0988C52.1124 69.8851 52.5032 69.64 52.8728 69.366C52.6783 69.5932 52.5476 69.8668 52.4937 70.1595C52.4398 70.4521 52.4645 70.7536 52.5655 71.0339C52.9276 70.8378 53.2083 70.5224 53.3587 70.1427C53.5091 69.7631 53.5196 69.3433 53.3884 68.9568C53.8292 68.5813 53.9916 68.3842 54.3365 68.0468C54.2037 68.3138 54.1442 68.6105 54.1638 68.9073C54.1834 69.2041 54.2814 69.4907 54.4482 69.7385C54.7515 69.463 54.9469 69.091 55.0001 68.6876C55.0534 68.2841 54.961 67.8751 54.7393 67.5321C54.924 67.2902 55.0964 67.0391 55.2566 66.779C55.2219 67.0356 55.243 67.2966 55.3185 67.5445C55.3941 67.7924 55.5224 68.0215 55.6948 68.2166C55.9431 67.9051 56.0757 67.519 56.0706 67.1227C56.0654 66.7264 55.9227 66.3438 55.6663 66.0388C55.8344 65.6985 55.9806 65.3481 56.1041 64.9897C56.1025 65.2625 56.1669 65.5318 56.2918 65.7752C56.4167 66.0186 56.5986 66.2291 56.8223 66.3892C57.0058 66.0296 57.0567 65.6181 56.9663 65.2254C56.8759 64.8327 56.6498 64.4834 56.3269 64.2374C56.4945 63.5655 56.4783 63.3866 56.5738 62.9074C56.6159 63.2018 56.7355 63.4803 56.9206 63.7149C57.1057 63.9495 57.3498 64.1322 57.6287 64.2447C57.7101 63.8442 57.6625 63.4285 57.4925 63.056C57.2868 62.6999 56.9707 62.4183 56.5908 62.2528ZM56.4433 62.315C56.0863 62.4649 55.7914 62.7299 55.6068 63.0667C55.4222 63.4035 55.3588 63.7921 55.4269 64.1691C55.7866 64.035 56.1001 63.8024 56.3304 63.4985C56.2901 63.7452 56.2396 63.9888 56.1789 64.2292C55.7885 64.2889 55.4301 64.4772 55.1617 64.7633C54.8933 65.0494 54.7307 65.4167 54.7003 65.8055C55.1379 65.7517 55.5446 65.5547 55.8554 65.2459C55.7596 65.4939 55.6531 65.7367 55.5359 65.974C55.1354 65.9476 54.7378 66.0576 54.4097 66.2858C54.0815 66.5139 53.8426 66.8464 53.7329 67.2275C54.1961 67.2662 54.6576 67.137 55.0312 66.8641C54.8929 67.0784 54.7457 67.2865 54.5895 67.4885C54.2059 67.4126 53.8076 67.4669 53.4591 67.6425C53.1106 67.8181 52.8325 68.1048 52.6697 68.456C53.0331 68.5415 53.4134 68.5266 53.7688 68.4128C53.6025 68.5757 53.43 68.733 53.2514 68.8829C52.8982 68.7187 52.4992 68.6768 52.1188 68.764C51.7385 68.8512 51.399 69.0623 51.1552 69.3634C51.5119 69.5471 51.9164 69.6204 52.316 69.5738C52.0945 69.7164 51.8668 69.8495 51.6327 69.9731C51.3267 69.7196 50.9426 69.5763 50.5432 69.5664C50.1439 69.5565 49.753 69.6807 49.4345 69.9186C49.7875 70.2292 50.2455 70.3983 50.7183 70.3927C50.2946 70.5592 49.8587 70.6938 49.4144 70.7953C49.1754 70.4758 48.8428 70.2364 48.4614 70.1096C48.0585 70.0164 47.636 70.05 47.2533 70.2055C47.5335 70.6034 47.9619 70.8756 48.4448 70.9626C48.1682 70.995 47.8879 71.015 47.6039 71.0226C47.4133 70.6859 47.1144 70.4216 46.7545 70.2713C46.3946 70.1211 45.9942 70.0935 45.6167 70.193C45.7757 70.5047 46.0134 70.7707 46.307 70.9652C46.0842 70.9397 45.8638 70.9061 45.646 70.8645C45.5409 70.5008 45.3157 70.1822 45.0062 69.9594C44.6966 69.7365 44.3205 69.6221 43.9376 69.6343C44.0144 69.9698 44.1759 70.2806 44.4073 70.5378C44.1901 70.4639 43.9768 70.3821 43.7673 70.2924C43.7539 69.913 43.6118 69.5491 43.3637 69.259C43.1156 68.9689 42.7761 68.7695 42.3994 68.6928C42.3931 69.0586 42.4881 69.4191 42.6743 69.7354C42.5255 69.6464 42.3793 69.5534 42.2357 69.4563C42.3169 69.0756 42.2656 68.6789 42.0901 68.3306C41.9146 67.9822 41.6253 67.7024 41.2688 67.5365C41.1619 67.9623 41.2053 68.4113 41.3918 68.8095C41.2115 68.6534 41.0375 68.491 40.87 68.322C41.0065 67.9614 41.0161 67.5659 40.8972 67.1993C40.7784 66.8326 40.538 66.5161 40.2148 66.3007C40.0641 66.6535 40.0197 67.0418 40.0869 67.419C39.9412 67.2267 39.8035 67.0289 39.6738 66.8257C39.9023 66.507 40.0149 66.1214 39.9932 65.7316C39.9715 65.3417 39.8168 64.9706 39.5543 64.6786C39.2827 65.0305 39.1437 65.4649 39.1612 65.907C39.0535 65.6841 38.9552 65.4563 38.8661 65.2239C39.1695 64.9689 39.3752 64.6189 39.4489 64.2324C39.5226 63.8459 39.4598 63.4461 39.271 63.0997C39.0762 63.251 38.9147 63.4399 38.7963 63.6549C38.6779 63.8699 38.6052 64.1065 38.5825 64.3502C38.526 64.1397 38.4775 63.9263 38.4368 63.7098C38.822 63.5277 39.1237 63.2092 39.282 62.8175C39.4057 62.4277 39.4025 62.0094 39.2728 61.6214C39.0134 61.7707 38.7964 61.9821 38.6418 62.2361C38.4872 62.4901 38.3999 62.7785 38.3882 63.0746C38.3698 63.0185 38.3479 62.961 38.3225 62.9035C38.2928 62.5901 38.2799 62.2754 38.2836 61.9606C38.6723 61.8127 39.0014 61.5434 39.2207 61.1937C39.405 60.828 39.4686 60.4146 39.4028 60.0115C39.1484 60.1092 38.9196 60.2625 38.7337 60.4599C38.5478 60.6573 38.4096 60.8937 38.3295 61.1513C38.3689 60.7707 38.4329 60.393 38.5212 60.0205C38.9356 59.9721 39.3222 59.7902 39.6212 59.5029C39.8899 59.1922 40.0535 58.8063 40.0891 58.3993C39.7912 58.4359 39.5074 58.546 39.264 58.7196C39.0206 58.8932 38.8255 59.1245 38.6968 59.3923C38.8325 58.9566 39.0036 58.5325 39.2085 58.124C39.6287 58.214 40.068 58.1399 40.434 57.9171C40.7695 57.6777 41.0205 57.3405 41.1519 56.9531C40.8536 56.9194 40.5515 56.9606 40.2736 57.0728C39.9957 57.1851 39.751 57.3647 39.5621 57.5952C39.5857 57.5269 39.6052 57.4574 39.6203 57.3869C39.8115 57.0797 40.0212 56.7842 40.2485 56.5019C40.4417 56.599 40.6533 56.6552 40.8698 56.667C41.0862 56.6787 41.3028 56.6458 41.5056 56.5702C41.8825 56.4012 42.1965 56.12 42.4034 55.7661C42.1178 55.6747 41.8135 55.6559 41.5185 55.7113C41.2236 55.7668 40.9476 55.8947 40.716 56.0832C40.7624 56.0054 40.8025 55.924 40.8359 55.84C41.0408 55.6309 41.2555 55.4318 41.4802 55.2428C41.8478 55.4479 42.2767 55.5187 42.6919 55.4429C43.0909 55.3348 43.4457 55.1062 43.7065 54.7891C43.4476 54.6561 43.1594 54.5885 42.8676 54.5924C42.5758 54.5963 42.2895 54.6716 42.0344 54.8116C42.3775 54.5654 42.7376 54.3432 43.1121 54.1466C43.425 54.4189 43.82 54.582 44.2361 54.6106C44.65 54.6017 45.0506 54.4649 45.3816 54.2196C45.1628 54.0281 44.8992 53.8933 44.6145 53.8274C44.3298 53.7615 44.033 53.7665 43.7507 53.8419C44.1556 53.6681 44.5728 53.5237 44.9991 53.4098C45.2227 53.7663 45.5701 54.0302 45.9765 54.1522C46.3808 54.2393 46.8026 54.1994 47.1829 54.0381C47.0094 53.7963 46.7769 53.6015 46.507 53.4718C46.2371 53.3422 45.9384 53.2817 45.6386 53.2962C45.6771 53.2802 45.716 53.2621 45.755 53.2426C46.0923 53.1829 46.4329 53.1421 46.7749 53.1203C46.9444 53.468 47.2277 53.7491 47.579 53.9182C47.9303 54.0873 48.3291 54.1346 48.711 54.0524C48.5353 53.6511 48.2272 53.3203 47.8368 53.1139C48.0749 53.1259 48.3103 53.147 48.5429 53.177C48.6562 53.5468 48.8914 53.8687 49.2111 54.0917C49.5308 54.3146 49.9168 54.4258 50.3078 54.4076C50.206 54.0116 49.9813 53.657 49.6652 53.3934L49.6638 53.3926C49.9186 53.4582 50.1687 53.5346 50.4141 53.6216C50.4181 54.0199 50.5608 54.4046 50.8183 54.7113C51.0757 55.0179 51.4323 55.2277 51.828 55.3055C51.8319 55.0551 51.783 54.8067 51.6842 54.5761C51.5855 54.3454 51.4392 54.1377 51.2546 53.966C51.5596 54.1091 51.8563 54.2691 52.1431 54.4452C52.0774 54.833 52.1476 55.2313 52.3422 55.5744C52.5368 55.9175 52.8441 56.1848 53.2134 56.3321C53.3021 55.8915 53.2277 55.4342 53.0037 55.0432C53.2678 55.25 53.52 55.4711 53.7592 55.7056C53.6032 56.0653 53.5755 56.4666 53.6805 56.8439C53.7855 57.2212 54.0171 57.5522 54.3374 57.7827C54.5352 57.3659 54.5716 56.892 54.4398 56.4505C54.6373 56.6922 54.8218 56.9439 54.9927 57.2045C54.7653 57.5147 54.6514 57.8919 54.6695 58.2744C54.6876 58.6568 54.8368 59.0219 55.0925 59.3097C55.3647 58.9685 55.5137 58.5472 55.5158 58.1128C55.6103 58.3025 55.6983 58.4957 55.7797 58.6923C55.4962 58.9705 55.3171 59.3358 55.2719 59.7279C55.2266 60.12 55.3179 60.5156 55.5306 60.8497C55.8637 60.5418 56.0729 60.1255 56.1198 59.6775C56.1864 59.9147 56.243 60.1555 56.2897 60.3999C55.9802 60.6327 55.7588 60.9613 55.6609 61.333C55.5631 61.7048 55.5944 62.0982 55.75 62.4502C56.0471 62.2462 56.2841 61.9679 56.4367 61.6439C56.4477 61.8729 56.4494 62.0942 56.4433 62.315Z" fill="#FFDC01"/>
<g style="mix-blend-mode:multiply">
<path d="M90.9137 10.8735H4.08594C4.08594 11.7221 4.12432 12.5627 4.20109 13.3953C17.615 13.6973 65.5902 15.1919 68.842 21.1536C72.6257 28.0901 52.3351 44.4533 34.9151 42.7633L34.888 42.7607C37.255 43.1853 39.6522 43.4259 42.0574 43.4801H52.9422C74.0124 42.9936 90.9137 28.5818 90.9137 10.8735Z" fill="#FFCF03"/>
</g>
<g style="mix-blend-mode:screen">
<g style="mix-blend-mode:screen">
<path d="M87.9357 8.84904H38.2101C37.9951 8.84904 37.7889 8.76472 37.6369 8.61465C37.4848 8.46457 37.3994 8.26103 37.3994 8.04879C37.3994 7.83655 37.4848 7.633 37.6369 7.48292C37.7889 7.33285 37.9951 7.24854 38.2101 7.24854H87.9357C88.0421 7.24854 88.1476 7.26923 88.2459 7.30945C88.3443 7.34967 88.4336 7.40861 88.5089 7.48292C88.5842 7.55723 88.6439 7.64545 88.6846 7.74254C88.7254 7.83963 88.7463 7.9437 88.7463 8.04879C88.7463 8.15388 88.7254 8.25794 88.6846 8.35503C88.6439 8.45212 88.5842 8.54034 88.5089 8.61465C88.4336 8.68896 88.3443 8.7479 88.2459 8.78812C88.1476 8.82834 88.0421 8.84904 87.9357 8.84904Z" fill="#FFED78"/>
</g>
</g>
<g style="mix-blend-mode:screen">
<g style="mix-blend-mode:screen">
<path d="M33.6164 8.84904H21.7257C21.5107 8.84904 21.3045 8.76472 21.1525 8.61465C21.0004 8.46457 20.915 8.26103 20.915 8.04879C20.915 7.83655 21.0004 7.633 21.1525 7.48292C21.3045 7.33285 21.5107 7.24854 21.7257 7.24854H33.6164C33.7229 7.24854 33.8283 7.26923 33.9266 7.30945C34.025 7.34967 34.1143 7.40861 34.1896 7.48292C34.2649 7.55723 34.3246 7.64545 34.3654 7.74254C34.4061 7.83963 34.4271 7.9437 34.4271 8.04879C34.4271 8.15388 34.4061 8.25794 34.3654 8.35503C34.3246 8.45212 34.2649 8.54034 34.1896 8.61465C34.1143 8.68896 34.025 8.7479 33.9266 8.78812C33.8283 8.82834 33.7229 8.84904 33.6164 8.84904Z" fill="#FFED78"/>
</g>
</g>
<g style="mix-blend-mode:screen">
<g style="mix-blend-mode:screen">
<path d="M16.2002 8.84904H7.06359C6.95713 8.84904 6.85172 8.82834 6.75337 8.78812C6.65501 8.7479 6.56564 8.68896 6.49037 8.61465C6.41509 8.54034 6.35537 8.45212 6.31463 8.35503C6.2739 8.25794 6.25293 8.15388 6.25293 8.04879C6.25293 7.9437 6.2739 7.83963 6.31463 7.74254C6.35537 7.64545 6.41509 7.55723 6.49037 7.48292C6.56564 7.40861 6.65501 7.34967 6.75337 7.30945C6.85172 7.26923 6.95713 7.24854 7.06359 7.24854H16.2002C16.3066 7.24854 16.412 7.26923 16.5104 7.30945C16.6087 7.34967 16.6981 7.40861 16.7734 7.48292C16.8487 7.55723 16.9084 7.64545 16.9491 7.74254C16.9899 7.83963 17.0108 7.9437 17.0108 8.04879C17.0108 8.15388 16.9899 8.25794 16.9491 8.35503C16.9084 8.45212 16.8487 8.54034 16.7734 8.61465C16.6981 8.68896 16.6087 8.7479 16.5104 8.78812C16.412 8.82834 16.3066 8.84904 16.2002 8.84904Z" fill="#FFED78"/>
</g>
</g>
</svg>
