<svg width="28" height="22" viewBox="0 0 28 22" xmlns="http://www.w3.org/2000/svg">
<path fill-rule="evenodd" clip-rule="evenodd" d="M8.06353 0.0848227C8.18955 0.0324925 8.32423 0.00384839 8.46074 0.000340743C8.9986 -0.0129 9.46791 0.361095 9.5724 0.886217C9.67689 1.41134 9.3862 1.93504 8.88384 2.12671C8.88384 2.12671 7.31801 2.73373 5.63138 4.70555C4.51106 6.01529 3.37307 7.90714 2.73294 10.6221C3.77321 9.91537 5.0035 9.53712 6.26316 9.53677C9.72221 9.53677 12.5263 12.3268 12.5263 15.7684C12.5263 19.21 9.72221 22 6.26316 22C4.56753 21.9978 2.94524 21.3117 1.76704 20.0984C0.588836 18.8851 -0.04459 17.2484 0.0115169 15.5622C0.00375178 15.5091 -9.62162e-05 15.4555 1.82704e-06 15.4018C1.82704e-06 9.48356 1.95 5.61471 3.94758 3.27938C5.94515 0.944057 8.06353 0.0848227 8.06353 0.0848227ZM23.5372 0.0848227C23.6632 0.0324925 23.7979 0.00384839 23.9344 0.000340743C24.4723 -0.0129 24.9416 0.361095 25.0461 0.886217C25.1506 1.41134 24.8599 1.93504 24.3575 2.12671C24.3575 2.12671 22.7917 2.73373 21.1051 4.70555C19.9847 6.01529 18.8468 7.90714 18.2066 10.6221C19.2469 9.91537 20.4772 9.53712 21.7368 9.53677C25.1959 9.53677 28 12.3268 28 15.7684C28 19.21 25.1959 22 21.7368 22C20.0412 21.9978 18.4189 21.3117 17.2407 20.0984C16.0625 18.8851 15.4291 17.2484 15.4852 15.5622C15.4774 15.5091 15.4736 15.4555 15.4737 15.4018C15.4737 9.48356 17.4237 5.61471 19.4213 3.27938C21.4188 0.944057 23.5372 0.0848227 23.5372 0.0848227Z" fill="#fff"/>
</svg>
