<svg width="28" height="28" viewBox="0 0 28 28" fill="none" xmlns="http://www.w3.org/2000/svg">
<path fill-rule="evenodd" clip-rule="evenodd" d="M1.0111 0.000729267C0.672064 0.0133618 0.360019 0.189007 0.173332 0.472293C-0.0133544 0.75558 -0.0516822 1.11161 0.0704316 1.42814L3.9206 11.3694C4.05543 11.7164 4.36389 11.9661 4.73137 12.0257L15.1908 13.7238C15.4514 13.766 15.426 13.8413 15.426 14C15.426 14.1587 15.4514 14.2339 15.1908 14.2762L4.73137 15.9743C4.36389 16.0339 4.05543 16.2836 3.9206 16.6306L0.0704316 26.5718C-0.085548 26.9761 0.0228213 27.4347 0.343274 27.7264C0.663727 28.0181 1.13045 28.083 1.51835 27.8899L27.4195 14.9393C27.7753 14.7614 28 14.3978 28 14C28 13.6022 27.7753 13.2386 27.4195 13.0607L1.51835 0.110109C1.36107 0.0317913 1.18667 -0.00581676 1.0111 0.000729267Z" fill="url(#paint0_linear_150_6261)"/>
<defs>
<linearGradient id="paint0_linear_150_6261" x1="-12.2116" y1="13.1182" x2="14.0248" y2="39.7996" gradientUnits="userSpaceOnUse">
<stop stop-color="#0B00D8"/>
<stop offset="1" stop-color="#0500AF"/>
</linearGradient>
</defs>
</svg>
