<svg width="20" height="20" viewBox="0 0 20 20" fill="none" xmlns="http://www.w3.org/2000/svg">
<path d="M10 1.66666C5.40502 1.66666 1.66669 5.40499 1.66669 9.99999C1.66669 14.595 5.40502 18.3333 10 18.3333C14.595 18.3333 18.3334 14.595 18.3334 9.99999C18.3334 5.40499 14.595 1.66666 10 1.66666ZM13.5671 8.56707L9.40044 12.7337C9.27835 12.8558 9.11835 12.9167 8.95835 12.9167C8.79835 12.9167 8.63835 12.8558 8.51627 12.7337L6.43294 10.6504C6.18877 10.4062 6.18877 10.0108 6.43294 9.76666C6.6771 9.52249 7.07252 9.52249 7.31669 9.76666L8.95794 11.4079L12.6825 7.68332C12.9267 7.43916 13.3221 7.43916 13.5663 7.68332C13.8104 7.92749 13.8109 8.32291 13.5671 8.56707Z" fill="white"/>
</svg>
