<svg width="22" height="22" viewBox="0 0 22 22" fill="none" xmlns="http://www.w3.org/2000/svg">
<circle cx="11" cy="11" r="11" fill="#D3D0EC"/>
<path d="M14.7378 13C15.1315 13 15.5091 13.158 15.7874 13.4392C16.0658 13.7203 16.2222 14.1017 16.2222 14.4994V15.1114C16.2223 15.4939 16.1039 15.8668 15.8836 16.178C14.8639 17.62 13.1974 18.3334 10.9402 18.3334C8.68234 18.3334 7.01716 17.6187 5.99944 16.176C5.78041 15.8654 5.66274 15.4934 5.66284 15.112V14.4987C5.66302 14.1014 5.8193 13.7204 6.09736 13.4394C6.37542 13.1584 6.75253 13.0004 7.14586 13H14.7378ZM10.9402 5.00269C11.8154 5.00269 12.6548 5.35388 13.2737 5.979C13.8925 6.60412 14.2402 7.45196 14.2402 8.33602C14.2402 9.22007 13.8925 10.0679 13.2737 10.693C12.6548 11.3182 11.8154 11.6694 10.9402 11.6694C10.065 11.6694 9.22562 11.3182 8.60675 10.693C7.98788 10.0679 7.6402 9.22007 7.6402 8.33602C7.6402 7.45196 7.98788 6.60412 8.60675 5.979C9.22562 5.35388 10.065 5.00269 10.9402 5.00269Z" fill="#7B77A2"/>
</svg>
