<svg width="19" height="19" viewBox="0 0 19 19" fill="none" xmlns="http://www.w3.org/2000/svg">
<circle cx="9.5" cy="9.5" r="8.5" fill="url(#paint0_linear_489_1322)" stroke="white" stroke-width="2"/>
<path d="M11.7538 12.5357C11.6305 12.5357 11.521 12.4605 11.4834 12.3498L10.929 10.7241L9.20476 10.2014C9.08733 10.1659 9.0076 10.0627 9.0076 9.94643C9.0076 9.83018 9.08733 9.72696 9.20476 9.69143L10.929 9.16875L11.4834 7.54304C11.521 7.43232 11.6305 7.35714 11.7538 7.35714C11.8771 7.35714 11.9866 7.43232 12.0243 7.54304L12.5786 9.16875L14.3029 9.69143C14.4203 9.72696 14.5 9.83018 14.5 9.94643C14.5 10.0627 14.4203 10.1659 14.3029 10.2014L12.5786 10.7241L12.0243 12.3498C11.9866 12.4605 11.8771 12.5357 11.7538 12.5357ZM8.06063 9.32143C7.93828 9.32143 7.82976 9.24768 7.79112 9.13839L7.43354 8.12696L6.36082 7.78982C6.24491 7.75339 6.16669 7.65107 6.16669 7.53571C6.16669 7.42036 6.24491 7.31804 6.36082 7.28161L7.43354 6.94446L7.79112 5.93304C7.82976 5.82375 7.93828 5.75 8.06063 5.75C8.18297 5.75 8.2915 5.82375 8.33013 5.93304L8.68771 6.94446L9.76044 7.28161C9.87635 7.31804 9.95457 7.42036 9.95457 7.53571C9.95457 7.65107 9.87635 7.75339 9.76044 7.78982L8.68771 8.12696L8.33013 9.13839C8.2915 9.24768 8.18297 9.32143 8.06063 9.32143ZM7.77654 13.25C7.65419 13.25 7.54566 13.1762 7.50703 13.067L7.22029 12.2564L6.36082 11.9863C6.24491 11.9498 6.16669 11.8475 6.16669 11.7321C6.16669 11.6168 6.24491 11.5145 6.36082 11.478L7.22029 11.2079L7.50703 10.3973C7.54566 10.288 7.65419 10.2143 7.77654 10.2143C7.89888 10.2143 8.00741 10.288 8.04604 10.3973L8.3326 11.2079L9.19226 11.478C9.30816 11.5145 9.38638 11.6168 9.38638 11.7321C9.38638 11.8475 9.30816 11.9498 9.19226 11.9863L8.3326 12.2564L8.04604 13.067C8.00741 13.1762 7.89888 13.25 7.77654 13.25Z" fill="white"/>
<defs>
<linearGradient id="paint0_linear_489_1322" x1="2" y1="17.9413" x2="21.6282" y2="9.94769" gradientUnits="userSpaceOnUse">
<stop stop-color="#682D8C"/>
<stop offset="1" stop-color="#EB1E79"/>
</linearGradient>
</defs>
</svg>
