<svg width="32" height="32" viewBox="0 0 32 32" fill="none" xmlns="http://www.w3.org/2000/svg">
<g clip-path="url(#clip0_1589_13719)">
<path d="M23.3332 32.0001C18.5545 32.0001 14.6665 28.1121 14.6665 23.3334C14.6665 18.5547 18.5545 14.6667 23.3332 14.6667C28.1118 14.6667 31.9998 18.5547 31.9998 23.3334C31.9998 28.1121 28.1118 32.0001 23.3332 32.0001ZM23.3332 16.0001C19.2892 16.0001 15.9998 19.2907 15.9998 23.3334C15.9998 27.3761 19.2892 30.6667 23.3332 30.6667C27.3772 30.6667 30.6665 27.3761 30.6665 23.3334C30.6665 19.2907 27.3772 16.0001 23.3332 16.0001Z" fill="#0C1207"/>
<path d="M23.3332 27.9999C22.9652 27.9999 22.6665 27.7013 22.6665 27.3333V21.9999C22.6665 21.6319 22.9652 21.3333 23.3332 21.3333C23.7012 21.3333 23.9998 21.6319 23.9998 21.9999V27.3333C23.9998 27.7013 23.7012 27.9999 23.3332 27.9999Z" fill="#0C1207"/>
<path d="M23.3332 20.0001C23.7014 20.0001 23.9998 19.7016 23.9998 19.3334C23.9998 18.9652 23.7014 18.6667 23.3332 18.6667C22.965 18.6667 22.6665 18.9652 22.6665 19.3334C22.6665 19.7016 22.965 20.0001 23.3332 20.0001Z" fill="#0C1207"/>
<path d="M12.6667 28H3.33333C1.496 28 0 26.5053 0 24.6667V7.33333C0 5.49467 1.496 4 3.33333 4H6C6.368 4 6.66667 4.29867 6.66667 4.66667C6.66667 5.03467 6.368 5.33333 6 5.33333H3.33333C2.23067 5.33333 1.33333 6.23067 1.33333 7.33333V24.6667C1.33333 25.7693 2.23067 26.6667 3.33333 26.6667H12.6667C13.0347 26.6667 13.3333 26.9653 13.3333 27.3333C13.3333 27.7013 13.0347 28 12.6667 28Z" fill="#0C1207"/>
<path d="M15.3335 8H7.3335C6.23083 8 5.3335 7.10267 5.3335 6V3.33333C5.3335 2.96533 5.63216 2.66667 6.00016 2.66667H8.06683C8.3775 1.14667 9.72283 0 11.3335 0C12.9442 0 14.2895 1.14667 14.6002 2.66667H16.6668C17.0348 2.66667 17.3335 2.96533 17.3335 3.33333V6C17.3335 7.10267 16.4362 8 15.3335 8ZM6.66683 4V6C6.66683 6.36667 6.9655 6.66667 7.3335 6.66667H15.3335C15.7015 6.66667 16.0002 6.36667 16.0002 6V4H14.0002C13.6322 4 13.3335 3.70133 13.3335 3.33333C13.3335 2.23067 12.4362 1.33333 11.3335 1.33333C10.2308 1.33333 9.3335 2.23067 9.3335 3.33333C9.3335 3.70133 9.03483 4 8.66683 4H6.66683Z" fill="#0C1207"/>
<path d="M18 12.0001H4.66667C4.29867 12.0001 4 11.7014 4 11.3334C4 10.9654 4.29867 10.6667 4.66667 10.6667H18C18.368 10.6667 18.6667 10.9654 18.6667 11.3334C18.6667 11.7014 18.368 12.0001 18 12.0001Z" fill="#0C1207"/>
<path d="M14 16.0001H4.66667C4.29867 16.0001 4 15.7014 4 15.3334C4 14.9654 4.29867 14.6667 4.66667 14.6667H14C14.368 14.6667 14.6667 14.9654 14.6667 15.3334C14.6667 15.7014 14.368 16.0001 14 16.0001Z" fill="#0C1207"/>
<path d="M11.3333 20.0001H4.66667C4.29867 20.0001 4 19.7014 4 19.3334C4 18.9654 4.29867 18.6667 4.66667 18.6667H11.3333C11.7013 18.6667 12 18.9654 12 19.3334C12 19.7014 11.7013 20.0001 11.3333 20.0001Z" fill="#0C1207"/>
<path d="M22 12C21.632 12 21.3333 11.7013 21.3333 11.3333V7.33333C21.3333 6.23067 20.436 5.33333 19.3333 5.33333H16.6667C16.2987 5.33333 16 5.03467 16 4.66667C16 4.29867 16.2987 4 16.6667 4H19.3333C21.1707 4 22.6667 5.49467 22.6667 7.33333V11.3333C22.6667 11.7013 22.368 12 22 12Z" fill="#0C1207"/>
</g>
<defs>
<clipPath id="clip0_1589_13719">
<rect width="32" height="32" fill="white"/>
</clipPath>
</defs>
</svg>
