<svg width="69" height="69" viewBox="0 0 69 69" fill="none" xmlns="http://www.w3.org/2000/svg">
<rect width="69" height="69" rx="20" fill="url(#paint0_linear_4586_3788)"/>
<path d="M42.9375 47.4583C42.4222 47.4583 41.9646 47.125 41.807 46.6342L39.4898 39.4269L32.2825 37.1097C31.7917 36.9521 31.4584 36.4945 31.4584 35.9792C31.4584 35.4638 31.7917 35.0062 32.2825 34.8487L39.4898 32.5315L41.807 25.3241C41.9646 24.8333 42.4222 24.5 42.9375 24.5C43.4529 24.5 43.9105 24.8333 44.068 25.3241L46.3852 32.5315L53.5926 34.8487C54.0834 35.0062 54.4167 35.4638 54.4167 35.9792C54.4167 36.4945 54.0834 36.9521 53.5926 37.1097L46.3852 39.4269L44.068 46.6342C43.9105 47.125 43.4529 47.4583 42.9375 47.4583ZM27.5 33.2083C26.9886 33.2083 26.535 32.8814 26.3735 32.3969L24.8788 27.9129L20.3948 26.4182C19.9103 26.2567 19.5834 25.8031 19.5834 25.2917C19.5834 24.7803 19.9103 24.3266 20.3948 24.1651L24.8788 22.6705L26.3735 18.1865C26.535 17.702 26.9886 17.375 27.5 17.375C28.0115 17.375 28.4651 17.702 28.6266 18.1865L30.1212 22.6705L34.6052 24.1651C35.0897 24.3266 35.4167 24.7803 35.4167 25.2917C35.4167 25.8031 35.0897 26.2567 34.6052 26.4182L30.1212 27.9129L28.6266 32.3969C28.4651 32.8814 28.0115 33.2083 27.5 33.2083ZM26.3125 50.625C25.8011 50.625 25.3475 50.298 25.186 49.8135L23.9874 46.2202L20.3948 45.0224C19.9103 44.8609 19.5834 44.4073 19.5834 43.8958C19.5834 43.3844 19.9103 42.9308 20.3948 42.7693L23.9874 41.5715L25.186 37.9781C25.3475 37.4936 25.8011 37.1667 26.3125 37.1667C26.824 37.1667 27.2776 37.4936 27.4391 37.9781L28.6369 41.5715L32.2302 42.7693C32.7147 42.9308 33.0417 43.3844 33.0417 43.8958C33.0417 44.4073 32.7147 44.8609 32.2302 45.0224L28.6369 46.2202L27.4391 49.8135C27.2776 50.298 26.824 50.625 26.3125 50.625Z" fill="white"/>
<defs>
<linearGradient id="paint0_linear_4586_3788" x1="-1.52473e-06" y1="73.33" x2="90.2897" y2="36.5594" gradientUnits="userSpaceOnUse">
<stop stop-color="#682D8C"/>
<stop offset="1" stop-color="#EB1E79"/>
</linearGradient>
</defs>
</svg>
