<svg width="166" height="28" viewBox="0 0 166 28" fill="none" xmlns="http://www.w3.org/2000/svg">
<path d="M56.278 17.568H63.22V21H52.69V2.8H56.278V17.568ZM75.9523 19.388C74.6176 20.7053 72.9883 21.364 71.0643 21.364C69.1403 21.364 67.511 20.7053 66.1763 19.388C64.859 18.0533 64.2003 16.424 64.2003 14.5C64.2003 12.576 64.859 10.9553 66.1763 9.638C67.511 8.30333 69.1403 7.636 71.0643 7.636C72.9883 7.636 74.6176 8.30333 75.9523 9.638C77.287 10.9553 77.9543 12.576 77.9543 14.5C77.9543 16.424 77.287 18.0533 75.9523 19.388ZM68.5423 17.074C69.2183 17.75 70.059 18.088 71.0643 18.088C72.0696 18.088 72.9103 17.75 73.5863 17.074C74.2623 16.398 74.6003 15.54 74.6003 14.5C74.6003 13.46 74.2623 12.602 73.5863 11.926C72.9103 11.25 72.0696 10.912 71.0643 10.912C70.059 10.912 69.2183 11.25 68.5423 11.926C67.8836 12.602 67.5543 13.46 67.5543 14.5C67.5543 15.54 67.8836 16.398 68.5423 17.074ZM90.2997 8H93.5757V20.376C93.5757 22.3867 92.9083 23.9207 91.5737 24.978C90.2563 26.0353 88.6617 26.564 86.7897 26.564C85.3857 26.564 84.1463 26.2953 83.0717 25.758C82.0143 25.2207 81.1997 24.432 80.6277 23.392L83.4877 21.754C84.1463 22.9673 85.2817 23.574 86.8937 23.574C87.951 23.574 88.783 23.2967 89.3897 22.742C89.9963 22.1873 90.2997 21.3987 90.2997 20.376V18.972C89.3117 20.2893 87.925 20.948 86.1397 20.948C84.3023 20.948 82.7597 20.3067 81.5117 19.024C80.281 17.724 79.6657 16.1467 79.6657 14.292C79.6657 12.4547 80.2897 10.886 81.5377 9.586C82.7857 8.286 84.3197 7.636 86.1397 7.636C87.925 7.636 89.3117 8.29467 90.2997 9.612V8ZM84.0337 16.866C84.727 17.5247 85.6023 17.854 86.6597 17.854C87.717 17.854 88.5837 17.5247 89.2597 16.866C89.953 16.19 90.2997 15.332 90.2997 14.292C90.2997 13.2693 89.953 12.4287 89.2597 11.77C88.5837 11.094 87.717 10.756 86.6597 10.756C85.6023 10.756 84.727 11.094 84.0337 11.77C83.3577 12.4287 83.0197 13.2693 83.0197 14.292C83.0197 15.332 83.3577 16.19 84.0337 16.866ZM107.721 19.388C106.386 20.7053 104.757 21.364 102.833 21.364C100.909 21.364 99.2796 20.7053 97.9449 19.388C96.6276 18.0533 95.9689 16.424 95.9689 14.5C95.9689 12.576 96.6276 10.9553 97.9449 9.638C99.2796 8.30333 100.909 7.636 102.833 7.636C104.757 7.636 106.386 8.30333 107.721 9.638C109.056 10.9553 109.723 12.576 109.723 14.5C109.723 16.424 109.056 18.0533 107.721 19.388ZM100.311 17.074C100.987 17.75 101.828 18.088 102.833 18.088C103.838 18.088 104.679 17.75 105.355 17.074C106.031 16.398 106.369 15.54 106.369 14.5C106.369 13.46 106.031 12.602 105.355 11.926C104.679 11.25 103.838 10.912 102.833 10.912C101.828 10.912 100.987 11.25 100.311 11.926C99.6522 12.602 99.3229 13.46 99.3229 14.5C99.3229 15.54 99.6522 16.398 100.311 17.074ZM119.267 11.224H116.329V16.632C116.329 17.0827 116.442 17.412 116.667 17.62C116.892 17.828 117.222 17.9493 117.655 17.984C118.088 18.0013 118.626 17.9927 119.267 17.958V21C116.962 21.26 115.332 21.0433 114.379 20.35C113.443 19.6567 112.975 18.4173 112.975 16.632V11.224H110.713V8H112.975V5.374L116.329 4.36V8H119.267V11.224ZM130.415 8H134.003L129.271 21C128.595 22.872 127.694 24.224 126.567 25.056C125.458 25.9053 124.071 26.2867 122.407 26.2V23.08C123.308 23.0973 124.019 22.9067 124.539 22.508C125.076 22.1093 125.501 21.468 125.813 20.584L120.483 8H124.149L127.529 16.736L130.415 8ZM143.193 7.636C144.944 7.636 146.434 8.30333 147.665 9.638C148.913 10.9553 149.537 12.576 149.537 14.5C149.537 16.424 148.913 18.0533 147.665 19.388C146.434 20.7053 144.944 21.364 143.193 21.364C141.373 21.364 139.969 20.7313 138.981 19.466V26.2H135.627V8H138.981V9.534C139.969 8.26867 141.373 7.636 143.193 7.636ZM139.995 17.152C140.671 17.828 141.529 18.166 142.569 18.166C143.609 18.166 144.467 17.828 145.143 17.152C145.836 16.4587 146.183 15.5747 146.183 14.5C146.183 13.4253 145.836 12.55 145.143 11.874C144.467 11.1807 143.609 10.834 142.569 10.834C141.529 10.834 140.671 11.1807 139.995 11.874C139.319 12.55 138.981 13.4253 138.981 14.5C138.981 15.5747 139.319 16.4587 139.995 17.152ZM154.764 15.878C155.215 17.5073 156.437 18.322 158.43 18.322C159.713 18.322 160.684 17.8887 161.342 17.022L164.046 18.582C162.764 20.4367 160.874 21.364 158.378 21.364C156.229 21.364 154.504 20.714 153.204 19.414C151.904 18.114 151.254 16.476 151.254 14.5C151.254 12.5413 151.896 10.912 153.178 9.612C154.461 8.29467 156.108 7.636 158.118 7.636C160.025 7.636 161.594 8.29467 162.824 9.612C164.072 10.9293 164.696 12.5587 164.696 14.5C164.696 14.9333 164.653 15.3927 164.566 15.878H154.764ZM154.712 13.278H161.342C161.152 12.394 160.753 11.7353 160.146 11.302C159.557 10.8687 158.881 10.652 158.118 10.652C157.217 10.652 156.472 10.886 155.882 11.354C155.293 11.8047 154.903 12.446 154.712 13.278Z" fill="#121432"/>
<path d="M6.38748 0.621002L0.295554 10.5574C-0.11846 11.2375 0.354699 12.0951 1.15316 12.0951H4.22869V16.0578C4.22869 21.233 8.39841 25.4323 13.5736 25.4323C14.2242 25.4323 14.5791 24.6338 14.1355 24.1607L13.0117 22.9482C11.2374 21.026 10.2319 18.4828 10.2319 15.8508V12.0655H13.3074C14.0763 12.0655 14.5791 11.2079 14.165 10.5278L8.10268 0.621002C7.71824 -0.0295919 6.77192 -0.0295919 6.38748 0.621002Z" fill="#FFC01C"/>
<path d="M16.3311 3.07548L17.4549 4.28795C19.2292 6.21016 20.2347 8.75339 20.2347 11.3853V15.141H17.1296C16.3607 15.141 15.858 15.9986 16.272 16.6788L22.3639 26.6152C22.7483 27.2658 23.6947 27.2658 24.0791 26.6152L30.171 16.6492C30.585 15.9691 30.1119 15.1115 29.3134 15.1115H26.2379V11.1488C26.2379 5.97358 22.0682 1.77429 16.893 1.77429C16.2128 1.77429 15.858 2.57275 16.3311 3.07548Z" fill="#6672FB"/>
</svg>
