<svg width="258" height="81" viewBox="0 0 258 81" fill="none" xmlns="http://www.w3.org/2000/svg">
<path fill-rule="evenodd" clip-rule="evenodd" d="M10.4868 69.629V76.2746C10.4868 76.7994 10.5915 77.295 10.802 77.7594C10.9969 78.2249 11.282 78.6448 11.6275 78.9889C11.9716 79.3342 12.3915 79.6193 12.857 79.8142C13.3225 80.0246 13.817 80.1293 14.3416 80.1293C14.8672 80.1293 15.3773 80.0247 15.8417 79.8298C16.3072 79.6349 16.7115 79.3497 17.057 79.0045C17.4022 78.6593 17.6873 78.2394 17.8967 77.775C18.0916 77.3095 18.1974 76.815 18.1974 76.2746V69.629H16.4721V76.259C16.4721 76.5599 16.4119 76.845 16.3072 77.099C16.1869 77.354 16.0366 77.579 15.8417 77.775C15.6468 77.9699 15.4218 78.1347 15.1668 78.2394C14.9118 78.3441 14.6267 78.4042 14.3416 78.3898C14.0275 78.3898 13.7424 78.3296 13.4874 78.2093C13.2167 78.0891 12.9917 77.9242 12.8124 77.7293C12.6175 77.5344 12.4817 77.3094 12.377 77.0544C12.2723 76.7994 12.2122 76.5441 12.2122 76.259L12.2275 69.629H10.4877H10.4868ZM28.1109 69.629H23.491V80.1293H25.2162V76.3347H28.1109C28.5764 76.3347 29.0107 76.2446 29.4161 76.0641C29.8215 75.8993 30.1656 75.6598 30.4808 75.3447C30.7815 75.044 31.0209 74.6843 31.2014 74.2789C31.3662 73.8746 31.4564 73.4547 31.4564 72.9892C31.4564 72.5248 31.3662 72.0893 31.2014 71.6851C31.0209 71.2795 30.7815 70.9197 30.4808 70.6046C30.1656 70.3039 29.8215 70.0644 29.4161 69.884C29.0107 69.7192 28.5764 69.629 28.1109 69.629ZM28.1109 74.6096H25.2162V71.3541H28.1109C28.3358 71.3541 28.5463 71.4 28.7412 71.4744C28.9361 71.5648 29.1009 71.6851 29.2513 71.8343C29.4005 71.9847 29.5208 72.1495 29.611 72.3444C29.6856 72.5393 29.7313 72.7643 29.7313 72.9892C29.7313 73.2142 29.6856 73.4091 29.611 73.604C29.5208 73.8 29.4005 73.9793 29.2513 74.1296C29.1009 74.2789 28.9361 74.3992 28.7412 74.4749C28.5463 74.564 28.3358 74.6096 28.1109 74.6096ZM38.0096 78.3898V69.629H36.2856V80.1293H43.9806V78.3898H38.0096ZM52.6498 69.629C51.9749 69.629 51.3301 69.7648 50.7443 70.0199C50.1451 70.2749 49.6195 70.6346 49.1851 71.069C48.7352 71.5189 48.3741 72.0448 48.1191 72.6295C47.8641 73.2298 47.7293 73.8746 47.7293 74.5495V75.2088C47.7293 75.8848 47.8641 76.5296 48.1191 77.1146C48.3741 77.7148 48.7352 78.2394 49.1851 78.6749C49.6195 79.1248 50.1451 79.4845 50.7443 79.7395C51.3301 79.9946 51.9749 80.1293 52.6498 80.1293C53.3247 80.1293 53.9698 79.9946 54.5701 79.7395C55.1548 79.4845 55.6793 79.1248 56.1292 78.6749C56.5647 78.2394 56.9244 77.7148 57.1795 77.1146C57.4345 76.5296 57.5693 75.8848 57.5693 75.2088V74.5495C57.5693 73.8746 57.4345 73.2298 57.1795 72.6295C56.9244 72.0448 56.5647 71.5189 56.1292 71.069C55.6793 70.6346 55.1548 70.2749 54.5701 70.0199C53.9698 69.7648 53.3247 69.629 52.6498 69.629ZM55.8297 74.5495V75.2088C55.8297 75.6443 55.7395 76.0641 55.5747 76.4394C55.4098 76.8294 55.1848 77.1747 54.8997 77.4598C54.6146 77.7449 54.2694 77.9699 53.8952 78.1347C53.504 78.2995 53.0842 78.3898 52.6498 78.3898C52.2144 78.3898 51.7945 78.2995 51.4192 78.1347C51.0294 77.9699 50.6842 77.7449 50.4002 77.4598C50.1151 77.1747 49.8745 76.8294 49.7097 76.4394C49.5448 76.0641 49.4547 75.6443 49.4547 75.2088V74.5495C49.4547 74.114 49.5448 73.6942 49.7097 73.3044C49.8745 72.9291 50.1151 72.5849 50.4002 72.2998C50.6842 72.0147 51.0294 71.7742 51.4192 71.6091C51.7945 71.4443 52.2144 71.3541 52.6498 71.3541C53.0842 71.3541 53.504 71.4443 53.8952 71.6091C54.2694 71.7742 54.6146 72.0147 54.8997 72.2998C55.1848 72.5849 55.4098 72.9291 55.5747 73.3044C55.7395 73.6942 55.8297 74.114 55.8297 74.5495ZM72.1638 80.1293L70.1536 75.749L67.319 69.629H65.879L62.5043 76.9497L62.0688 77.8641L61.0342 80.1293H62.9386L63.8385 78.1948H69.3582L70.2594 80.1293H72.1638ZM68.5641 76.4695H64.6339L65.174 75.269L66.5985 72.194L68.5641 76.4695ZM80.8333 69.629H76.5877V80.1293H80.8333C81.5828 80.1293 82.2432 79.979 82.7978 79.6794C83.3525 79.3798 83.8325 78.9744 84.2078 78.4799C84.5831 77.9844 84.8682 77.4297 85.0633 76.7994C85.2582 76.1688 85.3484 75.524 85.3484 74.8647C85.3484 74.2198 85.2582 73.5739 85.0776 72.9446C84.8827 72.3143 84.6132 71.7597 84.2378 71.2639C83.8625 70.7694 83.3825 70.3796 82.8279 70.0789C82.2577 69.7793 81.5984 69.629 80.8333 69.629ZM80.9235 78.3898H78.3284V71.3541H80.9235C81.5227 71.3541 82.0183 71.5189 82.4226 71.8644C82.8134 72.2096 83.113 72.644 83.3079 73.1696C83.5028 73.6942 83.6075 74.2644 83.6075 74.8647C83.5922 75.4794 83.4883 76.0341 83.2934 76.5599C83.0985 77.0845 82.7979 77.52 82.4081 77.8641C82.0027 78.2093 81.5082 78.3898 80.9235 78.3898ZM91.8727 80.1293V69.629H90.1474V80.1293H91.8727ZM99.3113 80.1293V72.8545L104.756 80.1293H106.242V69.629H104.501V76.9041L99.0563 69.629H97.5717V80.1293H99.3113ZM116.006 74.3691L115.991 76.1098H118.976C118.917 76.4539 118.797 76.7548 118.602 77.0399C118.407 77.3239 118.182 77.5645 117.911 77.7594C117.642 77.9543 117.341 78.1191 117.027 78.2249C116.696 78.3296 116.366 78.3898 116.037 78.3898C115.571 78.3898 115.137 78.2995 114.746 78.1046C114.342 77.9242 114.012 77.6848 113.727 77.3841C113.442 77.099 113.231 76.7548 113.082 76.3793C112.916 76.004 112.841 75.6142 112.841 75.2088V74.5339C112.841 74.0996 112.932 73.6942 113.096 73.3044C113.261 72.9291 113.502 72.5849 113.787 72.2998C114.071 72.0147 114.416 71.7742 114.806 71.6091C115.197 71.4443 115.601 71.3541 116.037 71.3541C116.517 71.3541 116.981 71.4588 117.431 71.6851C117.881 71.91 118.256 72.2096 118.541 72.5994L120.072 71.7441C119.847 71.4142 119.592 71.1146 119.291 70.8596C118.991 70.6046 118.662 70.3796 118.317 70.1847C117.971 70.0043 117.596 69.8695 117.206 69.7648C116.816 69.659 116.426 69.6145 116.037 69.6145C115.362 69.6145 114.717 69.7493 114.131 70.0043C113.532 70.2593 113.006 70.619 112.572 71.069C112.122 71.5189 111.761 72.0448 111.506 72.6295C111.251 73.2298 111.116 73.859 111.116 74.5339V75.1943C111.116 75.8692 111.251 76.4996 111.506 77.099C111.761 77.6993 112.106 78.2249 112.556 78.6592C112.992 79.1092 113.516 79.4689 114.117 79.724C114.717 79.979 115.362 80.1149 116.037 80.1149C116.666 80.1149 117.266 79.9946 117.837 79.7696C118.391 79.5446 118.901 79.2295 119.337 78.8241C119.771 78.4343 120.131 77.9699 120.416 77.4142C120.701 76.874 120.866 76.2891 120.926 75.6599C120.972 75.2845 120.972 75.0139 120.926 74.8647C120.881 74.7143 120.866 74.6096 120.866 74.564L120.85 74.3691H116.006H116.006ZM135.76 73.5449L134.679 74.6542V69.629H132.94V80.1293H134.679V77.2048L136.059 75.749L139.915 80.1293H142.225L137.244 74.4749L141.82 69.629H139.45L135.76 73.5449ZM148.539 80.1293V72.8545L153.984 80.1293H155.47V69.629H153.729V76.9041L148.284 69.629H146.799V80.1293H148.539ZM165.264 69.629C164.589 69.629 163.944 69.7648 163.358 70.0199C162.759 70.2749 162.233 70.6346 161.799 71.069C161.349 71.5189 160.988 72.0448 160.733 72.6295C160.478 73.2298 160.343 73.8746 160.343 74.5495V75.2088C160.343 75.8848 160.478 76.5296 160.733 77.1146C160.988 77.7148 161.349 78.2394 161.799 78.6749C162.233 79.1248 162.759 79.4845 163.358 79.7395C163.944 79.9946 164.589 80.1293 165.264 80.1293C165.939 80.1293 166.584 79.9946 167.184 79.7395C167.769 79.4845 168.293 79.1248 168.743 78.6749C169.179 78.2394 169.539 77.7148 169.794 77.1146C170.049 76.5296 170.183 75.8848 170.183 75.2088V74.5495C170.183 73.8746 170.049 73.2298 169.794 72.6295C169.539 72.0448 169.179 71.5189 168.743 71.069C168.293 70.6346 167.769 70.2749 167.184 70.0199C166.584 69.7648 165.939 69.629 165.264 69.629ZM168.444 74.5495V75.2088C168.444 75.6443 168.353 76.0641 168.189 76.4394C168.024 76.8294 167.799 77.1747 167.514 77.4598C167.229 77.7449 166.883 77.9699 166.509 78.1347C166.118 78.2995 165.698 78.3898 165.264 78.3898C164.829 78.3898 164.409 78.2995 164.033 78.1347C163.643 77.9699 163.298 77.7449 163.014 77.4598C162.729 77.1747 162.488 76.8294 162.324 76.4394C162.159 76.0641 162.069 75.6443 162.069 75.2088V74.5495C162.069 74.114 162.159 73.6942 162.324 73.3044C162.488 72.9291 162.729 72.5849 163.014 72.2998C163.298 72.0147 163.643 71.7742 164.033 71.6091C164.409 71.4443 164.829 71.3541 165.264 71.3541C165.698 71.3541 166.118 71.4443 166.509 71.6091C166.883 71.7742 167.229 72.0147 167.514 72.2998C167.799 72.5849 168.024 72.9291 168.189 73.3044C168.353 73.6942 168.444 74.114 168.444 74.5495ZM178.943 77.5043L175.493 69.629H173.618L178.222 80.1293H179.857L182.468 72.5694L185.078 80.1293H186.698L191.318 69.629H189.442L185.977 77.5043L183.263 69.629H181.658L178.943 77.5043ZM197.602 78.3898V69.629H195.878V80.1293H203.572V78.3898H197.602ZM210.291 74.0094V71.3541H216.247V69.629H208.552V80.1293H216.247V78.3898H210.291V75.749H215.572V74.0094H210.291ZM225.892 69.629H221.646V80.1293H225.892C226.641 80.1293 227.302 79.979 227.856 79.6794C228.411 79.3798 228.891 78.9744 229.266 78.4799C229.642 77.9844 229.927 77.4297 230.122 76.7994C230.317 76.1688 230.407 75.524 230.407 74.8647C230.407 74.2198 230.317 73.5739 230.136 72.9446C229.941 72.3143 229.672 71.7597 229.296 71.2639C228.921 70.7694 228.441 70.3796 227.887 70.0789C227.316 69.7793 226.657 69.629 225.892 69.629ZM225.982 78.3898H223.387V71.3541H225.982C226.581 71.3541 227.077 71.5189 227.481 71.8644C227.872 72.2096 228.172 72.644 228.367 73.1696C228.561 73.6942 228.666 74.2644 228.666 74.8647C228.651 75.4794 228.547 76.0341 228.352 76.5599C228.157 77.0845 227.856 77.52 227.467 77.8641C227.061 78.2093 226.567 78.3898 225.982 78.3898ZM240.111 74.3691L240.096 76.1098H243.08C243.021 76.4539 242.901 76.7548 242.706 77.0399C242.511 77.3239 242.286 77.5645 242.016 77.7594C241.746 77.9543 241.445 78.1191 241.131 78.2249C240.801 78.3296 240.471 78.3898 240.141 78.3898C239.676 78.3898 239.241 78.2995 238.85 78.1046C238.446 77.9242 238.116 77.6848 237.831 77.3841C237.546 77.099 237.336 76.7548 237.187 76.3793C237.021 76.004 236.946 75.6142 236.946 75.2088V74.5339C236.946 74.0996 237.036 73.6942 237.201 73.3044C237.366 72.9291 237.606 72.5849 237.892 72.2998C238.176 72.0147 238.521 71.7742 238.911 71.6091C239.301 71.4443 239.706 71.3541 240.141 71.3541C240.621 71.3541 241.086 71.4588 241.536 71.6851C241.986 71.91 242.361 72.2096 242.646 72.5994L244.176 71.7441C243.951 71.4142 243.696 71.1146 243.396 70.8596C243.096 70.6046 242.766 70.3796 242.421 70.1847C242.076 70.0043 241.7 69.8695 241.311 69.7648C240.921 69.659 240.531 69.6145 240.141 69.6145C239.466 69.6145 238.821 69.7493 238.236 70.0043C237.636 70.2593 237.111 70.619 236.676 71.069C236.226 71.5189 235.865 72.0448 235.61 72.6295C235.355 73.2298 235.221 73.859 235.221 74.5339V75.1943C235.221 75.8692 235.355 76.4996 235.61 77.099C235.865 77.6993 236.211 78.2249 236.661 78.6592C237.096 79.1092 237.621 79.4689 238.221 79.724C238.821 79.979 239.466 80.1149 240.141 80.1149C240.77 80.1149 241.371 79.9946 241.941 79.7696C242.496 79.5446 243.006 79.2295 243.441 78.8241C243.876 78.4343 244.235 77.9699 244.52 77.4142C244.806 76.874 244.97 76.2891 245.031 75.6599C245.076 75.2845 245.076 75.0139 245.031 74.8647C244.986 74.7143 244.97 74.6096 244.97 74.564L244.955 74.3691H240.11H240.111ZM251.659 74.0094V71.3541H257.614V69.629H249.92V80.1293H257.614V78.3898H251.659V75.749H256.94V74.0094H251.659Z" fill="white"/>
<path fill-rule="evenodd" clip-rule="evenodd" d="M33.7337 16.9805L42.5096 1.10017H60.0456L41.9752 32.7211L33.1191 18.0908L33.7337 16.9805Z" fill="white"/>
<path fill-rule="evenodd" clip-rule="evenodd" d="M56.9503 59.9517H42.8533L32.5786 42.3677L41.696 27.281L60.7904 59.9517H56.9503Z" fill="white"/>
<path fill-rule="evenodd" clip-rule="evenodd" d="M255.602 59.9517H220.188V1.10005H235.798V45.1974H257.808V59.9517H255.602Z" fill="white"/>
<path fill-rule="evenodd" clip-rule="evenodd" d="M214.927 59.9518H179.513V1.10017H195.123V45.1975H217.132V59.9518H214.927Z" fill="white"/>
<path fill-rule="evenodd" clip-rule="evenodd" d="M170.362 59.9518H156.958V1.10017H172.567V59.9518H170.362Z" fill="white"/>
<path fill-rule="evenodd" clip-rule="evenodd" d="M149.952 59.9517H135.412L122.875 39.2003L120.27 42.4863V59.9517H104.66V1.10005H120.27V20.2185L134.703 1.10005H153.734L133.569 26.4998L153.855 59.9517H149.952Z" fill="white"/>
<path fill-rule="evenodd" clip-rule="evenodd" d="M100.749 42.3479C100.749 47.994 98.8301 52.4653 94.9951 55.7616C91.2633 58.9685 86.4556 60.5735 80.5773 60.5735C76.68 60.5735 73.0116 59.9662 69.5798 58.7518C66.1416 57.5374 62.9598 55.7179 60.0414 53.2995L58.626 52.1268L65.749 39.4389L67.7664 40.997C69.9922 42.7155 72.169 43.9966 74.2896 44.8381C76.3321 45.6473 78.3526 46.0536 80.3439 46.0536C81.2699 46.0536 82.0605 45.9693 82.7104 45.8036C83.3019 45.6495 83.8019 45.4287 84.2029 45.1443C84.5268 44.9151 84.7621 44.6507 84.9059 44.3579C85.061 44.0414 85.1392 43.629 85.1392 43.1248C85.1392 42.6883 85.061 42.3031 84.907 41.975C84.7434 41.6249 84.4779 41.2906 84.1164 40.9761C83.6289 40.5585 82.8467 40.0585 81.7719 39.4815C80.619 38.8628 79.1265 38.1578 77.2976 37.3714C76.1706 36.8975 75.153 36.457 74.251 36.0519C73.3533 35.6445 72.5388 35.2602 71.818 34.8998C71.1003 34.5405 70.3631 34.1312 69.612 33.676C68.8695 33.2302 68.1207 32.7366 67.3646 32.2002C66.5501 31.6171 65.8418 31.0462 65.2481 30.4859C64.6002 29.8766 64.0451 29.2559 63.591 28.6288C63.1556 28.0279 62.7474 27.3405 62.3714 26.5719C62.0049 25.823 61.6851 25.0335 61.4143 24.2065C61.1298 23.3358 60.9143 22.4057 60.7738 21.4255C60.6331 20.4497 60.5622 19.4383 60.5622 18.3927C60.5622 15.7429 61.0288 13.3256 61.959 11.1446C62.8995 8.93971 64.3035 7.00872 66.1647 5.35472C68.0072 3.72683 70.1068 2.50321 72.4649 1.68763C74.7946 0.882573 77.3454 0.478302 80.1107 0.478302C83.506 0.478302 86.7109 0.957435 89.7188 1.91261C92.7424 2.87284 95.5285 4.30604 98.0718 6.20586L99.507 7.27758L93.308 20.4528L91.1946 19.0687C89.0731 17.6792 87.0826 16.6439 85.2351 15.9679C83.4654 15.3222 81.8094 14.9982 80.2669 14.9982C78.8004 14.9982 77.7131 15.2774 77.0059 15.8336C76.7122 16.0732 76.4956 16.3274 76.3663 16.595C76.2404 16.8794 76.1717 17.2198 76.1717 17.6157C76.1717 18.4926 76.4633 19.1541 77.0423 19.5915C77.5318 19.9611 78.3849 20.4611 79.5931 21.0859C80.8742 21.7475 82.5436 22.5431 84.5925 23.4649C90.1927 25.9698 94.236 28.5195 96.7148 31.1107C98.074 32.5345 99.0904 34.203 99.7633 36.1133C100.419 37.989 100.749 40.0649 100.749 42.3479Z" fill="white"/>
<path fill-rule="evenodd" clip-rule="evenodd" d="M24.1297 59.9518H7.87985L20.6104 37.7797H0.474609V23.1744H21.3656L8.4672 1.10017H26.4044L43.3011 30.0182L25.3702 59.9518H24.1297Z" fill="#EF4D53"/>
</svg>
