<svg width="17" height="17" viewBox="0 0 17 17" fill="none" xmlns="http://www.w3.org/2000/svg">
<path d="M8.5 0C3.808 0 0 3.808 0 8.5C0 13.192 3.808 17 8.5 17C13.192 17 17 13.192 17 8.5C17 3.808 13.192 0 8.5 0ZM6.1965 12.1465L3.145 9.095C2.8135 8.7635 2.8135 8.228 3.145 7.8965C3.4765 7.565 4.012 7.565 4.3435 7.8965L6.8 10.3445L12.648 4.4965C12.9795 4.165 13.515 4.165 13.8465 4.4965C14.178 4.828 14.178 5.3635 13.8465 5.695L7.395 12.1465C7.072 12.478 6.528 12.478 6.1965 12.1465Z" fill="#57BA3E"/>
</svg>
