<svg width="69" height="69" viewBox="0 0 69 69" fill="none" xmlns="http://www.w3.org/2000/svg">
<g clip-path="url(#clip0_1122_12649)">
<rect width="69" height="69" rx="19.7143" fill="#FFEBD8"/>
<g filter="url(#filter0_if_1122_12649)">
<path d="M59.8 -1.56073C59.8 32.3279 32.3279 59.8 -1.56067 59.8C-35.4493 59.8 -62.9214 32.3279 -62.9214 -1.56073C-62.9214 -35.4493 -35.4493 -62.9214 -1.56067 -62.9214C32.3279 -62.9214 59.8 -35.4493 59.8 -1.56073Z" fill="#F3F6FB"/>
</g>
<g filter="url(#filter1_if_1122_12649)">
<path d="M59.3071 34.5822C59.3071 44.6081 51.1795 52.7357 41.1536 52.7357C31.1276 52.7357 23 44.6081 23 34.5822C23 24.5562 31.1276 16.4286 41.1536 16.4286C51.1795 16.4286 59.3071 24.5562 59.3071 34.5822Z" fill="url(#paint0_radial_1122_12649)"/>
</g>
<g filter="url(#filter2_i_1122_12649)">
<path d="M54.3786 30.0643C54.3786 40.9522 45.5523 49.7786 34.6644 49.7786C23.7765 49.7786 14.9501 40.9522 14.9501 30.0643C14.9501 19.1764 23.7765 10.35 34.6644 10.35C45.5523 10.35 54.3786 19.1764 54.3786 30.0643Z" fill="url(#paint1_radial_1122_12649)"/>
</g>
<mask id="mask0_1122_12649" style="mask-type:alpha" maskUnits="userSpaceOnUse" x="14" y="10" width="41" height="40">
<path d="M54.3786 30.0643C54.3786 40.9522 45.5523 49.7786 34.6644 49.7786C23.7765 49.7786 14.9501 40.9522 14.9501 30.0643C14.9501 19.1764 23.7765 10.35 34.6644 10.35C45.5523 10.35 54.3786 19.1764 54.3786 30.0643Z" fill="#FFD88B"/>
</mask>
<g mask="url(#mask0_1122_12649)">
<g filter="url(#filter3_f_1122_12649)">
<path d="M54.6249 27.4357C54.6249 39.2763 45.0262 48.875 33.1856 48.875C21.345 48.875 11.7463 39.2763 11.7463 27.4357C11.7463 15.5951 21.345 5.99644 33.1856 5.99644C45.0262 5.99644 54.6249 15.5951 54.6249 27.4357Z" stroke="#EC5602" stroke-width="1.80714"/>
</g>
<g filter="url(#filter4_f_1122_12649)">
<path d="M57.3357 30.5571C57.3357 42.2616 47.8474 51.75 36.1429 51.75C24.4384 51.75 14.95 42.2616 14.95 30.5571C14.95 18.8527 24.4384 9.36429 36.1429 9.36429C47.8474 9.36429 57.3357 18.8527 57.3357 30.5571Z" stroke="white" stroke-width="0.985714"/>
</g>
</g>
<g filter="url(#filter5_i_1122_12649)">
<path d="M62.5929 49.3648C62.5929 54.5836 58.3523 58.8143 53.1193 58.8143H18.8391C11.8829 58.8143 6.24292 53.1895 6.24292 46.2482C6.24292 39.3089 11.8829 33.6821 18.8391 33.6821C19.463 33.6821 20.0762 33.7299 20.6774 33.8168C23.522 28.1814 29.3722 24.3143 36.1302 24.3143C44.3075 24.3143 51.158 29.9782 52.9577 37.5877C53.1373 38.3474 53.267 39.1258 53.3415 39.9187V39.9207C58.4693 40.0375 62.5929 44.2204 62.5929 49.3648Z" fill="url(#paint2_radial_1122_12649)"/>
</g>
<mask id="mask1_1122_12649" style="mask-type:alpha" maskUnits="userSpaceOnUse" x="6" y="24" width="57" height="35">
<path d="M62.5929 49.3648C62.5929 54.5836 58.3523 58.8143 53.1193 58.8143H18.8391C11.8829 58.8143 6.24292 53.1895 6.24292 46.2482C6.24292 39.3089 11.8829 33.6821 18.8391 33.6821C19.463 33.6821 20.0762 33.7299 20.6774 33.8168C23.522 28.1814 29.3722 24.3143 36.1302 24.3143C44.3075 24.3143 51.158 29.9782 52.9577 37.5877C53.1373 38.3474 53.267 39.1258 53.3415 39.9187V39.9207C58.4693 40.0375 62.5929 44.2204 62.5929 49.3648Z" fill="url(#paint3_radial_1122_12649)"/>
</mask>
<g mask="url(#mask1_1122_12649)">
<g filter="url(#filter6_f_1122_12649)">
<path d="M25.7223 46.4107C20.0709 45.9507 18.7128 37.6214 18.7402 33.5142C18.6087 32.9885 19.6711 33.1857 20.2188 33.35L22.6009 29.9C17.9352 41.9914 22.7652 46 25.7223 46.4107Z" fill="white"/>
</g>
<g filter="url(#filter7_f_1122_12649)">
<path d="M46.9858 49.8607C52.6372 49.4007 53.9953 41.0714 53.968 36.9643C54.0995 36.4385 53.037 36.6357 52.4893 36.8L50.1072 33.35C54.7729 45.4414 49.9429 49.45 46.9858 49.8607Z" fill="white"/>
</g>
<g filter="url(#filter8_f_1122_12649)">
<path d="M16.111 32.8399L16.7542 32.933L17.047 32.3526C20.0672 26.3663 26.2773 22.2607 33.4501 22.2607C42.1297 22.2607 49.4016 28.2756 51.3116 36.3552C51.4991 37.1488 51.6352 37.961 51.7148 38.7878V39.6303L52.5978 39.6505C57.8208 39.7695 62.0181 44.0323 62.0181 49.2706C62.0181 54.585 57.7015 58.8964 52.3709 58.8964H14.193C6.94318 58.8964 1.06812 53.0316 1.06812 45.7978C1.06812 38.566 6.94327 32.6991 14.193 32.6991C14.8415 32.6991 15.4811 32.7488 16.111 32.8399Z" stroke="#D7DFEB" stroke-width="1.80714"/>
</g>
<g filter="url(#filter9_f_1122_12649)">
<path d="M22.1896 32.8399L22.8329 32.933L23.1256 32.3526C26.1458 26.3663 32.3559 22.2607 39.5287 22.2607C48.2083 22.2607 55.4802 28.2756 57.3902 36.3552C57.5777 37.1488 57.7138 37.961 57.7934 38.7878V39.6303L58.6764 39.6505C63.8994 39.7695 68.0967 44.0323 68.0967 49.2706C68.0967 54.585 63.7801 58.8964 58.4496 58.8964H20.2716C13.0218 58.8964 7.14674 53.0316 7.14674 45.7978C7.14674 38.566 13.0219 32.6991 20.2716 32.6991C20.9201 32.6991 21.5597 32.7488 22.1896 32.8399Z" stroke="white" stroke-width="1.80714"/>
</g>
</g>
</g>
<defs>
<filter id="filter0_if_1122_12649" x="-85.9214" y="-85.9214" width="168.721" height="168.721" filterUnits="userSpaceOnUse" color-interpolation-filters="sRGB">
<feFlood flood-opacity="0" result="BackgroundImageFix"/>
<feBlend mode="normal" in="SourceGraphic" in2="BackgroundImageFix" result="shape"/>
<feColorMatrix in="SourceAlpha" type="matrix" values="0 0 0 0 0 0 0 0 0 0 0 0 0 0 0 0 0 0 127 0" result="hardAlpha"/>
<feOffset dy="1.66813"/>
<feGaussianBlur stdDeviation="9.17473"/>
<feComposite in2="hardAlpha" operator="arithmetic" k2="-1" k3="1"/>
<feColorMatrix type="matrix" values="0 0 0 0 1 0 0 0 0 1 0 0 0 0 1 0 0 0 1 0"/>
<feBlend mode="normal" in2="shape" result="effect1_innerShadow_1122_12649"/>
<feGaussianBlur stdDeviation="11.5" result="effect2_foregroundBlur_1122_12649"/>
</filter>
<filter id="filter1_if_1122_12649" x="9.2" y="2.62859" width="63.9071" height="63.9071" filterUnits="userSpaceOnUse" color-interpolation-filters="sRGB">
<feFlood flood-opacity="0" result="BackgroundImageFix"/>
<feBlend mode="normal" in="SourceGraphic" in2="BackgroundImageFix" result="shape"/>
<feColorMatrix in="SourceAlpha" type="matrix" values="0 0 0 0 0 0 0 0 0 0 0 0 0 0 0 0 0 0 127 0" result="hardAlpha"/>
<feOffset dy="0.657143"/>
<feGaussianBlur stdDeviation="3.61429"/>
<feComposite in2="hardAlpha" operator="arithmetic" k2="-1" k3="1"/>
<feColorMatrix type="matrix" values="0 0 0 0 1 0 0 0 0 1 0 0 0 0 1 0 0 0 1 0"/>
<feBlend mode="normal" in2="shape" result="effect1_innerShadow_1122_12649"/>
<feGaussianBlur stdDeviation="6.9" result="effect2_foregroundBlur_1122_12649"/>
</filter>
<filter id="filter2_i_1122_12649" x="14.9501" y="10.35" width="39.4286" height="40.0857" filterUnits="userSpaceOnUse" color-interpolation-filters="sRGB">
<feFlood flood-opacity="0" result="BackgroundImageFix"/>
<feBlend mode="normal" in="SourceGraphic" in2="BackgroundImageFix" result="shape"/>
<feColorMatrix in="SourceAlpha" type="matrix" values="0 0 0 0 0 0 0 0 0 0 0 0 0 0 0 0 0 0 127 0" result="hardAlpha"/>
<feOffset dy="0.657143"/>
<feGaussianBlur stdDeviation="3.61429"/>
<feComposite in2="hardAlpha" operator="arithmetic" k2="-1" k3="1"/>
<feColorMatrix type="matrix" values="0 0 0 0 1 0 0 0 0 1 0 0 0 0 1 0 0 0 1 0"/>
<feBlend mode="normal" in2="shape" result="effect1_innerShadow_1122_12649"/>
</filter>
<filter id="filter3_f_1122_12649" x="6.89992" y="1.15001" width="52.5714" height="52.5714" filterUnits="userSpaceOnUse" color-interpolation-filters="sRGB">
<feFlood flood-opacity="0" result="BackgroundImageFix"/>
<feBlend mode="normal" in="SourceGraphic" in2="BackgroundImageFix" result="shape"/>
<feGaussianBlur stdDeviation="1.97143" result="effect1_foregroundBlur_1122_12649"/>
</filter>
<filter id="filter4_f_1122_12649" x="13.4714" y="7.88572" width="45.3429" height="45.3429" filterUnits="userSpaceOnUse" color-interpolation-filters="sRGB">
<feFlood flood-opacity="0" result="BackgroundImageFix"/>
<feBlend mode="normal" in="SourceGraphic" in2="BackgroundImageFix" result="shape"/>
<feGaussianBlur stdDeviation="0.492857" result="effect1_foregroundBlur_1122_12649"/>
</filter>
<filter id="filter5_i_1122_12649" x="6.24292" y="24.3143" width="56.35" height="35.1571" filterUnits="userSpaceOnUse" color-interpolation-filters="sRGB">
<feFlood flood-opacity="0" result="BackgroundImageFix"/>
<feBlend mode="normal" in="SourceGraphic" in2="BackgroundImageFix" result="shape"/>
<feColorMatrix in="SourceAlpha" type="matrix" values="0 0 0 0 0 0 0 0 0 0 0 0 0 0 0 0 0 0 127 0" result="hardAlpha"/>
<feOffset dy="0.657143"/>
<feGaussianBlur stdDeviation="3.61429"/>
<feComposite in2="hardAlpha" operator="arithmetic" k2="-1" k3="1"/>
<feColorMatrix type="matrix" values="0 0 0 0 1 0 0 0 0 1 0 0 0 0 1 0 0 0 1 0"/>
<feBlend mode="normal" in2="shape" result="effect1_innerShadow_1122_12649"/>
</filter>
<filter id="filter6_f_1122_12649" x="16.7576" y="27.9285" width="10.9361" height="20.4536" filterUnits="userSpaceOnUse" color-interpolation-filters="sRGB">
<feFlood flood-opacity="0" result="BackgroundImageFix"/>
<feBlend mode="normal" in="SourceGraphic" in2="BackgroundImageFix" result="shape"/>
<feGaussianBlur stdDeviation="0.985714" result="effect1_foregroundBlur_1122_12649"/>
</filter>
<filter id="filter7_f_1122_12649" x="45.0144" y="31.3785" width="10.9361" height="20.4536" filterUnits="userSpaceOnUse" color-interpolation-filters="sRGB">
<feFlood flood-opacity="0" result="BackgroundImageFix"/>
<feBlend mode="normal" in="SourceGraphic" in2="BackgroundImageFix" result="shape"/>
<feGaussianBlur stdDeviation="0.985714" result="effect1_foregroundBlur_1122_12649"/>
</filter>
<filter id="filter8_f_1122_12649" x="-3.77831" y="17.4143" width="70.6428" height="46.3286" filterUnits="userSpaceOnUse" color-interpolation-filters="sRGB">
<feFlood flood-opacity="0" result="BackgroundImageFix"/>
<feBlend mode="normal" in="SourceGraphic" in2="BackgroundImageFix" result="shape"/>
<feGaussianBlur stdDeviation="1.97143" result="effect1_foregroundBlur_1122_12649"/>
</filter>
<filter id="filter9_f_1122_12649" x="2.30031" y="17.4143" width="70.6428" height="46.3286" filterUnits="userSpaceOnUse" color-interpolation-filters="sRGB">
<feFlood flood-opacity="0" result="BackgroundImageFix"/>
<feBlend mode="normal" in="SourceGraphic" in2="BackgroundImageFix" result="shape"/>
<feGaussianBlur stdDeviation="1.97143" result="effect1_foregroundBlur_1122_12649"/>
</filter>
<radialGradient id="paint0_radial_1122_12649" cx="0" cy="0" r="1" gradientUnits="userSpaceOnUse" gradientTransform="translate(46.8144 26.2862) rotate(121.811) scale(30.5506)">
<stop stop-color="#FFD88B"/>
<stop offset="1" stop-color="#FF6400"/>
</radialGradient>
<radialGradient id="paint1_radial_1122_12649" cx="0" cy="0" r="1" gradientUnits="userSpaceOnUse" gradientTransform="translate(40.8118 21.0551) rotate(121.811) scale(33.1771)">
<stop stop-color="#FFD88B"/>
<stop offset="1" stop-color="#FF5C00"/>
</radialGradient>
<radialGradient id="paint2_radial_1122_12649" cx="0" cy="0" r="1" gradientUnits="userSpaceOnUse" gradientTransform="translate(43.2037 33.6812) rotate(135.374) scale(35.118 39.1958)">
<stop stop-color="white"/>
<stop offset="1" stop-color="#D7DFEB"/>
</radialGradient>
<radialGradient id="paint3_radial_1122_12649" cx="0" cy="0" r="1" gradientUnits="userSpaceOnUse" gradientTransform="translate(43.2037 33.6812) rotate(135.374) scale(35.118 39.1958)">
<stop stop-color="white"/>
<stop offset="1" stop-color="#E7E7E7"/>
</radialGradient>
<clipPath id="clip0_1122_12649">
<rect width="69" height="69" rx="19.7143" fill="white"/>
</clipPath>
</defs>
</svg>
