<svg width="80" height="79" viewBox="0 0 80 79" fill="none" xmlns="http://www.w3.org/2000/svg">
<g clip-path="url(#clip0_1049_3908)">
<path opacity="0.7" d="M51.6398 35.0734L51.5818 6.92886C51.574 3.10831 48.4592 0 44.6385 0H7.44336C3.61479 0 0.5 3.11479 0.5 6.94321V35.0245C0.5 38.8529 3.61479 41.9677 7.44336 41.9677H12.2266V46.5964C12.2266 48.4994 14.4057 49.5909 15.9297 48.448L24.5672 41.97L44.6755 42.0308C48.5798 42.0308 51.6477 38.8853 51.6398 35.0734ZM25.959 32.5559C24.6808 32.5559 23.6445 31.5196 23.6445 30.2414C23.6445 28.9632 24.6808 27.927 25.959 27.927C27.2372 27.927 28.2734 28.9632 28.2734 30.2414C28.2734 31.5196 27.2372 32.5559 25.959 32.5559ZM28.4277 22.9012V23.1439C28.4277 24.4221 27.3915 25.4584 26.1133 25.4584C24.8351 25.4584 23.7988 24.4221 23.7988 23.1439V21.6998C23.7988 20.1712 24.9349 18.8586 26.4415 18.6465C27.5739 18.4871 28.4277 17.502 28.4277 16.3549C28.4277 14.6682 26.5691 13.222 24.4426 14.5828C23.3656 15.2715 21.9345 14.9569 21.2457 13.8804C20.5569 12.8037 20.8714 11.3725 21.948 10.6835C24.335 9.15659 27.137 8.99906 29.4441 10.2617C31.6723 11.4817 33.0566 13.8164 33.0566 16.355C33.0566 19.3266 31.1423 21.9364 28.4277 22.9012Z" fill="#0A00C5"/>
<path opacity="0.25" d="M72.5566 32.5559H56.2635L56.2688 35.0639C56.2805 40.7784 52.1879 45.4156 46.944 46.4423H67.7734C69.0516 46.4423 70.0879 47.4786 70.0879 48.7568C70.0879 50.035 69.0516 51.0712 67.7734 51.0712H40C38.7218 51.0712 37.6855 50.035 37.6855 48.7568C37.6855 47.8133 38.251 47.003 39.0608 46.6428L28.4277 46.6105V67.4261C28.4277 71.2545 31.5425 74.3693 35.3711 74.3693H51.0259L59.7951 78.7538C61.3294 79.521 63.1445 78.4036 63.1445 76.6838V74.3693H72.5566C76.3852 74.3693 79.5 71.2547 79.5 67.4261V39.4991C79.5 35.6705 76.3852 32.5559 72.5566 32.5559ZM67.7734 60.3286H40C38.7218 60.3286 37.6855 59.2923 37.6855 58.0141C37.6855 56.7359 38.7218 55.6997 40 55.6997H67.7734C69.0516 55.6997 70.0879 56.7359 70.0879 58.0141C70.0879 59.2923 69.0516 60.3286 67.7734 60.3286Z" fill="#0A00C5"/>
</g>
<defs>
<clipPath id="clip0_1049_3908">
<rect width="79" height="79" fill="white" transform="translate(0.5)"/>
</clipPath>
</defs>
</svg>
