<svg width="17" height="17" viewBox="0 0 17 17" fill="none" xmlns="http://www.w3.org/2000/svg">
<path d="M8.50033 1.41663C4.59458 1.41663 1.41699 4.59421 1.41699 8.49996C1.41699 12.4057 4.59458 15.5833 8.50033 15.5833C12.4061 15.5833 15.5837 12.4057 15.5837 8.49996C15.5837 4.59421 12.4061 1.41663 8.50033 1.41663ZM11.5323 7.28198L7.99068 10.8236C7.88691 10.9274 7.75091 10.9791 7.61491 10.9791C7.47891 10.9791 7.34291 10.9274 7.23914 10.8236L5.4683 9.05281C5.26076 8.84527 5.26076 8.50917 5.4683 8.30163C5.67585 8.09408 6.01195 8.09408 6.21949 8.30163L7.61455 9.69669L10.7804 6.53079C10.988 6.32325 11.3241 6.32325 11.5316 6.53079C11.7392 6.73833 11.7395 7.07444 11.5323 7.28198Z" fill="#419F2E"/>
</svg>
