<svg width="16" height="16" viewBox="0 0 16 16" fill="none" xmlns="http://www.w3.org/2000/svg">
<path d="M8.00004 1.33333C4.32404 1.33333 1.33337 4.324 1.33337 8C1.33337 11.676 4.32404 14.6667 8.00004 14.6667C11.676 14.6667 14.6667 11.676 14.6667 8C14.6667 4.324 11.676 1.33333 8.00004 1.33333ZM10.8537 6.85367L7.52037 10.187C7.42271 10.2847 7.29471 10.3333 7.16671 10.3333C7.03871 10.3333 6.91071 10.2847 6.81304 10.187L5.14637 8.52033C4.95104 8.325 4.95104 8.00867 5.14637 7.81333C5.34171 7.618 5.65804 7.618 5.85337 7.81333L7.16637 9.12633L10.146 6.14667C10.3414 5.95133 10.6577 5.95133 10.853 6.14667C11.0484 6.342 11.0487 6.65833 10.8537 6.85367Z" fill="#52CA26"/>
</svg>
