<svg width="81" height="64" viewBox="0 0 81 64" fill="none" xmlns="http://www.w3.org/2000/svg">
<path d="M18.4064 0.041748C13.6629 0.0417481 9.11368 1.9261 5.75951 5.28027C2.40535 8.63443 0.520996 13.1837 0.520996 17.9272C0.520996 22.6707 2.40535 27.2199 5.75951 30.5741C9.11368 33.9282 13.6629 35.8126 18.4064 35.8126C22.0036 35.8116 25.5169 34.726 28.4875 32.6974C26.6595 40.4898 23.4098 45.9196 20.2106 49.6787C15.3941 55.338 10.9226 57.0803 10.9226 57.0803C10.5281 57.227 10.1668 57.4512 9.86015 57.7396C9.55349 58.028 9.30762 58.3748 9.13701 58.7597C8.96639 59.1445 8.87449 59.5596 8.8667 59.9805C8.85891 60.4015 8.93539 60.8197 9.09164 61.2106C9.2479 61.6015 9.48076 61.9572 9.77654 62.2567C10.0723 62.5563 10.425 62.7937 10.8139 62.9549C11.2028 63.1161 11.62 63.1979 12.041 63.1955C12.462 63.193 12.8782 63.1064 13.2652 62.9407C13.2652 62.9407 19.3145 60.4746 25.0189 53.772C30.7233 47.0693 36.2918 35.9653 36.2918 18.9792C36.2921 18.8252 36.2811 18.6714 36.259 18.519C36.3383 16.1237 35.9353 13.7368 35.0742 11.5003C34.213 9.26375 32.9111 7.22309 31.2458 5.49955C29.5805 3.776 27.5858 2.40471 25.3802 1.46714C23.1746 0.52957 20.803 0.0448412 18.4064 0.041748ZM62.5939 0.041748C57.8504 0.0417481 53.3012 1.9261 49.947 5.28027C46.5928 8.63443 44.7085 13.1837 44.7085 17.9272C44.7085 22.6707 46.5928 27.2199 49.947 30.5741C53.3012 33.9282 57.8504 35.8126 62.5939 35.8126C66.1911 35.8116 69.7044 34.726 72.675 32.6974C70.847 40.4898 67.5973 45.9196 64.3981 49.6787C59.5816 55.338 55.1101 57.0803 55.1101 57.0803C54.7156 57.227 54.3543 57.4512 54.0477 57.7396C53.741 58.028 53.4951 58.3748 53.3245 58.7597C53.1539 59.1445 53.062 59.5596 53.0542 59.9805C53.0464 60.4015 53.1229 60.8197 53.2792 61.2106C53.4354 61.6015 53.6683 61.9572 53.964 62.2567C54.2598 62.5563 54.6125 62.7937 55.0014 62.9549C55.3903 63.1161 55.8075 63.1979 56.2285 63.1955C56.6495 63.193 57.0657 63.1064 57.4527 62.9407C57.4527 62.9407 63.502 60.4746 69.2064 53.772C74.9108 47.0693 80.4793 35.9653 80.4793 18.9792C80.4796 18.8252 80.4686 18.6714 80.4465 18.519C80.5258 16.1237 80.1228 13.7368 79.2617 11.5003C78.4005 9.26375 77.0986 7.22309 75.4333 5.49955C73.768 3.776 71.7733 2.40471 69.5677 1.46714C67.3621 0.52957 64.9905 0.0448412 62.5939 0.041748Z" fill="white"/>
</svg>
