<svg width="52" height="52" viewBox="0 0 52 52" fill="none" xmlns="http://www.w3.org/2000/svg">
<rect width="52" height="52" rx="17" fill="url(#paint0_linear_7293_4620)"/>
<path d="M26.0196 9.84419C25.8911 9.84201 25.7631 9.8613 25.6409 9.90129C22.1931 11.0301 19.8455 14.2211 19.8455 17.8154V23.9114C19.8101 23.9399 19.7765 23.9705 19.7448 24.0031L15.5315 28.2148C14.112 29.6343 14.112 31.9702 15.5315 33.3897C16.3956 34.2537 17.6394 34.6307 18.8387 34.3904L20.2707 34.1049C20.7332 34.9889 21.5478 35.6612 22.5306 35.9005C22.2917 36.388 22.1534 36.9334 22.1534 37.5158C22.1534 38.5912 22.6614 39.3906 23.1737 40.2144C23.686 41.0383 24.2742 41.8 24.6718 42.2925C25.3377 43.1175 26.6637 43.1158 27.3283 42.2925C27.7264 41.7995 28.3142 41.0367 28.8264 40.2129C29.3387 39.3891 29.8467 38.5909 29.8467 37.5158C29.8467 36.9365 29.7043 36.3936 29.471 35.9005C30.4532 35.6609 31.2672 34.9885 31.7294 34.1049L33.1629 34.3904C34.3617 34.6301 35.6049 34.2534 36.4686 33.3897C37.8881 31.9702 37.8881 29.6343 36.4686 28.2148L32.2553 24.0031C32.2236 23.9705 32.19 23.9399 32.1546 23.9114V17.8154C32.1546 14.2211 29.807 11.0301 26.3592 9.90129C26.2495 9.86538 26.135 9.84614 26.0196 9.84419ZM26.0001 12.2784C28.3079 13.2047 29.8467 15.3581 29.8467 17.8154V32.5392C29.8467 33.1905 29.3439 33.6932 28.6927 33.6932H26.3036L26.2871 33.6917H24.6102V33.6932H23.3074C22.6562 33.6932 22.1534 33.1905 22.1534 32.5392V17.8154C22.1534 15.3581 23.6922 13.2047 26.0001 12.2784ZM26.0001 17.5374C25.592 17.5374 25.2006 17.6995 24.9121 17.9881C24.6235 18.2766 24.4614 18.668 24.4614 19.0761C24.4614 19.4841 24.6235 19.8755 24.9121 20.1641C25.2006 20.4526 25.592 20.6147 26.0001 20.6147C26.4081 20.6147 26.7995 20.4526 27.088 20.1641C27.3766 19.8755 27.5387 19.4841 27.5387 19.0761C27.5387 18.668 27.3766 18.2766 27.088 17.9881C26.7995 17.6995 26.4081 17.5374 26.0001 17.5374ZM19.8455 27.166V31.836L18.385 32.1275C17.941 32.2165 17.4856 32.0786 17.1649 31.7579C16.6272 31.2202 16.6272 30.3843 17.1649 29.8466L19.8455 27.166ZM32.1546 27.166L34.8353 29.8466C35.3729 30.3843 35.3729 31.2202 34.8353 31.7579C34.5145 32.0786 34.0591 32.2165 33.6152 32.1275L32.1546 31.836V27.166ZM25.8513 36.0012H26.1488C26.9381 36.0782 27.5387 36.7063 27.5387 37.5158C27.5387 37.5508 27.2955 38.3053 26.8671 38.9943C26.5887 39.442 26.2942 39.807 26.0001 40.1949C25.706 39.8072 25.4114 39.4435 25.1331 38.9958C24.7045 38.3066 24.4614 37.5505 24.4614 37.5158C24.4614 36.7063 25.062 36.0782 25.8513 36.0012Z" fill="white"/>
<defs>
<linearGradient id="paint0_linear_7293_4620" x1="-1.14907e-06" y1="55.2632" x2="68.0444" y2="27.552" gradientUnits="userSpaceOnUse">
<stop stop-color="#682D8C"/>
<stop offset="1" stop-color="#EB1E79"/>
</linearGradient>
</defs>
</svg>
