<svg width="61" height="61" viewBox="0 0 61 61" fill="none" xmlns="http://www.w3.org/2000/svg">
<rect width="61" height="61" rx="11" fill="#1AA05A" fill-opacity="0.24"/>
<path d="M46.75 30.5C46.75 39.4741 39.4741 46.75 30.5 46.75C21.5259 46.75 14.25 39.4741 14.25 30.5C14.25 21.5259 21.5259 14.25 30.5 14.25C39.4741 14.25 46.75 21.5259 46.75 30.5Z" fill="url(#paint0_linear_1301_12696)"/>
<path opacity="0.05" d="M37.1395 24.1397L28.8748 32.4045L24.6725 28.2022C24.038 27.5677 23.0094 27.5677 22.3748 28.2022L21.2259 29.3511C20.5914 29.9857 20.5914 31.0143 21.2259 31.6489L27.7259 38.1489C28.3605 38.7834 29.3891 38.7834 30.0237 38.1489L40.5862 27.5864C41.2207 26.9518 41.2207 25.9232 40.5862 25.2886L39.4373 24.1397C38.8027 23.5052 37.7741 23.5052 37.1395 24.1397Z" fill="black"/>
<path opacity="0.07" d="M28.0129 37.8621L21.5129 31.3621C21.0367 30.8859 21.0367 30.1141 21.5129 29.6388L22.6617 28.4899C23.1379 28.0138 23.9097 28.0138 24.385 28.4899L28.8749 32.9789L37.4265 24.4274C37.9026 23.9513 38.6745 23.9513 39.1498 24.4274L40.2987 25.5763C40.7748 26.0524 40.7748 26.8243 40.2987 27.2996L29.7362 37.8621C29.2609 38.3374 28.489 38.3374 28.0129 37.8621Z" fill="black"/>
<path d="M28.3008 37.5744L21.8008 31.0744C21.4831 30.7568 21.4831 30.2424 21.8008 29.9256L22.9496 28.7767C23.2673 28.459 23.7816 28.459 24.0985 28.7767L28.8752 33.5534L37.7144 24.7142C38.0321 24.3965 38.5464 24.3965 38.8633 24.7142L40.0121 25.8631C40.3298 26.1807 40.3298 26.6951 40.0121 27.0119L29.4496 37.5744C29.1328 37.8921 28.6176 37.8921 28.3008 37.5744Z" fill="white"/>
<defs>
<linearGradient id="paint0_linear_1301_12696" x1="19.0096" y1="19.0096" x2="41.9904" y2="41.9904" gradientUnits="userSpaceOnUse">
<stop stop-color="#21AD64"/>
<stop offset="1" stop-color="#088242"/>
</linearGradient>
</defs>
</svg>
