<svg width="21" height="21" viewBox="0 0 21 21" fill="none" xmlns="http://www.w3.org/2000/svg">
<path d="M15.057 0C18.6165 0 21 2.499 21 6.216V14.7955C21 18.502 18.6165 21 15.057 21H5.9535C2.394 21 0 18.502 0 14.7955V6.216C0 2.499 2.394 0 5.9535 0H15.057ZM13.6605 7.31955C13.3035 6.9615 12.726 6.9615 12.3585 7.31955L10.5 9.1875L8.631 7.31955C8.2635 6.9615 7.686 6.9615 7.329 7.31955C6.972 7.67655 6.972 8.26455 7.329 8.6205L9.198 10.4906L7.329 12.349C6.972 12.7165 6.972 13.294 7.329 13.65C7.5075 13.8285 7.749 13.924 7.98 13.924C8.2215 13.924 8.4525 13.8285 8.631 13.65L10.5 11.7925L12.369 13.65C12.5475 13.84 12.7785 13.924 13.0095 13.924C13.251 13.924 13.482 13.8285 13.6605 13.65C14.0175 13.294 14.0175 12.7165 13.6605 12.3595L11.7915 10.4906L13.6605 8.6205C14.0175 8.26455 14.0175 7.67655 13.6605 7.31955Z" fill="#FF4F4F"/>
</svg>
