<svg width="17" height="17" viewBox="0 0 17 17" fill="none" xmlns="http://www.w3.org/2000/svg">
<path d="M12.63 12.6572C12.9426 12.3468 13.4435 12.3468 13.7561 12.6572L15.8216 14.3245H15.8575C16.2754 14.7469 16.2754 15.4317 15.8575 15.8541C15.4396 16.2765 14.7621 16.2765 14.3442 15.8541L12.63 13.8896L12.565 13.8162C12.4438 13.6628 12.3769 13.4716 12.3769 13.2734C12.3769 13.0421 12.468 12.8204 12.63 12.6572ZM6.93541 0C8.77479 0 10.5388 0.738554 11.8395 2.05319C13.1401 3.36782 13.8708 5.15085 13.8708 7.01002C13.8708 10.8816 10.7657 14.02 6.93541 14.02C3.10509 14.02 0 10.8816 0 7.01002C0 3.13849 3.10509 0 6.93541 0Z" fill="#C1C1C1"/>
</svg>
