<svg width="28" height="26" viewBox="0 0 28 26" fill="none" xmlns="http://www.w3.org/2000/svg">
<path d="M13.4884 26C7 26 0 21.9302 0 13C0 4.06977 7 0 13.4884 0C17.093 0 20.4186 1.18605 22.8837 3.34884C25.5581 5.72093 26.9767 9.06977 26.9767 13C26.9767 16.9302 25.5581 20.2558 22.8837 22.6279C20.414 24.7907 17.0698 26 13.4884 26Z" fill="url(#paint0_radial_1735_17040)"/>
<path d="M9.01861 7.89307C8.04419 7.89307 7.15814 8.71632 7.15814 10.0838C7.15814 11.4512 8.04419 12.2721 9.01861 12.2721C9.99535 12.2721 10.8791 11.4489 10.8791 10.0838C10.8791 8.71865 10.0047 7.89307 9.01861 7.89307Z" fill="#422B0D"/>
<path d="M8.9372 8.80699C8.60696 8.64885 8.20929 8.78839 8.04882 9.11862C7.92557 9.37676 7.98138 9.68606 8.18836 9.88606C8.51859 10.0442 8.91626 9.90467 9.07673 9.57444C9.19999 9.3163 9.14417 9.00699 8.9372 8.80699Z" fill="#896024"/>
<path d="M17.9488 7.89307C16.9744 7.89307 16.0884 8.71632 16.0884 10.0838C16.0884 11.4512 16.9744 12.2721 17.9488 12.2721C18.9233 12.2721 19.8093 11.4489 19.8093 10.0838C19.8093 8.71865 18.9233 7.89307 17.9488 7.89307Z" fill="#422B0D"/>
<path d="M17.8558 8.80699C17.5256 8.64885 17.1279 8.78839 16.9675 9.11862C16.8442 9.37676 16.9 9.68606 17.107 9.88606C17.4372 10.0442 17.8349 9.90467 17.9954 9.57444C18.1186 9.3163 18.0628 9.00699 17.8558 8.80699Z" fill="#896024"/>
<path d="M24.714 5.27209C25.9535 7.27209 26.6 9.65349 26.6 12.3023C26.6 16.2326 25.1814 19.5581 22.507 21.9302C20.0419 24.093 16.693 25.3023 13.1116 25.3023C8.91163 25.3023 4.50698 23.593 1.90698 19.9674C4.40931 24.0744 9.11628 26 13.5767 26C17.1581 26 20.507 24.7907 22.9721 22.6279C25.6465 20.2558 27.0651 16.9302 27.0651 13C27.0651 10.0372 26.2581 7.40465 24.714 5.27209Z" fill="#EB8F00"/>
<path d="M22.5232 15.0279C22.1977 14.4395 21.4907 14.1814 20.8628 14.4186C18.4767 15.1139 16.0023 15.4604 13.5163 15.4488C11.0302 15.4604 8.55579 15.1139 6.16975 14.4186C5.54417 14.1814 4.83719 14.4372 4.51161 15.0232C4.19533 15.6069 4.42323 16.2837 4.69068 16.8674C6.1837 20.1465 9.4744 22.1093 13.4977 22.1209H13.5349C17.5581 22.1209 20.8488 20.1465 22.3442 16.8674C22.6093 16.279 22.8395 15.6116 22.5232 15.0279Z" fill="#422B0D"/>
<path d="M17.2396 21.1953C17.1535 21.1163 17.0651 21.0442 16.9768 20.9628C16.0279 20.1279 14.8 19.6791 13.5349 19.7046C12.2326 19.6837 10.9651 20.1163 9.94886 20.9302C9.86048 21.0023 9.76746 21.0721 9.68141 21.1628C9.59537 21.2535 9.54886 21.3186 9.49304 21.3953C10.7721 21.8953 12.1349 22.1512 13.5093 22.1442H13.5465C14.8628 22.1442 16.1675 21.9093 17.4 21.4465C17.3535 21.3581 17.3 21.2744 17.2396 21.1953Z" fill="#ED7770"/>
<path d="M20.8628 14.4186C18.4768 15.1139 16.0023 15.4604 13.5163 15.4488C11.0302 15.4604 8.55583 15.1139 6.16978 14.4186C5.5442 14.1814 4.83722 14.4372 4.51164 15.0232C4.46513 15.1116 4.42792 15.2046 4.40466 15.3C4.48141 15.3395 4.56978 15.379 4.67443 15.4209C7.47443 16.8232 10.5698 17.5349 13.7 17.4977C16.7023 17.5325 19.6698 16.879 22.3814 15.5907C22.4907 15.5442 22.5814 15.5 22.6628 15.4581C22.6442 15.307 22.5954 15.1581 22.5233 15.0232C22.1977 14.4372 21.4907 14.179 20.8628 14.4186Z" fill="white"/>
<path d="M22.5325 15.0302C22.2023 14.4418 21.493 14.1814 20.8604 14.4186C18.4744 15.1139 16 15.4604 13.5163 15.4488C11.0302 15.4604 8.55579 15.1139 6.16975 14.4186C5.54417 14.1814 4.83719 14.4372 4.51161 15.0232C4.19533 15.6069 4.42323 16.2837 4.69068 16.8674C4.80928 17.1302 4.94184 17.3883 5.08835 17.6372C5.08835 17.6372 4.59998 15.8279 5.02323 15.3023C5.16742 15.079 5.40928 14.9395 5.6744 14.9256C5.7837 14.9256 5.89068 14.9442 5.99533 14.9767C8.42323 15.6907 10.9418 16.0511 13.4744 16.0465H13.5558C16.0884 16.0511 18.607 15.6907 21.0349 14.9767C21.1395 14.9442 21.2465 14.9256 21.3558 14.9256C21.6209 14.9395 21.8651 15.079 22.0093 15.3023C22.4395 15.8279 21.9442 17.6442 21.9442 17.6442C22.0884 17.3953 22.2325 17.1395 22.3535 16.8744C22.6186 16.2907 22.8488 15.6163 22.5325 15.0302Z" fill="#EB8F00"/>
<defs>
<radialGradient id="paint0_radial_1735_17040" cx="0" cy="0" r="1" gradientUnits="userSpaceOnUse" gradientTransform="translate(13.4884 13) scale(13.2464)">
<stop offset="0.5" stop-color="#FDE030"/>
<stop offset="0.92" stop-color="#F7C02B"/>
<stop offset="1" stop-color="#F4A223"/>
</radialGradient>
</defs>
</svg>
