<svg width="27" height="27" viewBox="0 0 27 27" fill="none" xmlns="http://www.w3.org/2000/svg">
<path d="M13.5 26.0224C7.00603 26.0224 0 21.9491 0 13.0112C0 4.07328 7.00603 0 13.5 0C17.1078 0 20.4362 1.18707 22.9035 3.35172C25.5802 5.72586 27 9.07759 27 13.0112C27 16.9448 25.5802 20.2733 22.9035 22.6474C20.4362 24.8121 17.0845 26.0224 13.5 26.0224Z" fill="url(#paint0_radial_1735_17010)"/>
<path d="M24.6468 5.27661C25.8874 7.27834 26.5345 9.66178 26.5345 12.3129C26.5345 16.2465 25.1147 19.575 22.438 21.9491C19.9707 24.1138 16.619 25.3241 13.0345 25.3241C8.83088 25.3241 4.42243 23.6133 1.82019 19.9846C4.32467 24.0951 9.03571 26.0224 13.5 26.0224C17.0845 26.0224 20.4362 24.812 22.9035 22.6474C25.5802 20.2733 27 16.9448 27 13.0112C27 10.0458 26.1923 7.41101 24.6468 5.27661Z" fill="#EB8F00"/>
<path d="M8.93794 7.89978C7.96268 7.89978 7.07587 8.72375 7.07587 10.0924C7.07587 11.461 7.96268 12.2826 8.93794 12.2826C9.91552 12.2826 10.8 11.4587 10.8 10.0924C10.8 8.72607 9.92483 7.89978 8.93794 7.89978Z" fill="#422B0D"/>
<path d="M8.85647 8.81462C8.52596 8.65634 8.12794 8.796 7.96734 9.12652C7.84397 9.38488 7.89984 9.69445 8.10699 9.89462C8.43751 10.0529 8.83553 9.91324 8.99613 9.58272C9.11949 9.32436 9.06363 9.01479 8.85647 8.81462Z" fill="#896024"/>
<path d="M17.8759 7.89978C16.9006 7.89978 16.0138 8.72375 16.0138 10.0924C16.0138 11.461 16.9006 12.2826 17.8759 12.2826C18.8511 12.2826 19.7379 11.4587 19.7379 10.0924C19.7379 8.72607 18.8511 7.89978 17.8759 7.89978Z" fill="#422B0D"/>
<path d="M17.7827 8.81462C17.4522 8.65634 17.0542 8.796 16.8936 9.12652C16.7702 9.38488 16.8261 9.69445 17.0333 9.89462C17.3638 10.0529 17.7618 9.91324 17.9224 9.58272C18.0458 9.32436 17.9899 9.01479 17.7827 8.81462Z" fill="#896024"/>
<path d="M13.635 16.5701C15.7462 16.5515 17.7665 17.4406 19.1793 19.0094C19.2864 19.1328 19.312 19.3074 19.2445 19.4563C19.177 19.6076 19.028 19.7054 18.8628 19.7077C18.7883 19.7077 18.7138 19.6867 18.6487 19.6495C17.5268 19.0048 15.6507 18.2041 13.6397 18.2041H13.6071C11.5984 18.2041 9.72003 19.0048 8.60046 19.6495C8.53529 19.6867 8.46081 19.7077 8.38632 19.7077C8.22107 19.7054 8.07443 19.6076 8.00693 19.4563C7.9371 19.3074 7.9627 19.1328 8.0721 19.0094C9.48494 17.4406 11.503 16.5515 13.6141 16.5701" fill="#422B0D"/>
<defs>
<radialGradient id="paint0_radial_1735_17010" cx="0" cy="0" r="1" gradientUnits="userSpaceOnUse" gradientTransform="translate(13.5 13.0112) scale(13.2579 13.2579)">
<stop offset="0.5" stop-color="#FDE030"/>
<stop offset="0.92" stop-color="#F7C02B"/>
<stop offset="1" stop-color="#F4A223"/>
</radialGradient>
</defs>
</svg>
