<svg width="29" height="27" viewBox="0 0 29 27" fill="none" xmlns="http://www.w3.org/2000/svg">
<path d="M14.0072 27C7.26923 27 0 22.7737 0 13.5C0 4.2263 7.26923 0 14.0072 0C17.7504 0 21.2039 1.23166 23.7639 3.47764C26.5411 5.94097 28.0143 9.4186 28.0143 13.5C28.0143 17.5814 26.5411 21.0349 23.7639 23.4982C21.2039 25.7442 17.7263 27 14.0072 27Z" fill="url(#paint0_radial_1735_17020)"/>
<path d="M25.5727 5.47485C26.8599 7.55178 27.5313 10.0248 27.5313 12.7755C27.5313 16.8569 26.0581 20.3104 23.2809 22.7737C20.7209 25.0197 17.2433 26.2755 13.5241 26.2755C9.16261 26.2755 4.58855 24.5004 1.88855 20.7354C4.48712 25.0003 9.37513 27 14.0072 27C17.7263 27 21.2039 25.7442 23.7639 23.4982C26.5411 21.0349 28.0143 17.5814 28.0143 13.5C28.0143 10.4232 27.1763 7.68943 25.5727 5.47485Z" fill="#EB8F00"/>
<path d="M20.1414 19.5617H8.06623C7.53251 19.5617 7.10022 19.1294 7.10022 18.5956C7.10022 18.0619 7.53251 17.6296 8.06623 17.6296H20.1414C20.6751 17.6296 21.1074 18.0619 21.1074 18.5956C21.1074 19.1294 20.6751 19.5617 20.1414 19.5617Z" fill="#422B0D"/>
<path d="M9.4355 9.40405C8.4236 9.40405 7.50348 10.259 7.50348 11.679C7.50348 13.099 8.4236 13.9515 9.4355 13.9515C10.4474 13.9515 11.3675 13.0966 11.3675 11.679C11.3675 10.2614 10.4474 9.40405 9.4355 9.40405Z" fill="#422B0D"/>
<path d="M9.34135 10.3532C8.99842 10.189 8.58545 10.3339 8.41881 10.6768C8.29081 10.9449 8.34877 11.2661 8.56371 11.4738C8.90664 11.638 9.31961 11.4931 9.48625 11.1502C9.61425 10.8821 9.55629 10.5609 9.34135 10.3532Z" fill="#896024"/>
<path d="M18.6923 9.40405C17.6804 9.40405 16.7603 10.259 16.7603 11.679C16.7603 13.099 17.6804 13.9515 18.6923 13.9515C19.7042 13.9515 20.6243 13.0966 20.6243 11.679C20.6243 10.2614 19.709 9.40405 18.6923 9.40405Z" fill="#422B0D"/>
<path d="M18.6029 10.3532C18.26 10.189 17.847 10.3339 17.6804 10.6768C17.5524 10.9449 17.6104 11.2661 17.8253 11.4738C18.1682 11.638 18.5812 11.4931 18.7478 11.1502C18.8758 10.8821 18.8179 10.5609 18.6029 10.3532Z" fill="#896024"/>
<defs>
<radialGradient id="paint0_radial_1735_17020" cx="0" cy="0" r="1" gradientUnits="userSpaceOnUse" gradientTransform="translate(14.0072 13.5) scale(13.7559 13.7559)">
<stop offset="0.5" stop-color="#FDE030"/>
<stop offset="0.92" stop-color="#F7C02B"/>
<stop offset="1" stop-color="#F4A223"/>
</radialGradient>
</defs>
</svg>
