<svg width="27" height="27" viewBox="0 0 27 27" fill="none" xmlns="http://www.w3.org/2000/svg">
<path d="M13.5 26.0224C7.00603 26.0224 0 21.9491 0 13.0112C0 4.07328 7.00603 0 13.5 0C17.1078 0 20.4362 1.18707 22.9035 3.35172C25.5802 5.72586 27 9.07759 27 13.0112C27 16.9448 25.5802 20.2733 22.9035 22.6474C20.4362 24.8121 17.0845 26.0224 13.5 26.0224Z" fill="url(#paint0_radial_1735_17030)"/>
<path d="M8.93794 7.89978C7.96268 7.89978 7.07587 8.72375 7.07587 10.0924C7.07587 11.461 7.96268 12.2826 8.93794 12.2826C9.91552 12.2826 10.8 11.4587 10.8 10.0924C10.8 8.72607 9.92483 7.89978 8.93794 7.89978Z" fill="#422B0D"/>
<path d="M8.85647 8.81462C8.52596 8.65634 8.12794 8.796 7.96734 9.12652C7.84397 9.38488 7.89984 9.69445 8.10699 9.89462C8.43751 10.0529 8.83553 9.91324 8.99613 9.58272C9.11949 9.32436 9.06363 9.01479 8.85647 8.81462Z" fill="#896024"/>
<path d="M17.8759 7.89978C16.9006 7.89978 16.0138 8.72375 16.0138 10.0924C16.0138 11.461 16.9006 12.2826 17.8759 12.2826C18.8511 12.2826 19.7379 11.4587 19.7379 10.0924C19.7379 8.72607 18.8511 7.89978 17.8759 7.89978Z" fill="#422B0D"/>
<path d="M17.7827 8.81462C17.4522 8.65634 17.0542 8.796 16.8936 9.12652C16.7702 9.38488 16.8261 9.69445 17.0333 9.89462C17.3638 10.0529 17.7618 9.91324 17.9224 9.58272C18.0458 9.32436 17.9899 9.01479 17.7827 8.81462Z" fill="#896024"/>
<path d="M13.3604 19.6937C11.2492 19.71 9.23356 18.8232 7.82071 17.2544C7.71364 17.1311 7.68804 16.9565 7.75554 16.8075C7.82304 16.6562 7.97201 16.5585 8.13726 16.5562C8.21175 16.5562 8.28623 16.5771 8.3514 16.6143C9.4733 17.2591 11.3493 18.0598 13.3604 18.0598H13.393C15.4017 18.0598 17.28 17.2591 18.3996 16.6143C18.4648 16.5771 18.5392 16.5562 18.6137 16.5562C18.779 16.5585 18.928 16.6562 18.9955 16.8075C19.0653 16.9565 19.0397 17.1311 18.9303 17.2544C17.5174 18.8232 15.4971 19.7124 13.386 19.6937" fill="#422B0D"/>
<path d="M24.6468 5.27661C25.8874 7.27834 26.5345 9.66178 26.5345 12.3129C26.5345 16.2465 25.1147 19.575 22.438 21.9491C19.9707 24.1138 16.619 25.3241 13.0345 25.3241C8.83088 25.3241 4.42243 23.6133 1.82019 19.9846C4.32467 24.0951 9.03571 26.0224 13.5 26.0224C17.0845 26.0224 20.4362 24.812 22.9035 22.6474C25.5802 20.2733 27 16.9448 27 13.0112C27 10.0458 26.1923 7.41101 24.6468 5.27661Z" fill="#EB8F00"/>
<defs>
<radialGradient id="paint0_radial_1735_17030" cx="0" cy="0" r="1" gradientUnits="userSpaceOnUse" gradientTransform="translate(13.5 13.0112) scale(13.2579 13.2579)">
<stop offset="0.5" stop-color="#FDE030"/>
<stop offset="0.92" stop-color="#F7C02B"/>
<stop offset="1" stop-color="#F4A223"/>
</radialGradient>
</defs>
</svg>
