<svg width="29" height="27" viewBox="0 0 29 27" fill="none" xmlns="http://www.w3.org/2000/svg">
<path d="M14.0072 27C7.26923 27 0 22.7737 0 13.5C0 4.2263 7.26923 0 14.0072 0C17.7504 0 21.2039 1.23166 23.7639 3.47764C26.5411 5.94097 28.0143 9.4186 28.0143 13.5C28.0143 17.5814 26.5411 21.0349 23.7639 23.4982C21.2039 25.7442 17.7263 27 14.0072 27Z" fill="url(#paint0_radial_1735_16996)"/>
<path d="M25.5727 5.47485C26.8599 7.55178 27.5313 10.0248 27.5313 12.7755C27.5313 16.8569 26.0581 20.3104 23.2809 22.7737C20.7209 25.0197 17.2433 26.2755 13.5241 26.2755C9.16261 26.2755 4.58855 24.5004 1.88855 20.7354C4.48712 25.0003 9.37513 27 14.0072 27C17.7263 27 21.2039 25.7442 23.7639 23.4982C26.5411 21.0349 28.0143 17.5814 28.0143 13.5C28.0143 10.4232 27.1763 7.68943 25.5727 5.47485Z" fill="#EB8F00"/>
<path d="M7.31755 10.7952C7.39966 10.7976 7.47936 10.8048 7.55906 10.8193C7.60011 10.8145 7.64358 10.8242 7.67981 10.8435H8.01791C8.11451 10.8483 8.21353 10.8387 8.30771 10.8193C8.40431 10.8193 8.50092 10.771 8.62167 10.771C8.7231 10.7541 8.8197 10.7203 8.91147 10.6744C9.10709 10.6165 9.28821 10.5175 9.44278 10.3846C9.52006 10.3267 9.59492 10.2615 9.66013 10.1914C9.70843 10.119 9.78088 10.0465 9.82918 9.97408L9.97408 9.75673C10.0151 9.6891 10.0489 9.61665 10.0707 9.53937C10.0948 9.46692 10.119 9.41862 10.1431 9.34617C10.1649 9.28338 10.1987 9.22783 10.2397 9.17712L10.3363 8.98392C10.544 8.53231 11.0753 8.33427 11.5269 8.54197C11.5318 8.54438 11.539 8.5468 11.5438 8.54921C11.8288 8.68928 12.0269 8.95977 12.0752 9.27372C12.0776 9.37757 12.0848 9.48383 12.0993 9.58767V9.94993C12.0848 10.1117 12.0607 10.2735 12.0269 10.4329C11.981 10.6237 11.9158 10.8097 11.8337 10.9884C11.6984 11.3192 11.5004 11.6235 11.254 11.8819L11.1333 12.0269L10.9642 12.1235C10.7662 12.2901 10.5561 12.4422 10.3363 12.5823C10.1117 12.6982 9.87748 12.7972 9.63598 12.8721L9.46693 12.9204L9.29787 12.9446C9.18678 12.9711 9.07328 12.988 8.95977 12.9929C8.74242 13.017 8.52507 13.017 8.30771 12.9929C8.12176 12.9832 7.9358 12.9591 7.75226 12.9204C7.58804 12.8866 7.42623 12.8383 7.26925 12.7755C7.20405 12.7562 7.13884 12.732 7.07605 12.7031C7.02775 12.6789 7.0036 12.6548 6.9553 12.6306C6.88043 12.5944 6.80798 12.5533 6.73795 12.5099C6.30566 12.2345 6.17766 11.6646 6.44814 11.2299C6.63893 10.9401 6.96979 10.7735 7.31755 10.7952Z" fill="#422B0D"/>
<path d="M20.3201 17.4123C18.3036 16.8086 16.2073 16.5164 14.1038 16.5429C11.9714 16.5236 9.84855 16.8279 7.80785 17.4486C7.10025 18.6005 6.7235 19.924 6.71384 21.2764C6.70177 22.1265 7.38039 22.8244 8.23048 22.8365C8.4744 22.8389 8.71831 22.7858 8.93567 22.6771C10.5561 21.9188 12.3167 21.5082 14.1038 21.4696C15.8934 21.5034 17.6539 21.9164 19.272 22.6771C20.0327 23.0538 20.9553 22.7447 21.3344 21.9816C21.4431 21.7618 21.4986 21.5203 21.4938 21.2764C21.4793 19.9022 21.0712 18.5619 20.3201 17.4123Z" fill="#422B0D"/>
<path d="M20.3201 17.4123C18.8614 15.1181 16.299 14.5385 14.1038 14.5385C11.7177 14.5385 9.20127 15.135 7.8078 17.4365C9.8485 16.8207 11.9713 16.5188 14.1038 16.5429C16.2073 16.5164 18.3035 16.8086 20.3201 17.4123Z" fill="white"/>
<path d="M14.0892 14.1763C14.9393 14.1835 15.787 14.2898 16.6154 14.4902C17.4558 14.6907 18.2503 15.0457 18.9604 15.5383C19.6607 16.0479 20.2379 16.7096 20.6509 17.4704C21.0638 18.2118 21.3561 19.016 21.5106 19.8492C21.5879 20.2646 21.629 20.6848 21.629 21.1074C21.6386 21.3296 21.6145 21.5493 21.5565 21.7643C21.4913 21.9816 21.3826 22.1821 21.2401 22.356C20.9503 22.6989 20.5325 22.9114 20.0833 22.9428C19.8636 22.9549 19.6414 22.9259 19.4313 22.8583C19.2212 22.781 19.0473 22.6868 18.8565 22.6168C17.3592 21.9261 15.7387 21.5349 14.0892 21.4697C15.746 21.4721 17.3882 21.8005 18.9193 22.4357C19.1125 22.5105 19.3057 22.6047 19.4844 22.6627C19.6704 22.7134 19.8636 22.7303 20.0544 22.7134C20.4359 22.6748 20.7837 22.484 21.0204 22.1821C21.1339 22.0348 21.216 21.8633 21.2619 21.6822C21.3053 21.4962 21.3198 21.303 21.3029 21.1122C21.286 20.7065 21.2329 20.3008 21.146 19.9047C20.9697 19.1198 20.6678 18.3688 20.2476 17.6829C19.8443 17.0019 19.2936 16.4198 18.6367 15.9779C17.9726 15.5528 17.236 15.2534 16.4632 15.0988C15.6783 14.9418 14.879 14.8718 14.0796 14.8935L14.0892 14.1763Z" fill="#EB8F00"/>
<path d="M14.1497 14.9008C13.3503 14.879 12.5509 14.9491 11.7685 15.1061C10.9957 15.2606 10.2591 15.5601 9.59494 15.9851C8.93806 16.4271 8.38743 17.0091 7.98412 17.6901C7.56632 18.376 7.26203 19.1271 7.08573 19.912C6.99879 20.308 6.94566 20.7137 6.92875 21.1195C6.91185 21.3103 6.92634 21.5035 6.96981 21.6894C7.01811 21.8705 7.10022 22.0396 7.21131 22.1893C7.44798 22.4912 7.79575 22.682 8.17732 22.7206C8.36811 22.7375 8.56131 22.7206 8.74727 22.6699C8.9284 22.612 9.1216 22.5178 9.31239 22.4429C10.8435 21.8078 12.4857 21.4793 14.1424 21.4769C12.4954 21.5373 10.8749 21.9213 9.37518 22.6071C9.1868 22.6892 9.01051 22.7834 8.8004 22.8486C8.59029 22.9163 8.36811 22.9452 8.14834 22.9332C7.69673 22.9018 7.27893 22.6892 6.98913 22.3439C6.84423 22.17 6.73555 21.9696 6.67035 21.7522C6.61239 21.5373 6.58824 21.3175 6.5979 21.0953C6.60031 20.6727 6.64137 20.2525 6.71623 19.8371C6.87562 19.0039 7.16784 18.2021 7.58323 17.4631C7.9962 16.7024 8.57339 16.0407 9.27375 15.5311C9.98618 15.0408 10.7831 14.6883 11.6236 14.4902C12.4519 14.2898 13.2996 14.1835 14.1497 14.1763V14.9008Z" fill="#EB8F00"/>
<path d="M7.51558 6.63655C7.01567 6.84424 7.15816 7.60256 7.73052 7.50355C8.98392 7.24514 10.09 6.51822 10.8193 5.46768C11.1019 5.08852 11.3192 4.66589 11.4617 4.2167C11.5559 3.9921 11.4497 3.73127 11.2226 3.63709C10.9956 3.5429 10.7372 3.64916 10.643 3.87618L10.6237 3.90516C9.92819 5.14165 8.83177 6.10283 7.51558 6.63655Z" fill="#422B0D"/>
<path d="M20.8804 10.7952C20.7983 10.7976 20.7186 10.8048 20.6389 10.8193C20.5978 10.8145 20.5543 10.8242 20.5181 10.8435H20.18C20.0834 10.8483 19.9844 10.8387 19.8902 10.8193C19.7936 10.8193 19.697 10.771 19.5763 10.771C19.4748 10.7541 19.3782 10.7203 19.2865 10.6744C19.0908 10.6165 18.9097 10.5175 18.7551 10.3846C18.6779 10.3267 18.603 10.2615 18.5378 10.1914C18.4895 10.119 18.417 10.0465 18.3687 9.97408L18.2238 9.75673C18.1828 9.6891 18.149 9.61665 18.1272 9.53937C18.1031 9.46692 18.0789 9.41862 18.0548 9.34617C18.0355 9.28579 18.0065 9.22783 17.9678 9.17712L17.8712 8.98392C17.6636 8.53231 17.1322 8.33427 16.6806 8.54197C16.6758 8.54438 16.6686 8.5468 16.6637 8.54921C16.3788 8.68928 16.1807 8.95977 16.1324 9.27372C16.13 9.37757 16.1228 9.48383 16.1083 9.58767V9.94993C16.1228 10.1117 16.1469 10.2735 16.1807 10.4329C16.2266 10.6237 16.2918 10.8097 16.3739 10.9884C16.5092 11.3192 16.7072 11.6235 16.9535 11.8819L17.0743 12.0269L17.2433 12.1235C17.4414 12.2901 17.6515 12.4422 17.8712 12.5823C18.0958 12.6982 18.3301 12.7972 18.5716 12.8721L18.7407 12.9204L18.9097 12.9446C19.0208 12.9711 19.1343 12.988 19.2478 12.9929C19.4652 13.017 19.6825 13.017 19.8999 12.9929C20.0858 12.9832 20.2718 12.9591 20.4553 12.9204C20.6195 12.8866 20.7814 12.8383 20.9383 12.7755C21.0035 12.7562 21.0687 12.732 21.1315 12.7031C21.1798 12.6789 21.204 12.6548 21.2523 12.6306C21.3271 12.5944 21.3996 12.5533 21.4696 12.5099C21.9019 12.2345 22.0299 11.6646 21.7594 11.2299C21.5662 10.9353 21.2305 10.7686 20.8804 10.7952Z" fill="#422B0D"/>
<path d="M20.6823 6.6366C21.1822 6.8443 21.0397 7.60261 20.4674 7.5036C19.214 7.24519 18.1079 6.51827 17.3785 5.46773C17.096 5.09099 16.8786 4.66594 16.7386 4.21675C16.6589 3.98732 16.7796 3.73374 17.0115 3.65405C17.2216 3.5816 17.4534 3.67578 17.5524 3.87623L17.5718 3.90521C18.2697 5.1417 19.3661 6.10288 20.6823 6.6366Z" fill="#422B0D"/>
<defs>
<radialGradient id="paint0_radial_1735_16996" cx="0" cy="0" r="1" gradientUnits="userSpaceOnUse" gradientTransform="translate(14.0072 13.5) scale(13.7559 13.7559)">
<stop offset="0.5" stop-color="#FDE030"/>
<stop offset="0.92" stop-color="#F7C02B"/>
<stop offset="1" stop-color="#F4A223"/>
</radialGradient>
</defs>
</svg>
