<svg width="38" height="35" viewBox="0 0 38 35" fill="none" xmlns="http://www.w3.org/2000/svg">
<path d="M16.1579 2.41071C17.0768 -0.308758 20.9232 -0.308758 21.8421 2.41071L24.1481 9.23497C24.5601 10.454 25.7035 11.2746 26.9903 11.2746H34.1947C37.1293 11.2746 38.3185 15.0533 35.9128 16.7339L30.2893 20.6625C29.1964 21.426 28.7385 22.8191 29.1653 24.0822L31.3606 30.5788C32.2876 33.3221 29.1742 35.6569 26.8004 33.9985L20.7181 29.7494C19.6861 29.0285 18.3139 29.0285 17.2819 29.7494L11.1996 33.9985C8.82576 35.6569 5.7124 33.3221 6.63943 30.5788L8.83474 24.0822C9.26154 22.8191 8.80361 21.426 7.71069 20.6625L2.08719 16.7339C-0.318493 15.0533 0.870686 11.2746 3.80527 11.2746H11.0097C12.2965 11.2746 13.4399 10.454 13.8519 9.23497L16.1579 2.41071Z" fill="#D9D9D9"/>
</svg>
