<svg width="78" height="78" viewBox="0 0 78 78" fill="none" xmlns="http://www.w3.org/2000/svg">
<path d="M39 0L41.4519 24.3065L51.6633 2.11313L46.09 25.8988L62.9543 8.22352L49.9598 28.9108L71.6495 17.669L52.642 33.0161L76.8066 29.4261L53.8458 37.7698L77.8668 42.2206L53.4408 42.6569L74.7152 54.6661L51.471 47.1477L67.6932 65.414L48.1497 50.7556L57.562 73.2995L43.8369 53.0895L45.4192 77.4681L39 53.8967L32.5808 77.4681L34.1631 53.0895L20.4381 73.2995L29.8503 50.7556L10.3068 65.414L26.529 47.1477L3.28484 54.6661L24.5592 42.6569L0.133205 42.2206L24.1542 37.7698L1.19339 29.4261L25.358 33.0161L6.35051 17.669L28.0402 28.9108L15.0457 8.22352L31.91 25.8988L26.3367 2.11313L36.5481 24.3065L39 0Z" fill="#EF4D53"/>
</svg>
