<svg width="47" height="44" viewBox="0 0 47 44" fill="none" xmlns="http://www.w3.org/2000/svg">
<path d="M24.5967 0.964404L29.7658 12.7542C30.1614 13.6567 31.0177 14.275 32.0009 14.3633L44.5933 15.4924C46.0181 15.6998 46.5865 17.4471 45.5534 18.4533L36.0678 26.422C35.2997 27.0671 34.9502 28.081 35.1615 29.0603L37.9188 41.9676C38.1608 43.3847 36.6746 44.4677 35.3996 43.7956L24.4085 37.3592C23.5637 36.8638 22.5191 36.8638 21.6742 37.3592L10.6832 43.7918C9.41203 44.46 7.92199 43.3809 8.16393 41.9638L10.9213 29.0564C11.1287 28.0771 10.783 27.0633 10.015 26.4181L0.525505 18.4571C-0.503704 17.4548 0.0646652 15.7036 1.48559 15.4962L14.078 14.3672C15.0612 14.2788 15.9176 13.6605 16.3131 12.7581L21.4822 0.968244C22.1235 -0.322107 23.9592 -0.322107 24.5967 0.964404Z" fill="#FDD835"/>
<path d="M24.2204 13.4608L23.3448 4.77397C23.3102 4.29008 23.2104 3.46057 23.9861 3.46057C24.6006 3.46057 24.9347 4.7394 24.9347 4.7394L27.5615 11.7134C28.5523 14.3671 28.1452 15.2773 27.189 15.8149C26.0906 16.4294 24.47 15.9493 24.2204 13.4608Z" fill="#FFFF8D"/>
<path d="M35.0539 25.6501L42.5887 19.7705C42.9612 19.4594 43.6332 18.964 43.0956 18.3995C42.6693 17.954 41.5172 18.5954 41.5172 18.5954L34.9234 21.1722C32.9571 21.852 31.6514 22.8581 31.5362 24.1255C31.3864 25.8152 32.9033 27.1171 35.0539 25.6501Z" fill="#F4B400"/>
</svg>
