<svg width="47" height="44" viewBox="0 0 47 44" fill="none" xmlns="http://www.w3.org/2000/svg">
<path d="M24.5967 0.964404L29.7658 12.7542C30.1614 13.6567 31.0177 14.275 32.0009 14.3633L44.5933 15.4924C46.0181 15.6998 46.5865 17.4471 45.5534 18.4533L36.0678 26.422C35.2997 27.0671 34.9502 28.081 35.1615 29.0603L37.9188 41.9676C38.1608 43.3847 36.6746 44.4677 35.3996 43.7956L24.4085 37.3592C23.5637 36.8638 22.5191 36.8638 21.6742 37.3592L10.6832 43.7918C9.41203 44.46 7.92199 43.3809 8.16393 41.9638L10.9213 29.0564C11.1287 28.0771 10.783 27.0633 10.015 26.4181L0.525505 18.4571C-0.503704 17.4548 0.0646652 15.7036 1.48559 15.4962L14.078 14.3672C15.0612 14.2788 15.9176 13.6605 16.3131 12.7581L21.4822 0.968244C22.1235 -0.322107 23.9592 -0.322107 24.5967 0.964404Z" fill="#E3E1F1"/>
</svg>
