<svg width="29" height="27" viewBox="0 0 29 27" fill="none" xmlns="http://www.w3.org/2000/svg">
<path d="M14.5067 0.43749C14.3139 0.436286 14.1247 0.489115 13.9605 0.589983C13.7962 0.690851 13.6636 0.835723 13.5775 1.00817L10.0352 8.09264L1.6241 9.38707C1.43583 9.41617 1.25929 9.49684 1.11407 9.62014C0.968851 9.74344 0.860619 9.90455 0.801378 10.0856C0.742137 10.2667 0.734203 10.4606 0.778454 10.6459C0.822706 10.8312 0.917415 11.0006 1.05208 11.1354L6.87032 16.9536L5.57454 25.3741C5.54555 25.5625 5.56934 25.7553 5.64326 25.931C5.71718 26.1067 5.83834 26.2584 5.9933 26.3694C6.14825 26.4804 6.33093 26.5463 6.52107 26.5598C6.7112 26.5732 6.90134 26.5337 7.07039 26.4457L14.5 22.5691L21.9295 26.4457C22.0986 26.5337 22.2887 26.5732 22.4788 26.5598C22.669 26.5463 22.8517 26.4804 23.0066 26.3694C23.1616 26.2584 23.2827 26.1067 23.3567 25.931C23.4306 25.7553 23.4544 25.5625 23.4254 25.3741L22.1296 16.9536L27.9478 11.1354C28.0825 11.0006 28.1772 10.8312 28.2215 10.6459C28.2657 10.4606 28.2578 10.2667 28.1985 10.0856C28.1393 9.90455 28.0311 9.74344 27.8858 9.62014C27.7406 9.49684 27.5641 9.41617 27.3758 9.38707L18.9647 8.09264L15.4224 1.00817C15.3374 0.837764 15.2068 0.694243 15.0451 0.593513C14.8835 0.492784 14.6971 0.438781 14.5067 0.43749Z" fill="#C8C7CA"/>
</svg>
