<svg width="63" height="63" viewBox="0 0 63 63" fill="none" xmlns="http://www.w3.org/2000/svg">
<path opacity="0.4" d="M31.5 57.75C45.9973 57.75 57.75 45.9973 57.75 31.5C57.75 17.0025 45.9973 5.25 31.5 5.25C17.0025 5.25 5.25 17.0025 5.25 31.5C5.25 45.9973 17.0025 57.75 31.5 57.75Z" fill="#0B00D8"/>
<path d="M42 29.5312H33.4688V21C33.4688 19.9237 32.5763 19.0312 31.5 19.0312C30.4237 19.0312 29.5312 19.9237 29.5312 21V29.5312H21C19.9237 29.5312 19.0312 30.4237 19.0312 31.5C19.0312 32.5763 19.9237 33.4688 21 33.4688H29.5312V42C29.5312 43.0763 30.4237 43.9688 31.5 43.9688C32.5763 43.9688 33.4688 43.0763 33.4688 42V33.4688H42C43.0763 33.4688 43.9688 32.5763 43.9688 31.5C43.9688 30.4237 43.0763 29.5312 42 29.5312Z" fill="#0B00D8"/>
</svg>
