<svg width="52" height="52" viewBox="0 0 52 52" fill="none" xmlns="http://www.w3.org/2000/svg">
<path d="M0 26C0 11.6406 11.6406 0 26 0C40.3594 0 52 11.6406 52 26C52 40.3594 40.3594 52 26 52C11.6406 52 0 40.3594 0 26Z" fill="url(#paint0_linear_477_1102)"/>
<path d="M26 16C20.48 16 16 20.48 16 26C16 31.52 20.48 36 26 36C31.52 36 36 31.52 36 26C36 20.48 31.52 16 26 16ZM30.64 22.8C30.49 24.38 29.84 28.22 29.51 29.99C29.37 30.74 29.09 30.99 28.83 31.02C28.25 31.07 27.81 30.64 27.25 30.27C26.37 29.69 25.87 29.33 25.02 28.77C24.03 28.12 24.67 27.76 25.24 27.18C25.39 27.03 27.95 24.7 28 24.49C28.0069 24.4582 28.006 24.4252 27.9973 24.3938C27.9886 24.3624 27.9724 24.3337 27.95 24.31C27.89 24.26 27.81 24.28 27.74 24.29C27.65 24.31 26.25 25.24 23.52 27.08C23.12 27.35 22.76 27.49 22.44 27.48C22.08 27.47 21.4 27.28 20.89 27.11C20.26 26.91 19.77 26.8 19.81 26.45C19.83 26.27 20.08 26.09 20.55 25.9C23.47 24.63 25.41 23.79 26.38 23.39C29.16 22.23 29.73 22.03 30.11 22.03C30.19 22.03 30.38 22.05 30.5 22.15C30.6 22.23 30.63 22.34 30.64 22.42C30.63 22.48 30.65 22.66 30.64 22.8Z" fill="white"/>
<defs>
<linearGradient id="paint0_linear_477_1102" x1="26" y1="0" x2="26" y2="52" gradientUnits="userSpaceOnUse">
<stop stop-color="#42BAF8"/>
<stop offset="1" stop-color="#088DCF"/>
</linearGradient>
</defs>
</svg>
