<svg width="88" height="88" viewBox="0 0 88 88" fill="none" xmlns="http://www.w3.org/2000/svg">
<path fill-rule="evenodd" clip-rule="evenodd" d="M0 44C0 19.6988 19.6988 0 44 0C68.3012 0 88 19.6988 88 44C88 68.3012 68.3012 88 44 88C19.6988 88 0 68.3012 0 44ZM38.3108 64.7108L69.1108 33.9108C70.8312 32.1904 70.8312 29.4096 69.1108 27.6892C67.3904 25.9688 64.6096 25.9688 62.8892 27.6892L35.2 55.3784L25.1108 45.2892C23.3904 43.5688 20.6096 43.5688 18.8892 45.2892C17.1688 47.0096 17.1688 49.7904 18.8892 51.5108L32.0892 64.7108C32.9472 65.5688 34.0736 66 35.2 66C36.3264 66 37.4528 65.5688 38.3108 64.7108Z" fill="#36BB3D"/>
</svg>
