<svg width="94" height="102" viewBox="0 0 94 102" fill="none" xmlns="http://www.w3.org/2000/svg">
<path d="M65.2032 99.3282C57.8992 99.269 46.9389 98.9812 36.1563 97.9656C28.7338 97.2631 21.0658 96.1544 15.2429 92.8536C13.6009 91.9226 11.8067 91.6941 10.2155 91.4994C9.53844 91.4148 8.90367 91.3386 8.36201 91.2117C4.23179 90.2384 1.34572 86.6667 1.3288 82.5281L1.26955 54.8099C1.26109 50.9759 3.99481 47.7683 7.77802 47.1758C7.84573 47.1674 7.90497 47.1504 7.97268 47.1335C8.43818 46.9812 19.5593 43.3588 27.9382 36.808C31.8822 33.7272 35.2592 28.9792 36.9773 24.1126C38.6869 19.263 38.6784 13.9733 38.67 9.72462C38.67 6.98243 38.6615 3.57162 39.4063 3.07227C41.2175 1.87891 43.2149 1.26953 45.3392 1.26953C51.8731 1.26953 58.5424 7.23633 58.8048 13.3132C58.991 17.528 57.5775 22.5046 56.2149 27.3119C54.6068 33.0078 53.2103 37.9252 54.4714 41.2683C54.6576 41.7676 55.1316 42.0892 55.6563 42.0892C55.6732 42.0892 61.8262 41.8776 61.8262 41.8776H61.8855C68.7917 41.8776 74.4115 47.4974 74.42 54.3952L74.4623 90.1199C74.4623 92.5828 73.5144 94.8933 71.7709 96.6283C70.0359 98.3634 67.7253 99.3282 65.2624 99.3282H65.2032Z" fill="url(#paint0_radial_1735_17177)"/>
<path d="M45.3392 2.53906C51.1452 2.53906 57.2982 8.00652 57.5352 13.3639C57.7129 17.3757 56.3334 22.2507 54.9962 26.9649C53.3204 32.8724 51.8816 37.9759 53.2865 41.7084C53.6589 42.6986 54.6068 43.3503 55.6648 43.3503H55.7579L61.8516 43.1387H61.9024C68.1062 43.1387 73.1589 48.183 73.1674 54.3952L73.2097 90.1199C73.2097 92.2358 72.3887 94.2331 70.8907 95.7312C69.3926 97.2292 67.4037 98.0587 65.2794 98.0587H65.2117C57.933 97.9994 47.0066 97.7117 36.2748 96.7045C28.9961 96.019 21.4805 94.9356 15.8692 91.7533C14.0072 90.6954 11.9929 90.4499 10.3763 90.2468C9.7331 90.1706 9.13218 90.0945 8.65823 89.976C5.10354 89.1381 2.61525 86.0743 2.60679 82.5281L2.53908 54.8099C2.53062 51.6107 4.81578 48.9278 7.97268 48.4369C8.09963 48.42 8.23505 48.3861 8.35354 48.3438C8.8275 48.1914 20.1517 44.4929 28.7084 37.8067C32.8301 34.5821 36.3679 29.6224 38.1622 24.5358C39.948 19.4831 39.9395 14.0749 39.931 9.72462C39.931 7.65951 39.9226 4.86654 40.278 4.02019C41.8353 3.02995 43.5365 2.53906 45.3392 2.53906ZM45.3392 0C43.0964 0 40.8282 0.609376 38.7038 2.01432C35.9616 3.82552 38.9323 14.7266 35.7754 23.681C33.8796 29.0554 30.2657 33.3718 27.1511 35.8008C18.8568 42.2839 7.58336 45.9232 7.58336 45.9232C3.2077 46.6088 -0.00844688 50.3835 1.66652e-05 54.8184L0.0677258 82.5365C0.0846529 87.31 3.42775 91.3471 8.07424 92.4473C9.95315 92.8874 12.5176 92.769 14.6166 93.9623C20.2279 97.1446 27.4219 98.4141 36.0378 99.2266C46.7019 100.234 57.5352 100.53 65.1947 100.598H65.2794C71.06 100.598 75.7572 95.9089 75.7488 90.1199L75.7065 54.3952C75.698 46.7696 69.5111 40.6081 61.9024 40.6081H61.8008L55.6732 40.8197C53.5574 35.1999 60.489 22.5554 60.0827 13.2539C59.7865 6.64389 52.7364 0 45.3392 0Z" fill="#EDA600"/>
<path d="M48.7839 49.2495C50.3751 53.4813 50.392 60.0829 48.7839 64.1623C46.4565 70.0529 40.7605 75.2072 34.1843 76.1128C32.5762 76.3329 33.5326 77.814 35.1322 77.5939C42.2501 76.6122 51.8816 73.7261 54.3868 67.3361C61.2592 49.7743 53.2188 40.5744 49.6303 43.3166C47.9037 44.6538 47.8868 46.8543 48.7839 49.2495Z" fill="#EDA600"/>
<path d="M65.8462 55.5294C58.7707 55.5294 50.2649 54.2175 49.9009 47.946C49.7994 46.1517 50.341 44.6452 51.5598 43.3503C54.7675 39.948 62.647 38.0775 73.7512 38.0775C77.7799 38.0775 80.7167 38.3399 80.7506 38.3399C80.7844 38.3399 80.8267 38.3483 80.8606 38.3483H80.9368C81.0552 38.3399 81.1653 38.3399 81.2838 38.3399C84.8808 38.3399 87.8853 41.5814 88.1308 45.7201C88.3847 50.0027 85.5663 53.6589 81.8508 53.8705C81.7916 53.8705 81.7239 53.879 81.6646 53.8959C81.5885 53.9043 73.7512 55.5294 65.8462 55.5294Z" fill="url(#paint1_radial_1735_17177)"/>
<path d="M73.7599 39.347C77.7208 39.347 80.6153 39.601 80.6407 39.601C80.7169 39.6094 80.7931 39.6094 80.8692 39.6094C80.92 39.6094 80.9708 39.6094 81.0131 39.601C81.1062 39.5925 81.1993 39.5925 81.284 39.5925C84.2039 39.5925 86.6583 42.3093 86.8614 45.7709C86.963 47.5652 86.4552 49.2663 85.4311 50.5697C84.4747 51.7885 83.1713 52.4994 81.7748 52.584C81.6479 52.5925 81.5209 52.6094 81.4025 52.6348C81.3263 52.6517 73.5991 54.2514 65.8464 54.2514C61.3438 54.2514 57.7722 53.7266 55.2416 52.6941C51.7631 51.2722 51.2468 49.2579 51.1707 47.8698C51.086 46.4226 51.5092 45.2631 52.491 44.2136C55.4109 41.1244 63.1635 39.347 73.7599 39.347ZM73.7599 36.808C64.0945 36.808 48.0645 38.2722 48.6316 48.0222C49.0463 55.0639 57.5437 56.7989 65.8464 56.7989C73.9799 56.7989 81.9272 55.1316 81.9272 55.1316C86.3452 54.8692 89.6967 50.6205 89.4005 45.6355C89.1212 40.8112 85.5327 37.0619 81.2924 37.0619C81.1485 37.0619 81.0131 37.0619 80.8692 37.0704C80.8692 37.0704 77.8985 36.808 73.7599 36.808Z" fill="#EDA600"/>
<path d="M71.1529 71.6355C61.9191 71.6355 50.9165 70.0866 50.9165 62.6895C50.9165 55.2924 61.9191 53.7435 71.1529 53.7435C78.9816 53.7435 86.1164 54.8861 86.1841 54.8946C86.2518 54.903 86.3195 54.9115 86.3872 54.9115C90.1197 54.9115 92.718 58.8555 92.718 62.3933C92.718 66.1257 89.9504 70.459 86.3872 70.459C86.3195 70.459 86.2518 70.4675 86.1841 70.476C86.1079 70.4929 78.9732 71.6355 71.1529 71.6355Z" fill="url(#paint2_radial_1735_17177)"/>
<path d="M71.1529 55.0215C78.8716 55.0215 85.9133 56.1471 85.981 56.1556C86.1164 56.181 86.2518 56.1895 86.3872 56.1895C89.2818 56.1895 91.4484 59.4733 91.4484 62.4017C91.4484 65.457 89.1125 69.1979 86.3872 69.1979C86.2518 69.1979 86.1164 69.2064 85.981 69.2318C85.9133 69.2402 78.8631 70.3659 71.1529 70.3659C65.3722 70.3659 60.7765 69.7565 57.4842 68.5462C52.7362 66.8027 52.186 64.3652 52.186 62.6895C52.186 61.0052 52.7362 58.5762 57.4842 56.8327C60.7681 55.6309 65.3722 55.0215 71.1529 55.0215ZM71.1529 52.4824C61.0558 52.4824 49.647 54.3359 49.647 62.6979C49.647 71.0599 61.0474 72.9134 71.1529 72.9134C79.1848 72.9134 86.3872 71.7455 86.3872 71.7455C90.7544 71.7455 93.9875 66.7435 93.9875 62.4102C93.9875 58.0768 90.7544 53.6589 86.3872 53.6589C86.3872 53.6504 79.1763 52.4824 71.1529 52.4824Z" fill="#EDA600"/>
<path d="M78.1862 99.7684C74.6231 99.7684 56.5703 99.4891 51.1029 94.0131C50.1465 93.0568 49.6895 92.0242 49.6895 90.8562C49.7064 86.4129 57.3151 83.8654 70.5606 83.8654C75.2832 83.8654 78.9395 84.2039 78.9818 84.2039C79.0156 84.2039 79.058 84.2124 79.0918 84.2124C81.0723 84.2208 82.9427 85.0249 84.3392 86.4891C85.7526 87.9617 86.5228 89.9253 86.5228 92.0073C86.5059 96.2814 83.1628 99.7514 79.0664 99.7514C79.0072 99.7684 78.711 99.7684 78.1862 99.7684Z" fill="url(#paint3_radial_1735_17177)"/>
<path d="M70.5689 85.1433C75.2154 85.1433 78.8293 85.4734 78.8632 85.4818C78.9394 85.4903 79.0155 85.4903 79.0917 85.4903C80.7252 85.4988 82.2655 86.1674 83.425 87.3777C84.6099 88.6134 85.2616 90.2638 85.2532 92.0157C85.2447 95.5873 82.4687 98.4988 79.0409 98.4988H79.0325H78.9817C78.9647 98.4988 78.677 98.5072 78.1776 98.5072C62.8163 98.5072 54.4712 95.6043 51.9914 93.1244C51.052 92.185 50.9504 91.3894 50.9504 90.8731C50.9758 87.3354 58.483 85.1433 70.5689 85.1433ZM70.5689 82.6042C61.496 82.6042 48.4452 83.823 48.4283 90.8562C48.3944 100.555 73.2265 101.038 78.1861 101.038C78.7362 101.038 79.0409 101.029 79.0409 101.029H79.0663C83.8736 101.029 87.7753 97.0007 87.7922 92.0157C87.8092 87.0222 83.9159 82.9597 79.1002 82.9428C79.1002 82.9512 75.4016 82.6042 70.5689 82.6042Z" fill="#EDA600"/>
<path d="M75.0207 86.3367C67.412 86.3367 49.7231 85.4734 49.7231 77.4753C49.7231 70.7553 62.4777 69.7566 70.0864 69.7566C76.815 69.7566 82.6125 70.5014 82.6717 70.5098C82.7225 70.5183 82.7818 70.5183 82.8325 70.5183C86.3618 70.5183 90.4751 72.2618 90.4751 77.1791C90.4751 81.8341 86.8358 86.0658 82.8325 86.0658H82.731C82.6971 86.0743 79.4387 86.3367 75.0207 86.3367Z" fill="url(#paint4_radial_1735_17177)"/>
<path d="M70.0869 68.4954V71.0344C76.7139 71.0344 82.4522 71.7708 82.503 71.7792C82.613 71.7961 82.723 71.7961 82.833 71.7961C85.9138 71.7961 89.2061 73.2096 89.2061 77.1874C89.2061 81.1061 86.1084 84.8046 82.833 84.8046C82.7653 84.8046 82.6976 84.8046 82.6214 84.8131C82.5876 84.8131 79.3799 85.0755 75.0127 85.0755C70.4001 85.0755 63.807 84.7792 58.585 83.3912C53.5492 82.0455 50.9932 80.0566 50.9932 77.4921C50.9932 76.705 50.9932 74.3098 56.3591 72.6256C59.7022 71.5761 64.3148 71.0429 70.0785 71.0429L70.0869 68.4954ZM70.0869 68.4954C60.3031 68.4954 48.4541 70.0357 48.4541 77.4837C48.4541 86.2604 64.8734 87.6145 75.0212 87.6145C79.5576 87.6145 82.833 87.3437 82.833 87.3437C87.6065 87.3437 91.7451 82.4094 91.7451 77.1874C91.7451 71.9654 87.6065 69.2571 82.833 69.2571C82.833 69.2571 76.9678 68.4954 70.0869 68.4954Z" fill="#EDA600"/>
<path d="M16.3432 93.5983L12.2891 77.6022L10.5964 91.9902L16.3432 93.5983Z" fill="#EDA600"/>
<defs>
<radialGradient id="paint0_radial_1735_17177" cx="0" cy="0" r="1" gradientUnits="userSpaceOnUse" gradientTransform="translate(36.6379 22.9287) rotate(90.125) scale(73.6661 57.9973)">
<stop offset="0.6" stop-color="#FFCA28"/>
<stop offset="1" stop-color="#FFB300"/>
</radialGradient>
<radialGradient id="paint1_radial_1735_17177" cx="0" cy="0" r="1" gradientUnits="userSpaceOnUse" gradientTransform="translate(79.9569 46.0648) rotate(176.727) scale(23.9278 11.7083)">
<stop offset="0.5993" stop-color="#FFCA28"/>
<stop offset="1" stop-color="#FFB300"/>
</radialGradient>
<radialGradient id="paint2_radial_1735_17177" cx="0" cy="0" r="1" gradientUnits="userSpaceOnUse" gradientTransform="translate(83.7359 62.4666) rotate(-179.936) scale(26.9295 10.7991)">
<stop offset="0.5993" stop-color="#FFCA28"/>
<stop offset="1" stop-color="#FFB300"/>
</radialGradient>
<radialGradient id="paint3_radial_1735_17177" cx="0" cy="0" r="1" gradientUnits="userSpaceOnUse" gradientTransform="translate(78.4852 91.6485) rotate(-179.726) scale(22.6156 11.7743)">
<stop offset="0.5993" stop-color="#FFCA28"/>
<stop offset="1" stop-color="#FFB300"/>
</radialGradient>
<radialGradient id="paint4_radial_1735_17177" cx="0" cy="0" r="1" gradientUnits="userSpaceOnUse" gradientTransform="translate(81.7038 77.845) rotate(-179.934) scale(25.7663 10.7174)">
<stop offset="0.5993" stop-color="#FFCA28"/>
<stop offset="1" stop-color="#FFB300"/>
</radialGradient>
</defs>
</svg>
