<svg width="78" height="78" viewBox="0 0 78 78" fill="none" xmlns="http://www.w3.org/2000/svg">
<path opacity="0.4" d="M59.404 63.6795C57.6366 68.2105 53.3305 71.1348 48.4782 71.1348H29.5186C24.6341 71.1348 20.3602 68.2105 18.5927 63.6795C16.8253 59.1164 18.0465 54.0712 21.6456 50.7935L34.6602 39H43.3687L56.3512 50.7935C59.9503 54.0712 61.1393 59.1164 59.404 63.6795Z" fill="#0B00D8"/>
<path d="M44.8485 58.7301H33.1514C31.9303 58.7301 30.9662 57.7339 30.9662 56.5449C30.9662 55.3238 31.9624 54.3598 33.1514 54.3598H44.8485C46.0696 54.3598 47.0336 55.356 47.0336 56.5449C47.0336 57.7339 46.0375 58.7301 44.8485 58.7301Z" fill="#0B00D8"/>
<path d="M59.4014 14.3204C57.6339 9.78942 53.3279 6.86515 48.4755 6.86515H29.516C24.6636 6.86515 20.3575 9.78942 18.5901 14.3204C16.8548 18.8836 18.0438 23.9287 21.6751 27.2065L34.6575 39H43.3661L56.3486 27.2065C59.9477 23.9287 61.1366 18.8836 59.4014 14.3204ZM44.8443 23.6717H33.1472C31.9261 23.6717 30.962 22.6755 30.962 21.4865C30.962 20.2975 31.9582 19.3013 33.1472 19.3013H44.8443C46.0654 19.3013 47.0295 20.2975 47.0295 21.4865C47.0295 22.6755 46.0333 23.6717 44.8443 23.6717Z" fill="#0B00D8"/>
</svg>
