<svg width="165" height="164" viewBox="0 0 165 164" fill="none" xmlns="http://www.w3.org/2000/svg">
<rect width="4.45946" height="4.45946" rx="1.34409" fill="#EF4D53"/>
<rect x="17.8381" width="4.45946" height="4.45946" rx="1.34409" fill="#EF4D53"/>
<rect x="35.6764" width="4.45946" height="4.45946" rx="1.34409" fill="#EF4D53"/>
<rect x="53.5129" width="4.45946" height="4.45946" rx="1.34409" fill="#EF4D53"/>
<rect x="71.3512" width="4.45946" height="4.45946" rx="1.34409" fill="#EF4D53"/>
<rect x="89.1893" width="4.45946" height="4.45946" rx="1.34409" fill="#EF4D53"/>
<rect x="107.027" width="4.45946" height="4.45946" rx="1.34409" fill="#EF4D53"/>
<rect x="124.866" width="4.45946" height="4.45946" rx="1.34409" fill="#EF4D53"/>
<rect x="142.702" width="4.45946" height="4.45946" rx="1.34409" fill="#EF4D53"/>
<rect x="160.541" width="4.45946" height="4.45946" rx="1.34409" fill="#EF4D53"/>
<rect y="17.8379" width="4.45946" height="4.45946" rx="1.34409" fill="#EF4D53"/>
<rect x="17.8381" y="17.8379" width="4.45946" height="4.45946" rx="1.34409" fill="#EF4D53"/>
<rect x="35.6764" y="17.8379" width="4.45946" height="4.45946" rx="1.34409" fill="#EF4D53"/>
<rect x="53.5129" y="17.8379" width="4.45946" height="4.45946" rx="1.34409" fill="#EF4D53"/>
<rect x="71.3512" y="17.8379" width="4.45946" height="4.45946" rx="1.34409" fill="#EF4D53"/>
<rect x="89.1893" y="17.8379" width="4.45946" height="4.45946" rx="1.34409" fill="#EF4D53"/>
<rect x="107.027" y="17.8379" width="4.45946" height="4.45946" rx="1.34409" fill="#EF4D53"/>
<rect x="124.866" y="17.8379" width="4.45946" height="4.45946" rx="1.34409" fill="#EF4D53"/>
<rect x="142.702" y="17.8379" width="4.45946" height="4.45946" rx="1.34409" fill="#EF4D53"/>
<rect x="160.541" y="17.8379" width="4.45946" height="4.45946" rx="1.34409" fill="#EF4D53"/>
<rect y="35.6758" width="4.45946" height="4.45946" rx="1.34409" fill="#EF4D53"/>
<rect x="17.8381" y="35.6758" width="4.45946" height="4.45946" rx="1.34409" fill="#EF4D53"/>
<rect x="35.6764" y="35.6758" width="4.45946" height="4.45946" rx="1.34409" fill="#EF4D53"/>
<rect x="53.5129" y="35.6758" width="4.45946" height="4.45946" rx="1.34409" fill="#EF4D53"/>
<rect x="71.3512" y="35.6758" width="4.45946" height="4.45946" rx="1.34409" fill="#EF4D53"/>
<rect x="89.1893" y="35.6758" width="4.45946" height="4.45946" rx="1.34409" fill="#EF4D53"/>
<rect x="107.027" y="35.6758" width="4.45946" height="4.45946" rx="1.34409" fill="#EF4D53"/>
<rect x="124.866" y="35.6758" width="4.45946" height="4.45946" rx="1.34409" fill="#EF4D53"/>
<rect x="142.702" y="35.6758" width="4.45946" height="4.45946" rx="1.34409" fill="#EF4D53"/>
<rect x="160.541" y="35.6758" width="4.45946" height="4.45946" rx="1.34409" fill="#EF4D53"/>
<rect y="53.5137" width="4.45946" height="4.45946" rx="1.34409" fill="#EF4D53"/>
<rect x="17.8381" y="53.5137" width="4.45946" height="4.45946" rx="1.34409" fill="#EF4D53"/>
<rect x="35.6764" y="53.5137" width="4.45946" height="4.45946" rx="1.34409" fill="#EF4D53"/>
<rect x="53.5129" y="53.5137" width="4.45946" height="4.45946" rx="1.34409" fill="#EF4D53"/>
<rect x="71.3512" y="53.5137" width="4.45946" height="4.45946" rx="1.34409" fill="#EF4D53"/>
<rect x="89.1893" y="53.5137" width="4.45946" height="4.45946" rx="1.34409" fill="#EF4D53"/>
<rect x="107.027" y="53.5137" width="4.45946" height="4.45946" rx="1.34409" fill="#EF4D53"/>
<rect x="124.866" y="53.5137" width="4.45946" height="4.45946" rx="1.34409" fill="#EF4D53"/>
<rect x="142.702" y="53.5137" width="4.45946" height="4.45946" rx="1.34409" fill="#EF4D53"/>
<rect x="160.541" y="53.5137" width="4.45946" height="4.45946" rx="1.34409" fill="#EF4D53"/>
<rect y="71.3516" width="4.45946" height="4.45946" rx="1.34409" fill="#EF4D53"/>
<rect x="17.8381" y="71.3516" width="4.45946" height="4.45946" rx="1.34409" fill="#EF4D53"/>
<rect x="35.6764" y="71.3516" width="4.45946" height="4.45946" rx="1.34409" fill="#EF4D53"/>
<rect x="53.5129" y="71.3516" width="4.45946" height="4.45946" rx="1.34409" fill="#EF4D53"/>
<rect x="71.3512" y="71.3516" width="4.45946" height="4.45946" rx="1.34409" fill="#EF4D53"/>
<rect x="89.1893" y="71.3516" width="4.45946" height="4.45946" rx="1.34409" fill="#EF4D53"/>
<rect x="107.027" y="71.3516" width="4.45946" height="4.45946" rx="1.34409" fill="#EF4D53"/>
<rect x="124.866" y="71.3516" width="4.45946" height="4.45946" rx="1.34409" fill="#EF4D53"/>
<rect x="142.702" y="71.3516" width="4.45946" height="4.45946" rx="1.34409" fill="#EF4D53"/>
<rect x="160.541" y="71.3516" width="4.45946" height="4.45946" rx="1.34409" fill="#EF4D53"/>
<rect y="89.1895" width="4.45946" height="4.45946" rx="1.34409" fill="#EF4D53"/>
<rect x="17.8381" y="89.1895" width="4.45946" height="4.45946" rx="1.34409" fill="#EF4D53"/>
<rect x="35.6764" y="89.1895" width="4.45946" height="4.45946" rx="1.34409" fill="#EF4D53"/>
<rect x="53.5129" y="89.1895" width="4.45946" height="4.45946" rx="1.34409" fill="#EF4D53"/>
<rect x="71.3512" y="89.1895" width="4.45946" height="4.45946" rx="1.34409" fill="#EF4D53"/>
<rect x="89.1893" y="89.1895" width="4.45946" height="4.45946" rx="1.34409" fill="#EF4D53"/>
<rect x="107.027" y="89.1895" width="4.45946" height="4.45946" rx="1.34409" fill="#EF4D53"/>
<rect x="124.866" y="89.1895" width="4.45946" height="4.45946" rx="1.34409" fill="#EF4D53"/>
<rect x="142.702" y="89.1895" width="4.45946" height="4.45946" rx="1.34409" fill="#EF4D53"/>
<rect x="160.541" y="89.1895" width="4.45946" height="4.45946" rx="1.34409" fill="#EF4D53"/>
<rect y="107.027" width="4.45946" height="4.45946" rx="1.34409" fill="#EF4D53"/>
<rect y="124.231" width="4.45946" height="4.45946" rx="1.34409" fill="#EF4D53"/>
<rect y="141.435" width="4.45946" height="4.45946" rx="1.34409" fill="#EF4D53"/>
<rect y="158.639" width="4.45946" height="4.45946" rx="1.34409" fill="#EF4D53"/>
<rect x="17.8381" y="107.027" width="4.45946" height="4.45946" rx="1.34409" fill="#EF4D53"/>
<rect x="17.8381" y="124.231" width="4.45946" height="4.45946" rx="1.34409" fill="#EF4D53"/>
<rect x="17.8381" y="141.435" width="4.45946" height="4.45946" rx="1.34409" fill="#EF4D53"/>
<rect x="17.8381" y="158.639" width="4.45946" height="4.45946" rx="1.34409" fill="#EF4D53"/>
<rect x="35.6764" y="107.027" width="4.45946" height="4.45946" rx="1.34409" fill="#EF4D53"/>
<rect x="35.6764" y="124.231" width="4.45946" height="4.45946" rx="1.34409" fill="#EF4D53"/>
<rect x="35.6764" y="141.435" width="4.45946" height="4.45946" rx="1.34409" fill="#EF4D53"/>
<rect x="35.6764" y="158.639" width="4.45946" height="4.45946" rx="1.34409" fill="#EF4D53"/>
<rect x="53.5129" y="107.027" width="4.45946" height="4.45946" rx="1.34409" fill="#EF4D53"/>
<rect x="53.5129" y="124.231" width="4.45946" height="4.45946" rx="1.34409" fill="#EF4D53"/>
<rect x="53.5129" y="141.435" width="4.45946" height="4.45946" rx="1.34409" fill="#EF4D53"/>
<rect x="53.5129" y="158.639" width="4.45946" height="4.45946" rx="1.34409" fill="#EF4D53"/>
<rect x="71.3512" y="107.027" width="4.45946" height="4.45946" rx="1.34409" fill="#EF4D53"/>
<rect x="71.3512" y="124.231" width="4.45946" height="4.45946" rx="1.34409" fill="#EF4D53"/>
<rect x="71.3512" y="141.435" width="4.45946" height="4.45946" rx="1.34409" fill="#EF4D53"/>
<rect x="71.3512" y="158.639" width="4.45946" height="4.45946" rx="1.34409" fill="#EF4D53"/>
<rect x="89.1893" y="107.027" width="4.45946" height="4.45946" rx="1.34409" fill="#EF4D53"/>
<rect x="89.1893" y="124.231" width="4.45946" height="4.45946" rx="1.34409" fill="#EF4D53"/>
<rect x="89.1893" y="141.435" width="4.45946" height="4.45946" rx="1.34409" fill="#EF4D53"/>
<rect x="89.1893" y="158.639" width="4.45946" height="4.45946" rx="1.34409" fill="#EF4D53"/>
<rect x="107.027" y="107.027" width="4.45946" height="4.45946" rx="1.34409" fill="#EF4D53"/>
<rect x="107.027" y="124.231" width="4.45946" height="4.45946" rx="1.34409" fill="#EF4D53"/>
<rect x="107.027" y="141.435" width="4.45946" height="4.45946" rx="1.34409" fill="#EF4D53"/>
<rect x="107.027" y="158.639" width="4.45946" height="4.45946" rx="1.34409" fill="#EF4D53"/>
<rect x="124.866" y="107.027" width="4.45946" height="4.45946" rx="1.34409" fill="#EF4D53"/>
<rect x="124.866" y="124.231" width="4.45946" height="4.45946" rx="1.34409" fill="#EF4D53"/>
<rect x="124.866" y="141.435" width="4.45946" height="4.45946" rx="1.34409" fill="#EF4D53"/>
<rect x="124.866" y="158.639" width="4.45946" height="4.45946" rx="1.34409" fill="#EF4D53"/>
<rect x="142.702" y="107.027" width="4.45946" height="4.45946" rx="1.34409" fill="#EF4D53"/>
<rect x="142.702" y="124.231" width="4.45946" height="4.45946" rx="1.34409" fill="#EF4D53"/>
<rect x="142.702" y="141.435" width="4.45946" height="4.45946" rx="1.34409" fill="#EF4D53"/>
<rect x="142.702" y="158.639" width="4.45946" height="4.45946" rx="1.34409" fill="#EF4D53"/>
<rect x="160.541" y="107.027" width="4.45946" height="4.45946" rx="1.34409" fill="#EF4D53"/>
<rect x="160.541" y="124.231" width="4.45946" height="4.45946" rx="1.34409" fill="#EF4D53"/>
<rect x="160.541" y="141.435" width="4.45946" height="4.45946" rx="1.34409" fill="#EF4D53"/>
<rect x="160.541" y="158.639" width="4.45946" height="4.45946" rx="1.34409" fill="#EF4D53"/>
</svg>
