<svg width="70" height="70" viewBox="0 0 70 70" fill="none" xmlns="http://www.w3.org/2000/svg">
<g clip-path="url(#clip0_1258_12883)">
<rect width="70" height="70" rx="35" fill="#5E8FD8"/>
<g filter="url(#filter0_if_1258_12883)">
<path d="M60 39.5833C60 49.7546 51.7546 58 41.5833 58C31.4121 58 23.1667 49.7546 23.1667 39.5833C23.1667 29.4121 31.4121 21.1667 41.5833 21.1667C51.7546 21.1667 60 29.4121 60 39.5833Z" fill="url(#paint0_radial_1258_12883)" fill-opacity="0.57"/>
</g>
<g filter="url(#filter1_i_1258_12883)">
<path d="M55 35C55 46.0457 46.0457 55 35 55C23.9543 55 15 46.0457 15 35C15 23.9543 23.9543 15 35 15C46.0457 15 55 23.9543 55 35Z" fill="url(#paint1_radial_1258_12883)"/>
</g>
<mask id="mask0_1258_12883" style="mask-type:alpha" maskUnits="userSpaceOnUse" x="15" y="15" width="40" height="40">
<path d="M55 35C55 46.0457 46.0457 55 35 55C23.9543 55 15 46.0457 15 35C15 23.9543 23.9543 15 35 15C46.0457 15 55 23.9543 55 35Z" fill="#EC1D1D"/>
</mask>
<g mask="url(#mask0_1258_12883)">
<g filter="url(#filter2_f_1258_12883)">
<path d="M55.25 32.3333C55.25 44.3455 45.5122 54.0833 33.5 54.0833C21.4878 54.0833 11.75 44.3455 11.75 32.3333C11.75 20.3211 21.4878 10.5833 33.5 10.5833C45.5122 10.5833 55.25 20.3211 55.25 32.3333Z" stroke="#C04F0F" stroke-width="1.83333"/>
</g>
<g filter="url(#filter3_f_1258_12883)">
<path d="M58 35.5C58 47.3741 48.3741 57 36.5 57C24.6259 57 15 47.3741 15 35.5C15 23.6259 24.6259 14 36.5 14C48.3741 14 58 23.6259 58 35.5Z" stroke="#D15353"/>
</g>
</g>
<g filter="url(#filter4_if_1258_12883)">
<path d="M103.199 99.0796C103.199 111.094 93.4364 120.833 81.3895 120.833H2.47236C-13.5417 120.833 -26.5256 107.884 -26.5256 91.9047C-26.5256 75.9297 -13.5417 62.9761 2.47236 62.9761C3.90855 62.9761 5.32025 63.0861 6.70438 63.2862C13.253 50.3128 26.7207 41.4103 42.2785 41.4103C61.1036 41.4103 76.8742 54.4494 81.0174 71.9672C81.4308 73.7163 81.7294 75.5081 81.9009 77.3335V77.3381C93.7058 77.6069 103.199 87.2366 103.199 99.0796Z" fill="#DDDBD9"/>
</g>
<g filter="url(#filter5_i_1258_12883)">
<path d="M96.3911 90.0027C96.3911 102.017 86.6287 111.756 74.5818 111.756H-4.33532C-20.3493 111.756 -33.3333 98.8074 -33.3333 82.8278C-33.3333 66.8528 -20.3493 53.8992 -4.33532 53.8992C-2.89913 53.8992 -1.48743 54.0092 -0.103298 54.2093C6.44532 41.2359 19.9131 32.3333 35.4708 32.3333C54.296 32.3333 70.0665 45.3724 74.2097 62.8903C74.6231 64.6393 74.9217 66.4312 75.0932 68.2566V68.2612C86.8982 68.53 96.3911 78.1596 96.3911 90.0027Z" fill="url(#paint2_radial_1258_12883)"/>
</g>
<mask id="mask1_1258_12883" style="mask-type:alpha" maskUnits="userSpaceOnUse" x="-34" y="32" width="131" height="80">
<path d="M96.3911 90.0027C96.3911 102.017 86.6286 111.756 74.5817 111.756H-4.33538C-20.3494 111.756 -33.3333 98.8074 -33.3333 82.8278C-33.3333 66.8528 -20.3494 53.8992 -4.33538 53.8992C-2.89919 53.8992 -1.48749 54.0092 -0.103359 54.2093C6.44526 41.2359 19.913 32.3333 35.4707 32.3333C54.2959 32.3333 70.0665 45.3724 74.2097 62.8903C74.6231 64.6393 74.9217 66.4312 75.0931 68.2566V68.2612C86.8981 68.53 96.3911 78.1596 96.3911 90.0027Z" fill="url(#paint3_radial_1258_12883)"/>
</mask>
<g mask="url(#mask1_1258_12883)">
<g filter="url(#filter6_f_1258_12883)">
<path d="M11.5097 83.2019C-1.50056 82.1429 -4.62705 62.9679 -4.56402 53.5128C-4.86673 52.3026 -2.4208 52.7564 -1.15999 53.1346L4.32395 45.1923C-6.41707 73.0282 4.70207 82.2564 11.5097 83.2019Z" fill="white"/>
</g>
<g filter="url(#filter7_f_1258_12883)">
<path d="M60.4617 91.1442C73.4719 90.0853 76.5984 70.9103 76.5354 61.4551C76.8381 60.2449 74.3922 60.6987 73.1314 61.0769L67.6474 53.1346C78.3884 80.9705 67.2693 90.1987 60.4617 91.1442Z" fill="white"/>
</g>
<g filter="url(#filter8_f_1258_12883)">
<path d="M-10.6164 51.9604L-9.13546 52.1746L-8.46145 50.8386C-1.50874 37.0574 12.7877 27.6058 29.3004 27.6058C49.282 27.6058 66.0227 41.453 70.4197 60.0534C70.8512 61.8802 71.1646 63.7498 71.3478 65.653V67.5928L73.3805 67.6391C85.4046 67.9131 95.0673 77.7265 95.0673 89.7858C95.0673 102.02 85.13 111.946 72.8584 111.946H-15.0318C-31.7217 111.946 -45.2468 98.4441 -45.2468 81.7909C-45.2468 65.1426 -31.7215 51.6363 -15.0318 51.6363C-13.5388 51.6363 -12.0663 51.7507 -10.6164 51.9604Z" stroke="#CDCDCD" stroke-width="4.16026"/>
</g>
<g filter="url(#filter9_f_1258_12883)">
<path d="M3.37719 51.9604L4.85814 52.1746L5.53214 50.8386C12.4849 37.0574 26.7813 27.6058 43.294 27.6058C63.2756 27.6058 80.0163 41.453 84.4133 60.0534C84.8448 61.8802 85.1582 63.7498 85.3414 65.653V67.5928L87.3741 67.6391C99.3982 67.9131 109.061 77.7265 109.061 89.7858C109.061 102.02 99.1236 111.946 86.852 111.946H-1.03824C-17.7281 111.946 -31.2532 98.4441 -31.2532 81.7909C-31.2532 65.1426 -17.7279 51.6363 -1.03824 51.6363C0.454754 51.6363 1.92727 51.7507 3.37719 51.9604Z" stroke="white" stroke-width="4.16026"/>
</g>
</g>
</g>
<defs>
<filter id="filter0_if_1258_12883" x="9.16666" y="7.16666" width="64.8333" height="64.8333" filterUnits="userSpaceOnUse" color-interpolation-filters="sRGB">
<feFlood flood-opacity="0" result="BackgroundImageFix"/>
<feBlend mode="normal" in="SourceGraphic" in2="BackgroundImageFix" result="shape"/>
<feColorMatrix in="SourceAlpha" type="matrix" values="0 0 0 0 0 0 0 0 0 0 0 0 0 0 0 0 0 0 127 0" result="hardAlpha"/>
<feOffset dy="0.666667"/>
<feGaussianBlur stdDeviation="3.66667"/>
<feComposite in2="hardAlpha" operator="arithmetic" k2="-1" k3="1"/>
<feColorMatrix type="matrix" values="0 0 0 0 1 0 0 0 0 1 0 0 0 0 1 0 0 0 1 0"/>
<feBlend mode="normal" in2="shape" result="effect1_innerShadow_1258_12883"/>
<feGaussianBlur stdDeviation="7" result="effect2_foregroundBlur_1258_12883"/>
</filter>
<filter id="filter1_i_1258_12883" x="15" y="15" width="40" height="40.6667" filterUnits="userSpaceOnUse" color-interpolation-filters="sRGB">
<feFlood flood-opacity="0" result="BackgroundImageFix"/>
<feBlend mode="normal" in="SourceGraphic" in2="BackgroundImageFix" result="shape"/>
<feColorMatrix in="SourceAlpha" type="matrix" values="0 0 0 0 0 0 0 0 0 0 0 0 0 0 0 0 0 0 127 0" result="hardAlpha"/>
<feOffset dy="0.666667"/>
<feGaussianBlur stdDeviation="3.66667"/>
<feComposite in2="hardAlpha" operator="arithmetic" k2="-1" k3="1"/>
<feColorMatrix type="matrix" values="0 0 0 0 1 0 0 0 0 1 0 0 0 0 1 0 0 0 1 0"/>
<feBlend mode="normal" in2="shape" result="effect1_innerShadow_1258_12883"/>
</filter>
<filter id="filter2_f_1258_12883" x="6.83334" y="5.66666" width="53.3333" height="53.3333" filterUnits="userSpaceOnUse" color-interpolation-filters="sRGB">
<feFlood flood-opacity="0" result="BackgroundImageFix"/>
<feBlend mode="normal" in="SourceGraphic" in2="BackgroundImageFix" result="shape"/>
<feGaussianBlur stdDeviation="2" result="effect1_foregroundBlur_1258_12883"/>
</filter>
<filter id="filter3_f_1258_12883" x="13.5" y="12.5" width="46" height="46" filterUnits="userSpaceOnUse" color-interpolation-filters="sRGB">
<feFlood flood-opacity="0" result="BackgroundImageFix"/>
<feBlend mode="normal" in="SourceGraphic" in2="BackgroundImageFix" result="shape"/>
<feGaussianBlur stdDeviation="0.5" result="effect1_foregroundBlur_1258_12883"/>
</filter>
<filter id="filter4_if_1258_12883" x="-39.3845" y="28.5513" width="155.442" height="105.141" filterUnits="userSpaceOnUse" color-interpolation-filters="sRGB">
<feFlood flood-opacity="0" result="BackgroundImageFix"/>
<feBlend mode="normal" in="SourceGraphic" in2="BackgroundImageFix" result="shape"/>
<feColorMatrix in="SourceAlpha" type="matrix" values="0 0 0 0 0 0 0 0 0 0 0 0 0 0 0 0 0 0 127 0" result="hardAlpha"/>
<feOffset dy="1.51282"/>
<feGaussianBlur stdDeviation="8.32051"/>
<feComposite in2="hardAlpha" operator="arithmetic" k2="-1" k3="1"/>
<feColorMatrix type="matrix" values="0 0 0 0 1 0 0 0 0 1 0 0 0 0 1 0 0 0 1 0"/>
<feBlend mode="normal" in2="shape" result="effect1_innerShadow_1258_12883"/>
<feGaussianBlur stdDeviation="6.42949" result="effect2_foregroundBlur_1258_12883"/>
</filter>
<filter id="filter5_i_1258_12883" x="-33.3333" y="32.3333" width="129.724" height="80.9359" filterUnits="userSpaceOnUse" color-interpolation-filters="sRGB">
<feFlood flood-opacity="0" result="BackgroundImageFix"/>
<feBlend mode="normal" in="SourceGraphic" in2="BackgroundImageFix" result="shape"/>
<feColorMatrix in="SourceAlpha" type="matrix" values="0 0 0 0 0 0 0 0 0 0 0 0 0 0 0 0 0 0 127 0" result="hardAlpha"/>
<feOffset dy="1.51282"/>
<feGaussianBlur stdDeviation="8.32051"/>
<feComposite in2="hardAlpha" operator="arithmetic" k2="-1" k3="1"/>
<feColorMatrix type="matrix" values="0 0 0 0 1 0 0 0 0 1 0 0 0 0 1 0 0 0 1 0"/>
<feBlend mode="normal" in2="shape" result="effect1_innerShadow_1258_12883"/>
</filter>
<filter id="filter6_f_1258_12883" x="-7.99357" y="41.7885" width="22.9071" height="44.8173" filterUnits="userSpaceOnUse" color-interpolation-filters="sRGB">
<feFlood flood-opacity="0" result="BackgroundImageFix"/>
<feBlend mode="normal" in="SourceGraphic" in2="BackgroundImageFix" result="shape"/>
<feGaussianBlur stdDeviation="1.70192" result="effect1_foregroundBlur_1258_12883"/>
</filter>
<filter id="filter7_f_1258_12883" x="57.0578" y="49.7308" width="22.9071" height="44.8173" filterUnits="userSpaceOnUse" color-interpolation-filters="sRGB">
<feFlood flood-opacity="0" result="BackgroundImageFix"/>
<feBlend mode="normal" in="SourceGraphic" in2="BackgroundImageFix" result="shape"/>
<feGaussianBlur stdDeviation="1.70192" result="effect1_foregroundBlur_1258_12883"/>
</filter>
<filter id="filter8_f_1258_12883" x="-56.4038" y="16.4487" width="162.628" height="106.654" filterUnits="userSpaceOnUse" color-interpolation-filters="sRGB">
<feFlood flood-opacity="0" result="BackgroundImageFix"/>
<feBlend mode="normal" in="SourceGraphic" in2="BackgroundImageFix" result="shape"/>
<feGaussianBlur stdDeviation="4.53846" result="effect1_foregroundBlur_1258_12883"/>
</filter>
<filter id="filter9_f_1258_12883" x="-42.4102" y="16.4487" width="162.628" height="106.654" filterUnits="userSpaceOnUse" color-interpolation-filters="sRGB">
<feFlood flood-opacity="0" result="BackgroundImageFix"/>
<feBlend mode="normal" in="SourceGraphic" in2="BackgroundImageFix" result="shape"/>
<feGaussianBlur stdDeviation="4.53846" result="effect1_foregroundBlur_1258_12883"/>
</filter>
<radialGradient id="paint0_radial_1258_12883" cx="0" cy="0" r="1" gradientUnits="userSpaceOnUse" gradientTransform="translate(47.3262 31.1671) rotate(121.811) scale(30.9934)">
<stop stop-color="#FFD88B"/>
<stop offset="1" stop-color="#FF6400"/>
</radialGradient>
<radialGradient id="paint1_radial_1258_12883" cx="0" cy="0" r="1" gradientUnits="userSpaceOnUse" gradientTransform="translate(41.2366 25.8602) rotate(121.811) scale(33.658)">
<stop stop-color="#FFD88B"/>
<stop offset="1" stop-color="#FF0F00"/>
</radialGradient>
<radialGradient id="paint2_radial_1258_12883" cx="0" cy="0" r="1" gradientUnits="userSpaceOnUse" gradientTransform="translate(51.7548 53.8971) rotate(135.374) scale(80.8458 90.2333)">
<stop stop-color="white"/>
<stop offset="1" stop-color="#E7E7E7"/>
</radialGradient>
<radialGradient id="paint3_radial_1258_12883" cx="0" cy="0" r="1" gradientUnits="userSpaceOnUse" gradientTransform="translate(51.7547 53.8971) rotate(135.374) scale(80.8458 90.2333)">
<stop stop-color="white"/>
<stop offset="1" stop-color="#E7E7E7"/>
</radialGradient>
<clipPath id="clip0_1258_12883">
<rect width="70" height="70" rx="35" fill="white"/>
</clipPath>
</defs>
</svg>
