<svg width="41" height="31" viewBox="0 0 41 31" fill="none" xmlns="http://www.w3.org/2000/svg">
<path d="M28.3333 23.8229C28.3333 27.3379 25.4837 30.1875 21.9687 30.1875H7.28121C3.76614 30.1875 0.916626 27.3379 0.916626 23.8229V7.17708C0.916626 3.66201 3.76614 0.8125 7.28121 0.8125H21.9687C25.4837 0.8125 28.3333 3.66201 28.3333 7.17708V23.8229ZM39.6172 3.54112C39.918 3.89519 40.0833 4.34471 40.0833 4.80938V26.1901C40.0833 27.2717 39.2065 28.1485 38.125 28.1485C37.6602 28.1485 37.2108 27.9832 36.8567 27.6824L30.2916 22.1013V8.89638L36.8567 3.31719C37.6808 2.61675 38.9167 2.71702 39.6172 3.54112Z" fill="#E93030"/>
</svg>
