<svg  viewBox="0 0 20 20" fill="none" xmlns="http://www.w3.org/2000/svg">
<path fill-rule="evenodd" clip-rule="evenodd" d="M0 9.50904C0 4.2572 4.2572 0 9.50904 0C14.7609 0 19.0181 4.2572 19.0181 9.50904C19.0181 14.7609 14.7609 19.0181 9.50904 19.0181C4.2572 19.0181 0 14.7609 0 9.50904ZM7.74001 5.86151C7.63446 5.80588 7.52027 5.77886 7.40663 5.77886C7.27969 5.77886 7.15253 5.813 7.0389 5.88194C6.82305 6.01221 6.69438 6.24098 6.69438 6.49297V12.5253C6.69438 12.7773 6.82305 13.006 7.0389 13.1363C7.15253 13.2048 7.27921 13.2394 7.40663 13.2394C7.52027 13.2394 7.63493 13.2119 7.74001 13.1567L13.4705 10.1406C13.7059 10.017 13.8512 9.77582 13.8512 9.51005C13.8517 9.24427 13.7059 9.0022 13.4705 8.87859L7.74001 5.86151Z" fill="#fff"></path>
</svg>
