<svg width="23" height="23" viewBox="0 0 23 23" fill="none" xmlns="http://www.w3.org/2000/svg">
<circle cx="11.5" cy="11.5" r="11.5" fill="white"/>
<path d="M6.38144 5.74366C6.29006 5.74376 6.19976 5.76346 6.11663 5.80143C6.03351 5.8394 5.9595 5.89476 5.89959 5.96377C5.83969 6.03278 5.79529 6.11384 5.76938 6.20147C5.74347 6.28911 5.73666 6.38128 5.74941 6.47177V8.94435C5.74822 9.02901 5.76386 9.11306 5.79543 9.19163C5.827 9.27019 5.87387 9.34169 5.93331 9.40199C5.99276 9.46228 6.06359 9.51015 6.1417 9.54283C6.21981 9.57551 6.30363 9.59234 6.3883 9.59234C6.47297 9.59234 6.5568 9.57551 6.63491 9.54283C6.71301 9.51015 6.78385 9.46228 6.84329 9.40199C6.90274 9.34169 6.94961 9.27019 6.98118 9.19163C7.01275 9.11306 7.02839 9.02901 7.02719 8.94435V7.93111L9.45048 10.3544C9.50935 10.4157 9.57986 10.4647 9.65789 10.4984C9.73592 10.5321 9.81989 10.5499 9.90489 10.5508C9.98988 10.5517 10.0742 10.5356 10.1529 10.5034C10.2316 10.4713 10.3031 10.4238 10.3632 10.3637C10.4233 10.3036 10.4708 10.2321 10.5029 10.1534C10.5351 10.0747 10.5512 9.99037 10.5503 9.90537C10.5494 9.82038 10.5316 9.7364 10.4979 9.65838C10.4642 9.58035 10.4152 9.50984 10.3539 9.45097L7.93062 7.02768H8.94386C9.02852 7.02888 9.11257 7.01324 9.19114 6.98167C9.2697 6.9501 9.3412 6.90323 9.4015 6.84378C9.46179 6.78434 9.50966 6.7135 9.54234 6.63539C9.57502 6.55729 9.59185 6.47346 9.59185 6.38879C9.59185 6.30412 9.57502 6.2203 9.54234 6.14219C9.50966 6.06408 9.46179 5.99325 9.4015 5.9338C9.3412 5.87436 9.2697 5.82749 9.19114 5.79592C9.11257 5.76435 9.02852 5.74871 8.94386 5.7499H6.46692C6.4386 5.74591 6.41004 5.74383 6.38144 5.74366ZM16.598 5.74366C16.5744 5.74444 16.5509 5.74652 16.5275 5.7499H14.055C13.9703 5.74871 13.8863 5.76435 13.8077 5.79592C13.7291 5.82749 13.6576 5.87436 13.5973 5.9338C13.537 5.99325 13.4892 6.06408 13.4565 6.14219C13.4238 6.2203 13.407 6.30412 13.407 6.38879C13.407 6.47346 13.4238 6.55729 13.4565 6.63539C13.4892 6.7135 13.537 6.78434 13.5973 6.84378C13.6576 6.90323 13.7291 6.9501 13.8077 6.98167C13.8863 7.01324 13.9703 7.02888 14.055 7.02768H15.0682L12.6449 9.45097C12.5836 9.50984 12.5347 9.58035 12.5009 9.65838C12.4672 9.7364 12.4494 9.82038 12.4485 9.90537C12.4477 9.99037 12.4638 10.0747 12.4959 10.1534C12.528 10.2321 12.5755 10.3036 12.6356 10.3637C12.6957 10.4238 12.7672 10.4713 12.8459 10.5034C12.9246 10.5356 13.0089 10.5517 13.0939 10.5508C13.1789 10.5499 13.2629 10.5321 13.3409 10.4984C13.419 10.4647 13.4895 10.4157 13.5484 10.3544L15.9716 7.93111V8.94435C15.9704 9.02901 15.9861 9.11306 16.0177 9.19163C16.0492 9.27019 16.0961 9.34169 16.1555 9.40199C16.215 9.46228 16.2858 9.51015 16.3639 9.54283C16.442 9.57551 16.5259 9.59234 16.6105 9.59234C16.6952 9.59234 16.779 9.57551 16.8571 9.54283C16.9352 9.51015 17.0061 9.46228 17.0655 9.40199C17.125 9.34169 17.1718 9.27019 17.2034 9.19163C17.235 9.11306 17.2506 9.02901 17.2494 8.94435V6.46741C17.2617 6.37561 17.254 6.28224 17.2266 6.19375C17.1993 6.10526 17.153 6.02377 17.0911 5.95492C17.0291 5.88608 16.9529 5.83153 16.8678 5.79505C16.7827 5.75858 16.6906 5.74104 16.598 5.74366ZM9.88971 12.452C9.72373 12.4569 9.56619 12.5263 9.45048 12.6454L7.02719 15.0687V14.0555C7.02839 13.9708 7.01275 13.8867 6.98118 13.8082C6.94961 13.7296 6.90274 13.6581 6.84329 13.5978C6.78385 13.5375 6.71301 13.4897 6.63491 13.457C6.5568 13.4243 6.47297 13.4075 6.3883 13.4075C6.30363 13.4075 6.21981 13.4243 6.1417 13.457C6.06359 13.4897 5.99276 13.5375 5.93331 13.5978C5.87387 13.6581 5.827 13.7296 5.79543 13.8082C5.76386 13.8867 5.74822 13.9708 5.74941 14.0555V16.5324C5.73635 16.6301 5.74606 16.7295 5.77778 16.8228C5.80951 16.9161 5.86239 17.0008 5.93229 17.0703C6.00219 17.1398 6.08722 17.1921 6.18073 17.2233C6.27423 17.2545 6.37368 17.2636 6.47128 17.2499H8.94386C9.02852 17.2511 9.11257 17.2355 9.19114 17.2039C9.2697 17.1723 9.3412 17.1255 9.4015 17.066C9.46179 17.0066 9.50966 16.9357 9.54234 16.8576C9.57502 16.7795 9.59185 16.6957 9.59185 16.611C9.59185 16.5263 9.57502 16.4425 9.54234 16.3644C9.50966 16.2863 9.46179 16.2155 9.4015 16.156C9.3412 16.0966 9.2697 16.0497 9.19114 16.0181C9.11257 15.9866 9.02852 15.9709 8.94386 15.9721H7.93062L10.3539 13.5488C10.4462 13.4591 10.5093 13.3436 10.5348 13.2174C10.5603 13.0912 10.5472 12.9602 10.497 12.8416C10.4468 12.7231 10.362 12.6224 10.2536 12.5529C10.1452 12.4834 10.0184 12.4482 9.88971 12.452ZM13.0898 12.452C12.9627 12.4522 12.8386 12.4902 12.7333 12.5612C12.628 12.6323 12.5462 12.7331 12.4985 12.8508C12.4507 12.9685 12.4391 13.0978 12.4652 13.2222C12.4913 13.3465 12.5539 13.4602 12.6449 13.5488L15.0682 15.9721H14.055C13.9703 15.9709 13.8863 15.9866 13.8077 16.0181C13.7291 16.0497 13.6576 16.0966 13.5973 16.156C13.537 16.2155 13.4892 16.2863 13.4565 16.3644C13.4238 16.4425 13.407 16.5263 13.407 16.611C13.407 16.6957 13.4238 16.7795 13.4565 16.8576C13.4892 16.9357 13.537 17.0066 13.5973 17.066C13.6576 17.1255 13.7291 17.1723 13.8077 17.2039C13.8863 17.2355 13.9703 17.2511 14.055 17.2499H16.5319C16.6296 17.263 16.729 17.2533 16.8223 17.2215C16.9156 17.1898 17.0003 17.1369 17.0698 17.067C17.1393 16.9971 17.1917 16.9121 17.2228 16.8186C17.254 16.7251 17.2631 16.6256 17.2494 16.528V14.0555C17.2506 13.9708 17.235 13.8867 17.2034 13.8082C17.1718 13.7296 17.125 13.6581 17.0655 13.5978C17.0061 13.5375 16.9352 13.4897 16.8571 13.457C16.779 13.4243 16.6952 13.4075 16.6105 13.4075C16.5259 13.4075 16.442 13.4243 16.3639 13.457C16.2858 13.4897 16.215 13.5375 16.1555 13.5978C16.0961 13.6581 16.0492 13.7296 16.0177 13.8082C15.9861 13.8867 15.9704 13.9708 15.9716 14.0555V15.0687L13.5484 12.6454C13.4887 12.5841 13.4174 12.5354 13.3387 12.5022C13.2599 12.469 13.1753 12.4519 13.0898 12.452Z" fill="#0B00D8"/>
</svg>
