<svg width="61" height="61" viewBox="0 0 61 61" fill="none" xmlns="http://www.w3.org/2000/svg">
<path d="M24.7298 0C38.3875 0 49.4595 11.0719 49.4595 24.7297C49.4595 30.3684 47.5722 35.5666 44.3949 39.7268L60.0343 55.3712C61.3219 56.6588 61.3219 58.7466 60.0343 60.0342C58.8456 61.2229 56.9754 61.3142 55.6819 60.3086L55.3713 60.0342L39.7269 44.3948C35.5667 47.5721 30.3685 49.4595 24.7298 49.4595C11.0719 49.4595 0 38.3875 0 24.7297C0 11.0719 11.0719 0 24.7298 0ZM24.7298 6.5946C14.714 6.5946 6.5946 14.714 6.5946 24.7297C6.5946 34.7456 14.714 42.8649 24.7298 42.8649C34.7456 42.8649 42.8649 34.7456 42.8649 24.7297C42.8649 14.714 34.7456 6.5946 24.7298 6.5946Z" fill="white"/>
</svg>
