<svg width="42" height="42" viewBox="0 0 42 42" fill="none" xmlns="http://www.w3.org/2000/svg">
<g id="icons8-zoom_to_fit 1">
<path id="Vector" d="M17.9375 5.25C10.9459 5.25 5.25 10.9459 5.25 17.9375C5.25 24.9291 10.9459 30.625 17.9375 30.625C20.9618 30.625 23.742 29.5567 25.9253 27.7812L34.5095 36.3655C34.6305 36.4914 34.7753 36.592 34.9356 36.6613C35.0959 36.7306 35.2684 36.7672 35.443 36.7689C35.6176 36.7707 35.7909 36.7376 35.9525 36.6716C36.1142 36.6056 36.2611 36.508 36.3845 36.3845C36.508 36.2611 36.6056 36.1142 36.6716 35.9525C36.7376 35.7909 36.7707 35.6176 36.7689 35.443C36.7672 35.2684 36.7306 35.0959 36.6613 34.9356C36.592 34.7753 36.4914 34.6305 36.3655 34.5095L27.7812 25.9253C29.5567 23.742 30.625 20.9618 30.625 17.9375C30.625 10.9459 24.9291 5.25 17.9375 5.25ZM17.9375 7.875C23.5104 7.875 28 12.3646 28 17.9375C28 20.6523 26.9292 23.105 25.1921 24.9119C25.0851 24.9906 24.9906 25.0851 24.9119 25.1921C23.105 26.9292 20.6523 28 17.9375 28C12.3646 28 7.875 23.5104 7.875 17.9375C7.875 12.3646 12.3646 7.875 17.9375 7.875ZM14.4375 13.125C14.0894 13.125 13.7556 13.2633 13.5095 13.5095C13.2633 13.7556 13.125 14.0894 13.125 14.4375V21.4375C13.125 21.7856 13.2633 22.1194 13.5095 22.3655C13.7556 22.6117 14.0894 22.75 14.4375 22.75H21.4375C21.7856 22.75 22.1194 22.6117 22.3655 22.3655C22.6117 22.1194 22.75 21.7856 22.75 21.4375V14.4375C22.75 14.0894 22.6117 13.7556 22.3655 13.5095C22.1194 13.2633 21.7856 13.125 21.4375 13.125H14.4375ZM15.75 15.75H20.125V20.125H15.75V15.75Z" fill="white"/>
</g>
</svg>
